<svg width="36" height="36" viewBox="0 0 36 36" fill="none" xmlns="http://www.w3.org/2000/svg">
<path d="M4.22369 4.40197C1.42567 7.80593 10.693 12.3148 10.693 12.3148L12.1187 9.96236C12.0474 9.7485 6.89695 1.14058 4.22369 4.40197Z" fill="white"/>
<path d="M10.7287 12.5287C10.6752 12.5466 10.6395 12.5287 10.5861 12.5109C10.3366 12.3862 4.20588 9.35646 3.52866 6.30894C3.36826 5.56042 3.54648 4.8832 4.04549 4.25943C4.58014 3.60003 5.25737 3.3327 6.05935 3.47528C8.82173 3.97429 12.2257 9.60597 12.3148 9.8733C12.3504 9.98023 12.297 10.105 12.1722 10.1584C12.0653 10.1941 11.9405 10.1406 11.9049 10.0337C11.691 9.57032 8.35836 4.22379 5.88113 3.903C5.29301 3.83171 4.81183 4.04557 4.3841 4.54458C3.9742 5.06141 3.83163 5.59607 3.95638 6.21983C4.58014 9.05349 10.7287 12.0832 10.7821 12.1188C10.8891 12.1723 10.9425 12.2971 10.8891 12.4218C10.8534 12.4753 10.7999 12.5109 10.7287 12.5287Z" fill="#393A3A"/>
<path d="M0.677232 7.96638C-1.60396 11.7268 8.21585 14.8812 8.21585 14.8812L9.28515 12.3505C9.17822 12.1545 2.85149 4.34856 0.677232 7.96638Z" fill="white"/>
<path d="M8.25157 15.0951C8.21593 15.0951 8.18029 15.0951 8.14464 15.0951C7.8595 15.006 1.37237 12.8852 0.267416 9.96247C8.96901e-05 9.24959 0.0713768 8.53672 0.481278 7.85949C0.926822 7.1288 1.55058 6.77237 2.35256 6.79019C5.16841 6.89712 9.3387 11.9763 9.46346 12.2437C9.51692 12.3506 9.48128 12.4932 9.37435 12.5466C9.26742 12.6001 9.14266 12.5644 9.0892 12.4575C8.80405 12.0298 4.75851 7.20009 2.24563 7.23573C1.65752 7.25355 1.19415 7.52088 0.855535 8.09118C0.516921 8.66148 0.463456 9.21395 0.677317 9.80207C1.69316 12.5288 8.21593 14.6496 8.2694 14.6674C8.39415 14.7031 8.44761 14.8278 8.41197 14.9526C8.39415 15.0239 8.32286 15.0773 8.25157 15.0951Z" fill="#393A3A"/>
<path d="M16.7346 32.5602C15.9505 32.4176 15.9505 32.4176 15.9505 32.4176C15.9505 32.4176 15.1307 32.4176 15.7188 29.5483H14.2574C14.2574 29.5483 13.8297 34.0216 14.8633 34.0929C15.897 34.1642 17.2336 33.38 17.2336 33.38C17.2336 33.38 17.5188 32.7028 16.7346 32.5602Z" fill="white"/>
<path d="M14.9704 34.3248C14.9169 34.3248 14.8635 34.3248 14.81 34.3248C14.7031 34.3248 14.5249 34.2714 14.3823 34.0932C13.6694 33.2555 13.9724 29.905 14.008 29.5308C14.0259 29.406 14.1328 29.3169 14.2397 29.3347C14.3645 29.3526 14.4536 29.4595 14.4358 29.5664C14.311 30.9209 14.2754 33.2734 14.7209 33.808C14.7744 33.8793 14.81 33.8793 14.8457 33.8793C15.6655 33.9328 16.7348 33.3803 17.0199 33.2199C17.0377 33.1486 17.0556 33.0238 17.0199 32.9526C16.9665 32.8635 16.8595 32.81 16.6991 32.7743L15.915 32.6318C15.8437 32.6318 15.7011 32.5961 15.5585 32.4179C15.2021 31.9902 15.1843 31.01 15.5051 29.513C15.5229 29.3882 15.6476 29.3169 15.7724 29.3347C15.8971 29.3526 15.9684 29.4773 15.9506 29.6021C15.5585 31.4555 15.7902 32.008 15.915 32.1506C15.915 32.1684 15.9684 32.204 15.9684 32.204H16.0041L16.7882 32.3466C17.109 32.4001 17.3229 32.5427 17.4298 32.7565C17.5902 33.0773 17.4298 33.4338 17.412 33.4694C17.3942 33.505 17.3585 33.5407 17.3229 33.5585C17.2516 33.5941 16.0219 34.3248 14.9704 34.3248Z" fill="#393A3A"/>
<path d="M13.598 22.3306C13.598 22.3306 11.0495 26.3048 9.74854 27.3207C9.74854 27.3207 14.3466 31.8474 18.5347 30.0652V24.5226L13.598 22.3306Z" fill="#EA8DB2"/>
<path d="M16.4495 30.7067C12.9386 30.7067 9.76635 27.6413 9.60596 27.481C9.55249 27.4453 9.53467 27.374 9.53467 27.3206C9.53467 27.2493 9.57031 27.1958 9.62378 27.1602C10.8713 26.1621 13.402 22.2592 13.4198 22.2235C13.4911 22.1166 13.6159 22.0988 13.7228 22.1522C13.8297 22.2235 13.8475 22.3483 13.7941 22.4552C13.6871 22.6156 11.4416 26.1087 10.0871 27.3384C10.9426 28.1047 14.8099 31.3126 18.3208 29.9225V24.5404C18.3208 24.4156 18.4277 24.3265 18.5347 24.3265C18.6416 24.3265 18.7485 24.4334 18.7485 24.5404V30.0829C18.7485 30.172 18.6951 30.2433 18.6238 30.279C17.8931 30.5819 17.1624 30.7067 16.4495 30.7067Z" fill="#393A3A"/>
<path d="M12.7426 25.0573C12.7426 24.6474 12.4218 24.3266 12.0119 24.3266C11.9228 24.3266 11.8337 24.3445 11.7446 24.3801C11.6376 24.095 11.3703 23.8989 11.0673 23.8989C10.7644 23.8989 10.497 24.095 10.3901 24.3623C10.3188 24.3445 10.2475 24.3266 10.1584 24.3266C9.74853 24.3266 9.42773 24.6474 9.42773 25.0573C9.42773 25.2534 9.49902 25.4138 9.60595 25.5385C9.4812 25.6633 9.42773 25.8415 9.42773 26.0197C9.42773 26.4296 9.74853 26.7504 10.1584 26.7504C10.2297 26.7504 10.301 26.7326 10.3723 26.7148C10.4614 27.0177 10.7465 27.2316 11.0673 27.2316C11.406 27.2316 11.6733 26.9999 11.7624 26.6969C11.8337 26.7148 11.9228 26.7326 12.0119 26.7326C12.4218 26.7326 12.7426 26.4118 12.7426 26.0019C12.7426 25.8059 12.6713 25.6455 12.5644 25.5207C12.6713 25.4138 12.7426 25.2356 12.7426 25.0573Z" fill="white"/>
<path d="M11.0673 27.4633C10.7109 27.4633 10.4079 27.2672 10.2297 26.9643C10.2119 26.9643 10.1762 26.9643 10.1406 26.9643C9.62377 26.9643 9.19604 26.5365 9.19604 26.0197C9.19604 25.8415 9.24951 25.6811 9.33862 25.5385C9.24951 25.396 9.19604 25.2177 9.19604 25.0573C9.19604 24.5405 9.62377 24.1128 10.1406 24.1128H10.2475C10.4257 23.8455 10.7109 23.6851 11.0495 23.6851C11.3703 23.6851 11.6733 23.8633 11.8515 24.1306C11.905 24.1306 11.9406 24.1128 11.9941 24.1128C12.5109 24.1128 12.9386 24.5405 12.9386 25.0573C12.9386 25.2356 12.8852 25.396 12.796 25.5385C12.8852 25.6811 12.9386 25.8593 12.9386 26.0197C12.9386 26.5365 12.5109 26.9643 11.9941 26.9643C11.9584 26.9643 11.9228 26.9643 11.8871 26.9643C11.7267 27.2672 11.4059 27.4633 11.0673 27.4633ZM10.3545 26.5009C10.3901 26.5009 10.4257 26.5009 10.4614 26.5187C10.5149 26.5544 10.5505 26.59 10.5683 26.6435C10.6396 26.8573 10.8356 26.9999 11.0495 26.9999C11.2812 26.9999 11.4772 26.8395 11.5307 26.6257C11.5485 26.5722 11.5842 26.5187 11.6376 26.4831C11.6911 26.4474 11.7624 26.4474 11.8158 26.4653C11.8693 26.4831 11.9228 26.5009 11.9762 26.5009C12.2614 26.5009 12.4931 26.2692 12.4931 25.9841C12.4931 25.8593 12.4396 25.7346 12.3683 25.6455C12.297 25.5563 12.297 25.4316 12.3683 25.3425C12.4574 25.2534 12.4931 25.1286 12.4931 25.0039C12.4931 24.7187 12.2614 24.487 11.9762 24.487C11.9228 24.487 11.8515 24.5049 11.798 24.5227C11.7446 24.5405 11.6911 24.5405 11.6376 24.5227C11.5842 24.5049 11.5485 24.4514 11.5307 24.3979C11.4594 24.2019 11.2634 24.0593 11.0495 24.0593C10.8356 24.0593 10.6574 24.1841 10.5683 24.3801C10.5327 24.487 10.4079 24.5405 10.301 24.5049C10.2475 24.487 10.1941 24.4692 10.1406 24.4692C9.85545 24.4692 9.62377 24.7009 9.62377 24.986C9.62377 25.1108 9.67723 25.2356 9.74852 25.3247C9.81981 25.4138 9.81981 25.5385 9.74852 25.6276C9.65941 25.7167 9.62377 25.8415 9.62377 25.9662C9.62377 26.2514 9.85545 26.4831 10.1406 26.4831C10.1941 26.4831 10.2475 26.4831 10.2832 26.4653C10.3188 26.5009 10.3366 26.5009 10.3545 26.5009Z" fill="#393A3A"/>
<path d="M19.8534 8.99985C21.8495 9.83748 24.1841 11.6909 24.9861 14.8454C26.6079 21.2612 21.0475 23.7741 17.3227 24.4513C14.3108 25.0038 9.55243 24.9147 7.69897 20.2098C6.43362 17.0018 6.8257 13.5266 9.17817 11.2632C12.6534 7.94837 16.9128 7.77015 19.8534 8.99985Z" fill="white"/>
<path d="M14.8635 24.9684C13.9367 24.9684 12.9565 24.8614 11.9942 24.5763C9.83773 23.9169 8.30506 22.4911 7.43179 20.3169C6.05951 16.8416 6.64763 13.2951 8.98229 11.0852C10.6219 9.51687 12.5823 8.50103 14.6674 8.16241C16.4674 7.85944 18.3387 8.0733 19.9427 8.75053C21.208 9.28518 24.2556 10.9426 25.2358 14.7921C25.8061 17.0198 25.5565 18.9802 24.5229 20.6198C22.6694 23.4891 18.909 24.4693 17.3585 24.7545C16.6635 24.8614 15.808 24.9684 14.8635 24.9684ZM16.2714 8.57231C14.0793 8.57231 11.6021 9.35647 9.37437 11.4773C7.20011 13.5446 6.66546 16.8594 7.94862 20.1208C9.80209 24.808 14.5783 24.6832 17.2694 24.202C18.7308 23.9347 22.3308 23.008 24.0595 20.3169C25.0219 18.8198 25.2358 17.002 24.7011 14.9347C23.7744 11.3169 20.9229 9.76637 19.7288 9.26736C18.7486 8.83964 17.5546 8.57231 16.2714 8.57231Z" fill="#393A3A"/>
<path d="M9.42773 10.7821C9.42773 10.7821 10.4258 11.7622 12.8495 11.3345C15.2911 10.889 15.897 9.46324 15.897 9.46324L11.3881 4.29492L9.42773 10.7821Z" fill="#8EC777"/>
<path d="M11.6555 11.6731C10.0159 11.6731 9.28525 10.9781 9.26742 10.9603C9.21396 10.9068 9.19614 10.8177 9.21396 10.7464L11.1744 4.25927C11.1922 4.18798 11.2635 4.1167 11.3348 4.09887C11.406 4.08105 11.4951 4.1167 11.5486 4.17016L16.0575 9.33848C16.111 9.40977 16.1288 9.49887 16.0932 9.57016C16.0575 9.64145 15.3981 11.1028 12.8852 11.5662C12.4575 11.6197 12.0476 11.6731 11.6555 11.6731ZM9.67732 10.7108C9.90901 10.8712 10.5328 11.2276 11.6555 11.2276C12.012 11.2276 12.4041 11.1919 12.814 11.1207C14.7031 10.782 15.4338 9.83749 15.6298 9.49887L11.4773 4.75828L9.67732 10.7108Z" fill="#393A3A"/>
<path d="M18.9268 14.1506C18.802 14.1506 18.6772 14.0615 18.6416 13.9367C18.6238 13.8654 18.0178 12.1545 15.8792 12.1545C13.9545 12.1545 13.3129 13.8654 13.2772 13.9367C13.2238 14.0971 13.0456 14.1862 12.8852 14.1327C12.7248 14.0793 12.6357 13.9011 12.6891 13.7407C12.6891 13.7228 13.4911 11.5308 15.8614 11.5308C18.4456 11.5308 19.1941 13.7228 19.2119 13.7407C19.2654 13.9011 19.1763 14.0793 19.0159 14.1327C18.9802 14.1506 18.9624 14.1506 18.9268 14.1506Z" fill="#393A3A"/>
<path d="M23.1861 14.7388C23.1683 14.7388 23.1683 14.7388 23.1861 14.7388C23.0079 14.7388 22.8653 14.5784 22.8832 14.418C22.8832 14.418 22.9188 13.5447 22.3842 13.3487C22.2951 13.313 22.2059 13.313 22.1347 13.3487C21.8851 13.4734 21.6891 13.8833 21.6356 14.0259C21.5822 14.1863 21.404 14.2754 21.2436 14.2219C21.0832 14.1685 20.9941 13.9903 21.0475 13.8299C21.0832 13.7586 21.3327 13.0457 21.8673 12.7962C22.099 12.6893 22.3485 12.6715 22.598 12.7784C23.5604 13.1348 23.5069 14.4002 23.5069 14.4536C23.4713 14.5962 23.3465 14.7388 23.1861 14.7388Z" fill="#393A3A"/>
<path d="M21.5287 18.4988C21.4574 18.4988 21.3861 18.481 21.3327 18.4276C21.2079 18.3206 21.1901 18.1246 21.297 17.9998C21.7069 17.5008 21.8851 17.0018 21.8139 16.5384C21.7069 15.8078 21.0832 15.3622 21.0653 15.3444C20.9228 15.2375 20.8871 15.0592 20.9941 14.9167C21.101 14.7741 21.2792 14.7384 21.4218 14.8454C21.4574 14.8632 22.2772 15.4691 22.4198 16.4493C22.5089 17.0909 22.2772 17.7503 21.7604 18.3919C21.7069 18.4454 21.6178 18.4988 21.5287 18.4988Z" fill="#393A3A"/>
<path d="M22.0813 16.1289L29.3526 16.3784V17.8754L22.0813 17.5012V16.1289Z" fill="white"/>
<path d="M29.3526 18.1962C29.3348 18.1962 29.3348 18.1962 29.3526 18.1962L22.0813 17.822C21.9209 17.822 21.7961 17.6794 21.7961 17.519V16.1467C21.7961 16.0576 21.8318 15.9863 21.8853 15.9329C21.9387 15.8794 22.0278 15.8438 22.1169 15.8438L29.3882 16.0754C29.5486 16.0754 29.6912 16.218 29.6912 16.3784V17.8933C29.6912 17.9824 29.6555 18.0537 29.6021 18.1249C29.4952 18.1606 29.4239 18.1962 29.3526 18.1962ZM22.3843 17.216L29.0318 17.5546V16.6636L22.3843 16.4497V17.216Z" fill="#393A3A"/>
<path d="M24.3266 16.2537L25.1643 17.5903H24.2375L23.293 16.1646L24.3266 16.2537Z" fill="#E61F19"/>
<path d="M25.396 17.4116L24.5762 16.0928C24.5227 16.0037 24.4336 15.9503 24.3445 15.9503L23.3287 15.8611C23.2039 15.8433 23.097 15.9146 23.0435 16.0037C22.9901 16.1107 22.9901 16.2354 23.0435 16.3245L23.9702 17.7681C24.0237 17.8572 24.1306 17.9107 24.2376 17.9107H25.1643C25.3425 17.9107 25.4673 17.7681 25.4673 17.6077C25.4673 17.5186 25.4495 17.4473 25.396 17.4116Z" fill="#E61F19"/>
<path d="M27.499 16.3782L28.3366 17.7148H27.4099L26.4832 16.2891L27.499 16.3782Z" fill="#E61F19"/>
<path d="M28.5862 17.5186L27.7664 16.1998C27.7129 16.1107 27.6238 16.0572 27.5347 16.0572L26.5189 15.9681C26.3941 15.9503 26.2872 16.0215 26.2337 16.1107C26.1802 16.2176 26.1802 16.3423 26.2337 16.4314L27.1604 17.875C27.2139 17.9641 27.3208 18.0176 27.4278 18.0176H28.3545C28.5327 18.0176 28.6575 17.875 28.6575 17.7146C28.6575 17.6433 28.6218 17.572 28.5862 17.5186Z" fill="#E61F19"/>
<path d="M29.5486 18.1782L22.2773 17.8039C22.1169 17.8039 21.9922 17.6613 21.9922 17.5009V16.1287C21.9922 16.0395 22.0278 15.9683 22.0813 15.9148C22.1348 15.8613 22.2239 15.8257 22.313 15.8257L29.5843 16.0574C29.7447 16.0574 29.8872 16.1999 29.8872 16.3603V17.8752C29.8872 17.9643 29.8516 18.0356 29.7981 18.1069C29.709 18.1603 29.6377 18.1782 29.5486 18.1782ZM22.5981 17.198L29.2457 17.5366V16.6455L22.5981 16.4316V17.198Z" fill="#393A3A"/>
<path d="M29.5486 16.3606C29.5486 16.3606 29.9585 15.5408 31.1882 16.1289C32.4179 16.717 33.4872 17.0378 34.2357 16.1289V18.1784C34.2357 18.1784 33.2555 18.4814 31.8832 17.5903C30.511 16.6992 29.5308 17.5903 29.5308 17.5903V16.3606H29.5486Z" fill="#7E7E7F"/>
<path d="M33.808 18.5524C33.3446 18.5524 32.5961 18.4277 31.7228 17.8574C31.3664 17.6257 31.0278 17.5187 30.6713 17.5187C30.1011 17.5187 29.7446 17.8395 29.7446 17.8395C29.6555 17.9286 29.5308 17.9465 29.406 17.893C29.2991 17.8395 29.2278 17.7326 29.2278 17.6079V16.3782C29.2278 16.3247 29.2456 16.289 29.2634 16.2356C29.3704 16.0039 29.7446 15.6118 30.3862 15.6118C30.6713 15.6118 30.9921 15.7009 31.3308 15.8435C31.9011 16.1108 32.5426 16.3782 33.0773 16.3782C33.4694 16.3782 33.7545 16.2356 34.004 15.9326C34.0931 15.8257 34.2179 15.79 34.3426 15.8435C34.4674 15.8791 34.5565 16.0039 34.5565 16.1286V18.1782C34.5565 18.3207 34.4674 18.4277 34.3426 18.4811C34.3248 18.4989 34.1288 18.5524 33.808 18.5524ZM30.6892 16.895C31.1525 16.895 31.6159 17.0376 32.0793 17.3405C32.8278 17.8217 33.4337 17.9286 33.8258 17.9286H33.9506V16.8059C33.7011 16.9485 33.3981 17.0197 33.0951 17.0197C32.4535 17.0197 31.7407 16.7346 31.0812 16.4138C30.8317 16.289 30.6001 16.2356 30.404 16.2356C30.1011 16.2356 29.9407 16.3782 29.8694 16.4673V17.0732C30.0832 16.9663 30.3684 16.895 30.6892 16.895Z" fill="#393A3A"/>
<path d="M35.0555 14.7741C34.9307 14.7741 34.806 14.685 34.7525 14.5602C34.7347 14.5246 34.4852 13.7404 33.4515 13.4731C32.3644 13.1879 31.6515 13.6691 31.6515 13.6691C31.509 13.7582 31.3129 13.7226 31.2238 13.5978C31.1347 13.4553 31.1704 13.2592 31.2951 13.1701C31.3307 13.1523 32.2575 12.5285 33.6119 12.8671C35.002 13.2236 35.3406 14.3285 35.3585 14.382C35.4119 14.5424 35.305 14.7206 35.1446 14.7741C35.109 14.7741 35.0733 14.7741 35.0555 14.7741Z" fill="#393A3A"/>
<path d="M35.4832 13.0988C35.3585 13.0988 35.2337 13.0097 35.1803 12.8849C35.1624 12.8493 34.9129 12.0651 33.8793 11.7978C32.7921 11.5126 32.0793 11.9938 32.0793 11.9938C31.9367 12.0829 31.7407 12.0473 31.6516 11.9225C31.5624 11.78 31.5981 11.5839 31.7228 11.4948C31.7585 11.477 32.6852 10.8532 34.0397 11.1919C35.4298 11.5483 35.7684 12.6532 35.7862 12.7067C35.8397 12.8671 35.7327 13.0453 35.5723 13.0988C35.5545 13.0988 35.5189 13.0988 35.4832 13.0988Z" fill="#393A3A"/>
<path d="M32.5604 21.3683C31.6693 21.3683 31.099 20.994 31.0812 20.9762C30.9386 20.8871 30.903 20.691 31.0099 20.5485C31.099 20.4059 31.2951 20.3703 31.4377 20.4594C31.4733 20.4772 32.1683 20.9405 33.2555 20.6732C34.2891 20.4059 34.5565 19.6217 34.5565 19.5861C34.6099 19.4257 34.7703 19.3366 34.9485 19.3901C35.1089 19.4435 35.198 19.6039 35.1624 19.7643C35.1446 19.8178 34.806 20.9227 33.4159 21.2792C33.0951 21.3326 32.8099 21.3683 32.5604 21.3683Z" fill="#393A3A"/>
<path d="M32.7921 23.3463C31.901 23.3463 31.3307 22.972 31.3129 22.9542C31.1703 22.8651 31.1347 22.6691 31.2416 22.5265C31.3307 22.3839 31.5268 22.3483 31.6693 22.4374C31.705 22.4552 32.4 22.9186 33.4872 22.6513C34.5208 22.3839 34.7882 21.5998 34.7882 21.5641C34.8416 21.4037 35.002 21.3146 35.1802 21.3681C35.3406 21.4215 35.4297 21.5819 35.3941 21.7423C35.3763 21.7958 35.0377 22.9008 33.6476 23.2572C33.3268 23.3107 33.0416 23.3463 32.7921 23.3463Z" fill="#393A3A"/>
<path d="M3.10104 21.6889C3.73098 21.6889 4.24164 21.282 4.24164 20.78C4.24164 20.278 3.73098 19.8711 3.10104 19.8711C2.47111 19.8711 1.96045 20.278 1.96045 20.78C1.96045 21.282 2.47111 21.6889 3.10104 21.6889Z" fill="#393A3A"/>
<path d="M3.88521 17.9998C3.61789 18.8374 3.77828 19.7463 3.5466 20.5839C3.45749 20.9225 3.99214 21.0651 4.08125 20.7265C4.29511 19.8889 4.13472 18.98 4.41987 18.1423C4.5268 17.8037 3.99214 17.6612 3.88521 17.9998Z" fill="#393A3A"/>
<path d="M3.88515 18.1423C4.02773 18.6057 5.20397 19.978 4.61585 20.3701C4.31288 20.5661 4.59803 21.0473 4.901 20.8513C6.02377 20.1206 4.68713 18.8196 4.41981 17.9998C4.31288 17.6612 3.77822 17.8037 3.88515 18.1423Z" fill="#393A3A"/>
<path d="M2.88713 21.2792C2.79802 21.2792 2.70892 21.2436 2.65545 21.1545L2.44159 20.8337C2.35248 20.7089 2.38812 20.5307 2.51288 20.4416C2.63763 20.3525 2.81585 20.3881 2.90496 20.5129L3.11882 20.8337C3.20793 20.9584 3.17228 21.1366 3.04753 21.2257C2.99406 21.2614 2.9406 21.2792 2.88713 21.2792Z" fill="white"/>
<path d="M24.3919 9.73443C24.9721 9.48938 25.2841 8.91595 25.0888 8.45363C24.8935 7.99131 24.2649 7.81517 23.6848 8.06022C23.1046 8.30526 22.7926 8.87869 22.9878 9.34101C23.1831 9.80333 23.8117 9.97947 24.3919 9.73443Z" fill="#393A3A"/>
<path d="M23.6852 5.98834C23.7565 6.89725 24.2734 7.6814 24.3981 8.57249C24.4516 8.92893 24.9862 8.76853 24.9328 8.42992C24.808 7.5923 24.309 6.84378 24.2377 5.98834C24.2021 5.64972 23.6496 5.64972 23.6852 5.98834Z" fill="#393A3A"/>
<path d="M23.9348 9.46356C23.8813 9.46356 23.8278 9.44574 23.7922 9.42792L23.4714 9.21406C23.3466 9.12495 23.311 8.96455 23.3823 8.8398C23.4714 8.71504 23.6318 8.6794 23.7565 8.75069L24.0773 8.96455C24.2021 9.05366 24.2377 9.21406 24.1664 9.33881C24.113 9.42792 24.0239 9.46356 23.9348 9.46356Z" fill="white"/>
<path d="M27.2764 9.05718C27.8566 8.81214 28.1686 8.23871 27.9733 7.77639C27.7781 7.31406 27.1495 7.13792 26.5693 7.38297C25.9891 7.62801 25.6771 8.20145 25.8724 8.66377C26.0676 9.12609 26.6963 9.30223 27.2764 9.05718Z" fill="#393A3A"/>
<path d="M26.5722 5.32885C26.6435 6.23776 27.1603 7.02192 27.2851 7.91301C27.3385 8.26944 27.8732 8.10905 27.8197 7.77043C27.695 6.93281 27.196 6.1843 27.1247 5.32885C27.089 4.97241 26.5366 4.97241 26.5722 5.32885Z" fill="#393A3A"/>
<path d="M26.8217 8.80389C26.7683 8.80389 26.7148 8.78607 26.6791 8.76825L26.3584 8.55439C26.2336 8.46528 26.198 8.30488 26.2692 8.18013C26.3584 8.05538 26.5187 8.01973 26.6435 8.09102L26.9643 8.30488C27.089 8.39399 27.1247 8.55439 27.0534 8.67914C26.9999 8.75043 26.9108 8.80389 26.8217 8.80389Z" fill="white"/>
<path d="M24.0237 6.25523C24.9861 6.02355 25.9484 5.80968 26.9108 5.578C27.2494 5.48889 27.1069 4.97206 26.7682 5.04335C25.8059 5.27503 24.8435 5.48889 23.8811 5.72058C23.5425 5.80968 23.6851 6.34434 24.0237 6.25523Z" fill="#393A3A"/>
<path d="M21.5823 26.1445L22.7229 28.8178H25.9664L27.3565 26.1445H21.5823Z" fill="#B8542F"/>
<path d="M25.9663 29.0317H22.7228C22.6337 29.0317 22.5624 28.9782 22.5267 28.8891L21.3861 26.2158C21.3505 26.1445 21.3683 26.0732 21.4039 26.0019C21.4396 25.9485 21.5109 25.895 21.5822 25.895H27.3564C27.4277 25.895 27.499 25.9307 27.5525 26.0019C27.5881 26.0732 27.5881 26.1445 27.5525 26.2158L26.1624 28.8891C26.1089 28.9782 26.0376 29.0317 25.9663 29.0317ZM22.8653 28.5861H25.8238L26.9822 26.3584H21.9208L22.8653 28.5861Z" fill="#393A3A"/>
<path d="M23.703 29.0318C23.5961 29.0318 23.507 28.9605 23.4891 28.8714L22.901 26.4655C22.8654 26.3407 22.9367 26.2338 23.0614 26.1981C23.1862 26.1625 23.2931 26.2338 23.3287 26.3585L23.9169 28.7645C23.9525 28.8892 23.8812 28.9962 23.7565 29.0318C23.7386 29.0318 23.7208 29.0318 23.703 29.0318Z" fill="#393A3A"/>
<path d="M24.8792 29.0317C24.8613 29.0317 24.8613 29.0317 24.8435 29.0317C24.7188 29.0139 24.6475 28.8891 24.6653 28.7822L25.0039 26.8753C25.0217 26.7505 25.1465 26.6792 25.2534 26.697C25.3782 26.7149 25.4495 26.8396 25.4316 26.9465L25.093 28.8535C25.0752 28.9604 24.9683 29.0317 24.8792 29.0317Z" fill="#393A3A"/>
<path d="M21.3684 26.0375C21.3684 26.0375 20.406 23.881 22.4021 22.8474C24.3981 21.8137 28.0694 22.9008 27.6951 25.6989C27.6951 25.6989 27.6951 27.3919 24.4337 27.2494C21.1545 27.1246 21.3684 26.0375 21.3684 26.0375Z" fill="white"/>
<path d="M24.808 27.4989C24.6832 27.4989 24.5407 27.4989 24.4159 27.4811C22.7941 27.4098 21.7426 27.1068 21.3327 26.5721C21.1723 26.3761 21.1545 26.1801 21.1545 26.091C21.0119 25.7345 20.3347 23.685 22.2951 22.6692C22.8119 22.4019 23.4357 22.2593 24.1129 22.2593C25.3783 22.2593 26.5723 22.7583 27.2674 23.5424C27.802 24.1484 28.0159 24.8969 27.909 25.7345C27.909 25.8236 27.8555 26.287 27.4456 26.6969C26.911 27.2316 26.0377 27.4989 24.808 27.4989ZM21.5822 26.091C21.5822 26.091 21.5822 26.1979 21.6892 26.3226C21.8852 26.5543 22.509 26.9642 24.4337 27.0533C25.6991 27.1068 26.6436 26.8751 27.1248 26.3939C27.4634 26.0553 27.4634 25.7345 27.4634 25.7167C27.4634 25.6989 27.4634 25.6989 27.4634 25.6811C27.5525 24.9682 27.3743 24.3444 26.9288 23.8276C26.3228 23.1325 25.2357 22.7048 24.0951 22.7048C23.4892 22.7048 22.9367 22.8296 22.4733 23.0613C20.6912 23.988 21.511 25.8771 21.5466 25.9662C21.5822 26.0019 21.6001 26.0375 21.5822 26.091Z" fill="#393A3A"/>
<path d="M22.3843 23.0791L22.6694 23.6138L23.2753 23.7029L22.8298 24.1306L22.9367 24.7365L22.3843 24.4514L21.8496 24.7365L21.9565 24.1306L21.511 23.7029L22.1169 23.6138L22.3843 23.0791Z" fill="#E84441"/>
<path d="M24.4158 24.416L24.6474 24.8616L25.1464 24.9328L24.79 25.2893L24.8613 25.7705L24.4158 25.5388L23.988 25.7705L24.0593 25.2893L23.7029 24.9328L24.2019 24.8616L24.4158 24.416Z" fill="#94C978"/>
<path d="M26.3584 23.1147L26.6613 23.7385L27.3386 23.8276L26.8574 24.3088L26.9643 24.986L26.3584 24.6652L25.7524 24.986L25.8772 24.3088L25.3782 23.8276L26.0554 23.7385L26.3584 23.1147Z" fill="#CE8BBA"/>
<path d="M24.808 27.4813C24.6832 27.4813 24.5407 27.4813 24.4159 27.4635C22.7941 27.3922 21.7426 27.0892 21.3327 26.5546C21.1723 26.3585 21.1545 26.1625 21.1545 26.0734C21.0119 25.7169 20.3347 23.6674 22.2951 22.6516C22.8119 22.3843 23.4357 22.2417 24.1129 22.2417C25.3783 22.2417 26.5723 22.7407 27.2674 23.5249C27.802 24.1308 28.0159 24.8793 27.909 25.7169C27.909 25.8061 27.8555 26.2694 27.4456 26.6793C26.911 27.1962 26.0377 27.4813 24.808 27.4813ZM21.5822 26.0734C21.5822 26.0734 21.5822 26.1803 21.6892 26.3051C21.8852 26.5367 22.509 26.9466 24.4337 27.0358C25.6991 27.0892 26.6436 26.8575 27.1248 26.3764C27.4634 26.0377 27.4634 25.7169 27.4634 25.6991C27.4634 25.6813 27.4634 25.6813 27.4634 25.6635C27.5525 24.9506 27.3743 24.3268 26.9288 23.81C26.3228 23.115 25.2357 22.6872 24.0951 22.6872C23.4892 22.6872 22.9367 22.812 22.4733 23.0437C20.6912 23.9704 21.511 25.8595 21.5466 25.9486C21.5822 25.9843 21.6001 26.0199 21.5822 26.0734Z" fill="#393A3A"/>
<path d="M23.6316 22.5268C23.6316 22.5268 24.2019 23.7209 25.1286 22.5981V20.4595L23.5781 20.5129L23.6316 22.5268Z" fill="white"/>
<path d="M24.3623 23.2931C23.7742 23.2931 23.4534 22.6515 23.4355 22.6159C23.4177 22.5803 23.4177 22.5624 23.4177 22.5268L23.3821 20.4951C23.3821 20.3704 23.4712 20.2812 23.5959 20.2634L25.1464 20.21C25.1999 20.21 25.2712 20.2278 25.3068 20.2634C25.3425 20.2991 25.3781 20.3704 25.3781 20.4238V22.5624C25.3781 22.6159 25.3603 22.6694 25.3247 22.705C25.0039 23.1149 24.6831 23.2931 24.3623 23.2931ZM23.8633 22.4733C23.9167 22.5803 24.1128 22.8654 24.3623 22.8654C24.5227 22.8654 24.7187 22.7407 24.9148 22.509V20.6733L23.8098 20.709L23.8633 22.4733Z" fill="#393A3A"/>
<path d="M24.3625 17.7329C24.3625 17.7329 23.7922 18.6596 23.4179 19.2834C23.0258 19.8893 23.1862 20.7626 24.3625 20.7091C25.5387 20.6557 25.7882 19.7289 24.3625 17.7329Z" fill="#F4ED57"/>
<path d="M24.2732 20.923C23.5425 20.923 23.2396 20.5844 23.1326 20.3705C22.9366 20.0141 22.9722 19.5507 23.2217 19.1586C23.596 18.5527 24.1663 17.626 24.1663 17.626C24.2019 17.5547 24.2732 17.519 24.3445 17.519C24.4158 17.519 24.4871 17.5547 24.5405 17.6082C25.4316 18.8557 25.7346 19.7824 25.4495 20.3527C25.3247 20.6022 25.0396 20.8874 24.3623 20.923C24.3445 20.923 24.3089 20.923 24.2732 20.923ZM24.3802 18.1428C24.1841 18.4636 23.8455 18.9983 23.596 19.3903C23.4356 19.6577 23.4 19.9606 23.5069 20.1567C23.6316 20.3705 23.8811 20.4775 24.2732 20.4775H24.3623C24.7366 20.4596 24.9683 20.3527 25.0752 20.1567C25.1643 19.9428 25.2178 19.3903 24.3802 18.1428Z" fill="#393A3A"/>
<path d="M16.7346 26.0909C16.7346 26.0909 15.7009 25.8057 15.7187 26.7503C15.7366 27.7127 20.0851 28.3899 22.1702 27.1602C22.1702 27.1602 23.0613 26.2869 21.3861 26.0374C19.6752 25.7879 19.1405 26.4473 16.7346 26.0909Z" fill="white"/>
<path d="M19.1227 28.0517C17.6079 28.0517 15.4871 27.6418 15.4871 26.7507C15.4871 26.4656 15.5583 26.2339 15.7187 26.0735C15.8791 25.9131 16.1108 25.824 16.396 25.824C16.5742 25.824 16.7346 25.8596 16.7702 25.8774C17.2514 25.9487 17.697 25.9844 18.1069 25.9844C18.6415 25.9844 19.0514 25.9309 19.4613 25.8774C19.8356 25.824 20.192 25.7705 20.6019 25.7705C20.8692 25.7705 21.1187 25.7883 21.4039 25.824C22.0811 25.9309 22.4732 26.1448 22.5801 26.4834C22.7227 26.9111 22.3484 27.2854 22.3128 27.321C22.295 27.3388 22.2772 27.3388 22.2772 27.3566C21.5108 27.8022 20.4059 28.0517 19.1227 28.0517ZM16.396 26.2695C16.289 26.2695 16.1286 26.2873 16.0395 26.3764C15.9682 26.4477 15.9326 26.5725 15.9326 26.7507C15.9326 27.0893 17.3049 27.6061 19.1405 27.6061C20.3168 27.6061 21.3326 27.3923 22.0277 27.0002C22.0989 26.9289 22.2059 26.7507 22.1702 26.626C22.1524 26.5725 22.0277 26.3764 21.3326 26.2695C21.0831 26.2339 20.8336 26.2161 20.6019 26.2161C20.2277 26.2161 19.889 26.2695 19.5326 26.3052C19.1227 26.3586 18.695 26.4299 18.1247 26.4299C17.6791 26.4299 17.2158 26.3943 16.6989 26.3052C16.6811 26.3052 16.6811 26.3052 16.6633 26.3052C16.6633 26.3052 16.5385 26.2695 16.396 26.2695Z" fill="#393A3A"/>
</svg>
