<svg width="24" height="24" viewBox="0 0 24 24" fill="none" xmlns="http://www.w3.org/2000/svg">
<g clip-path="url(#clip0_2061_7696)">
<path d="M23.2182 21.3855C20.2363 17.1527 18.7418 10.1964 19.2182 2.77456C19.2291 2.5891 19.1636 2.40365 19.0363 2.26546C18.9091 2.13092 18.7272 2.05092 18.5418 2.05092H16.5709C16.5418 1.63274 16.4327 1.11637 16.0072 0.843646C15.6072 0.585465 15.0254 0.661828 14.6545 1.01819C14.3927 1.27274 14.24 1.64001 14.2218 2.05092H13.2145C13.1854 1.63274 13.0763 1.11637 12.6509 0.843646C12.2509 0.585465 11.6691 0.661828 11.2982 1.01819C11.0363 1.27274 10.8836 1.64001 10.8654 2.05092H9.85815C9.82906 1.63274 9.71997 1.11637 9.29451 0.843646C8.89452 0.585465 8.3127 0.661828 7.94179 1.01819C7.67997 1.27274 7.52724 1.64001 7.50906 2.05092H6.50179C6.4727 1.63274 6.36361 1.11637 5.93815 0.843646C5.53815 0.585465 4.95633 0.661828 4.58542 1.01819C4.32361 1.27274 4.17088 1.64001 4.1527 2.05092H3.98542H3.98179H3.63633C3.6327 2.05092 3.62542 2.05092 3.62179 2.05092C3.61088 2.05092 3.60361 2.05092 3.5927 2.05456C3.58542 2.05456 3.57815 2.05819 3.56724 2.06183C3.56361 2.06546 3.55633 2.0691 3.54906 2.07274C3.53815 2.07637 3.53088 2.08001 3.51997 2.08365C3.51633 2.08728 3.5127 2.08728 3.50906 2.09092C3.09452 2.33092 2.69815 2.58183 2.3127 2.82183C1.97452 3.03274 1.62542 3.25092 1.2727 3.46546C1.1127 3.56001 1.00724 3.72001 0.978152 3.89819C0.152697 9.21455 0.985425 16.6436 2.95997 21.5673C3.05452 21.8036 3.28361 21.9527 3.53088 21.9527C3.58542 21.9527 3.63997 21.9455 3.69452 21.9309C4.13815 21.8109 4.54179 21.6618 4.90542 21.4946C5.08724 21.8436 5.27633 22.1418 5.46542 22.3818C5.58179 22.5309 5.75997 22.6109 5.94179 22.6109C6.03997 22.6109 6.14179 22.5891 6.2327 22.5382C6.50179 22.3927 6.77451 22.2509 7.05088 22.1055C7.33815 21.9527 7.62179 21.8036 7.90542 21.6509C8.47997 22.2727 9.1127 22.8 9.78542 23.2182C9.88361 23.28 9.99633 23.3091 10.1127 23.3091H10.1309L10.3309 23.2946C10.3745 23.3018 10.4145 23.3091 10.4582 23.3091H10.4763L22.7054 22.4473C22.9527 22.4291 23.1636 22.2873 23.2691 22.0618C23.3782 21.8364 23.3563 21.5855 23.2182 21.3855ZM6.50179 18.6691C5.58179 16.8327 5.1127 14.8218 4.80724 13.2727C4.36361 11.0436 4.07997 8.78183 3.95633 6.5091H18.2727C18.4254 12.5891 19.9091 18.0909 22.44 21.6873C22.4836 21.7491 22.4618 21.8109 22.4509 21.8364C22.44 21.8618 22.4036 21.92 22.3236 21.9236L10.1054 22.7818C10.0909 22.7818 10.0727 22.7746 10.0618 22.7673C9.39633 22.3564 8.77452 21.8291 8.21088 21.2036C8.20724 21.2 8.20724 21.1927 8.20361 21.1891C8.18179 21.1455 8.14542 21.1127 8.10542 21.0873C7.49452 20.3927 6.95633 19.5782 6.50179 18.6691ZM3.89452 2.57819H5.99633C5.99633 2.74183 5.9927 2.90183 5.98542 3.06546C5.46906 3.19637 5.00724 3.75637 4.99633 4.30183C4.98542 4.8691 5.41088 5.39274 5.96724 5.49819C6.03633 5.51274 6.10906 5.51637 6.18179 5.51637C6.50179 5.51637 6.82179 5.38546 7.05088 5.15637C7.32724 4.88001 7.45815 4.48001 7.40724 4.08728C7.34179 3.60365 6.95997 3.20001 6.50906 3.07274C6.51633 2.90546 6.51997 2.74183 6.51997 2.57456H9.34906C9.34906 2.73819 9.34542 2.89819 9.33815 3.06183C8.82179 3.19274 8.35997 3.75274 8.34906 4.29819C8.33815 4.86546 8.76361 5.3891 9.31997 5.49455C9.38906 5.5091 9.46179 5.51274 9.53452 5.51274C9.85452 5.51274 10.1745 5.38183 10.4036 5.15274C10.68 4.87637 10.8109 4.47637 10.76 4.08365C10.6945 3.60001 10.3127 3.19637 9.86179 3.0691C9.86906 2.90183 9.8727 2.73819 9.8727 2.57092H12.7018C12.7018 2.73456 12.6982 2.89456 12.6909 3.05819C12.1745 3.1891 11.7127 3.7491 11.7018 4.29456C11.6909 4.86183 12.1163 5.38546 12.6727 5.49092C12.7418 5.50546 12.8145 5.5091 12.8872 5.5091C13.2072 5.5091 13.5272 5.37819 13.7563 5.1491C14.0327 4.87274 14.1636 4.47274 14.1127 4.08001C14.0472 3.59637 13.6654 3.19274 13.2145 3.06546C13.2218 2.89819 13.2254 2.73456 13.2254 2.56728H16.0545C16.0545 2.73092 16.0509 2.89092 16.0436 3.05456C15.5272 3.18546 15.0654 3.74546 15.0545 4.29092C15.0436 4.85819 15.4691 5.38183 16.0254 5.48728C16.0945 5.50183 16.1672 5.50546 16.24 5.50546C16.56 5.50546 16.88 5.37456 17.1091 5.14546C17.3854 4.8691 17.5163 4.4691 17.4654 4.07637C17.4 3.59274 17.0182 3.1891 16.5672 3.06183C16.5745 2.89456 16.5782 2.73092 16.5782 2.56365H18.1891C18.2436 2.56365 18.28 2.59274 18.2982 2.61092C18.3163 2.6291 18.3418 2.6691 18.3382 2.72728C18.2691 3.82183 18.2436 4.90183 18.2545 5.97092H3.92724C3.87997 4.85092 3.86542 3.71274 3.89452 2.57819ZM6.11633 4.40365C6.12724 4.40365 6.14179 4.40728 6.1527 4.40728C6.27997 4.40728 6.3927 4.31274 6.41088 4.18183C6.43633 3.99637 6.45815 3.81092 6.4727 3.62546C6.67997 3.72728 6.85452 3.93456 6.88724 4.16365C6.91633 4.39274 6.83997 4.63274 6.67997 4.79274C6.51997 4.95274 6.27997 5.0291 6.06542 4.9891C5.76361 4.93092 5.51633 4.62546 5.52361 4.31637C5.52724 4.07637 5.72361 3.79274 5.94906 3.65456C5.93452 3.80728 5.91633 3.96001 5.89452 4.11274C5.8727 4.25092 5.97088 4.38546 6.11633 4.40365ZM9.46906 4.40365C9.47997 4.40365 9.49452 4.40728 9.50542 4.40728C9.6327 4.40728 9.74542 4.31274 9.76361 4.18183C9.78906 3.99637 9.81088 3.81092 9.82542 3.62546C10.0327 3.72728 10.2072 3.93456 10.24 4.16365C10.2691 4.39274 10.1927 4.63274 10.0327 4.79274C9.8727 4.95274 9.6327 5.0291 9.41815 4.9891C9.11633 4.93092 8.86906 4.62546 8.87633 4.31637C8.87997 4.07637 9.07633 3.79274 9.30179 3.65456C9.28724 3.80728 9.26906 3.96001 9.24724 4.11274C9.22542 4.25092 9.32724 4.38546 9.46906 4.40365ZM12.8218 4.40365C12.8327 4.40365 12.8472 4.40728 12.8582 4.40728C12.9854 4.40728 13.0982 4.31274 13.1163 4.18183C13.1418 3.99637 13.1636 3.81092 13.1782 3.62546C13.3854 3.72728 13.56 3.93456 13.5927 4.16365C13.6218 4.39274 13.5454 4.63274 13.3854 4.79274C13.2254 4.95274 12.9854 5.0291 12.7709 4.9891C12.4691 4.93092 12.2218 4.62546 12.2291 4.31637C12.2327 4.07637 12.4291 3.79274 12.6545 3.65456C12.64 3.80728 12.6218 3.96001 12.6 4.11274C12.5782 4.25092 12.68 4.38546 12.8218 4.40365ZM16.1782 4.40365C16.1891 4.40365 16.2036 4.40728 16.2145 4.40728C16.3418 4.40728 16.4545 4.31274 16.4727 4.18183C16.4982 3.99637 16.52 3.81092 16.5345 3.62546C16.7418 3.72728 16.9163 3.93456 16.9491 4.16365C16.9782 4.39274 16.9018 4.63274 16.7418 4.79274C16.5818 4.95274 16.3418 5.0291 16.1272 4.9891C15.8254 4.93092 15.5782 4.62546 15.5854 4.31637C15.5891 4.07637 15.7854 3.79274 16.0109 3.65456C15.9963 3.80728 15.9782 3.96001 15.9563 4.11274C15.9345 4.25092 16.0327 4.38546 16.1782 4.40365ZM15.0145 1.40001C15.2072 1.21456 15.5236 1.16365 15.72 1.28728C15.9018 1.40365 16.0072 1.65092 16.0436 2.05456H14.7491C14.76 1.7891 14.8582 1.55274 15.0145 1.40001ZM11.6618 1.40001C11.8545 1.21456 12.1709 1.16365 12.3672 1.28728C12.5491 1.40365 12.6545 1.65092 12.6909 2.05456H11.3963C11.4072 1.7891 11.5018 1.55274 11.6618 1.40001ZM8.30906 1.40001C8.50179 1.21456 8.81815 1.16365 9.01452 1.28728C9.19633 1.40365 9.30179 1.65092 9.33815 2.05456H8.04361C8.05452 1.7891 8.14906 1.55274 8.30906 1.40001ZM4.9527 1.40001C5.14542 1.21456 5.46179 1.16365 5.65815 1.28728C5.83997 1.40365 5.94543 1.65092 5.98179 2.05456H4.68724C4.69815 1.7891 4.79633 1.55274 4.9527 1.40001ZM3.55633 21.4218C3.50906 21.4327 3.46179 21.4109 3.44724 21.3709C1.50542 16.5273 0.683606 9.21092 1.49452 3.97819C1.49815 3.95274 1.51633 3.93092 1.53815 3.91637C1.71997 3.80728 1.90179 3.69819 2.07997 3.5891C1.50906 8.40001 2.86542 17.0946 4.6727 21.0182C4.34179 21.1746 3.97088 21.3091 3.55633 21.4218ZM6.80361 21.6364C6.53088 21.7818 6.25815 21.9273 5.98542 22.0691C5.94542 22.0909 5.90179 22.08 5.87633 22.0509C3.74906 19.3746 1.87633 8.36728 2.65815 3.22546C2.88724 3.08001 3.12724 2.93456 3.36724 2.7891C3.34179 3.94183 3.35633 5.09092 3.41452 6.24365V6.25092V6.2691C3.53088 8.65819 3.82542 11.0364 4.29088 13.3818C4.60361 14.96 5.08724 17.0146 6.0327 18.9091C6.46542 19.7782 6.97815 20.56 7.54906 21.2436C7.29815 21.3709 7.05088 21.5018 6.80361 21.6364Z" fill="black"/>
<path d="M7.66901 11.0729C8.14901 10.9784 8.53083 10.6402 8.66901 10.1966C8.79265 9.79293 8.70537 9.3093 8.43628 8.90202C8.15992 8.48384 7.73446 8.21839 7.27628 8.16748C6.86174 8.12021 6.47265 8.25475 6.17446 8.54566C5.96356 8.7493 5.84356 9.06566 5.83628 9.4293C5.82901 9.88748 5.99992 10.3529 6.28356 10.6438C6.56356 10.9311 6.98901 11.0984 7.39992 11.0984C7.48719 11.0984 7.5781 11.0875 7.66901 11.0729ZM6.35628 9.43657C6.35992 9.21475 6.42537 9.02566 6.53446 8.92021C6.69446 8.76384 6.90174 8.68384 7.11992 8.68384C7.15265 8.68384 7.18537 8.68384 7.2181 8.68748C7.52356 8.72021 7.81083 8.90566 7.99992 9.19293C8.18537 9.4693 8.24719 9.78566 8.17083 10.0402C8.09083 10.302 7.86174 10.4984 7.57446 10.5566C7.2581 10.6184 6.88356 10.502 6.66174 10.2766C6.46901 10.0838 6.34901 9.75293 6.35628 9.43657Z" fill="black"/>
<path d="M11.349 11.0984C11.4399 11.0984 11.5345 11.0911 11.6217 11.0729C12.1017 10.9784 12.4836 10.6402 12.6217 10.1966C12.7454 9.79293 12.6581 9.3093 12.389 8.90202C12.1127 8.48384 11.6872 8.21839 11.2254 8.16748C10.8108 8.12021 10.4217 8.25475 10.1236 8.54566C9.91265 8.7493 9.79265 9.06566 9.78538 9.4293C9.77811 9.88748 9.94902 10.3529 10.2327 10.6438C10.5127 10.9311 10.9381 11.0984 11.349 11.0984ZM10.4872 8.92021C10.6472 8.76384 10.8545 8.68384 11.0727 8.68384C11.1054 8.68384 11.1381 8.68384 11.1708 8.68748C11.4763 8.72021 11.7636 8.90566 11.9527 9.19293C12.1381 9.4693 12.1999 9.78566 12.1236 10.0402C12.0436 10.302 11.8145 10.4984 11.5272 10.5566C11.2108 10.6184 10.8363 10.502 10.6145 10.2766C10.429 10.0838 10.3127 9.75657 10.3163 9.43657C10.3127 9.21475 10.3781 9.02566 10.4872 8.92021Z" fill="black"/>
<path d="M15.3054 11.0984C15.3963 11.0984 15.4909 11.0911 15.5782 11.0729C16.0582 10.9784 16.44 10.6402 16.5782 10.1966C16.7018 9.79293 16.6145 9.3093 16.3454 8.90202C16.0691 8.48384 15.6436 8.21839 15.1818 8.16748C14.7709 8.12021 14.3782 8.25475 14.08 8.54566C13.8691 8.7493 13.7491 9.06566 13.7418 9.4293C13.7345 9.88748 13.9054 10.3529 14.1891 10.6438C14.4654 10.9311 14.8909 11.0984 15.3054 11.0984ZM14.44 8.92021C14.6 8.76384 14.8073 8.68384 15.0254 8.68384C15.0582 8.68384 15.0909 8.68384 15.1236 8.68748C15.4291 8.72021 15.7163 8.90566 15.9054 9.19293C16.0909 9.4693 16.1527 9.78566 16.0763 10.0402C15.9963 10.302 15.7673 10.4984 15.48 10.5566C15.1636 10.6184 14.7891 10.502 14.5673 10.2729C14.3818 10.0802 14.2618 9.75293 14.2691 9.43293C14.2654 9.21475 14.3309 9.02566 14.44 8.92021Z" fill="black"/>
<path d="M8.48356 15.0617C8.96356 14.9672 9.34538 14.629 9.48356 14.1853C9.6072 13.7817 9.51992 13.2981 9.25083 12.8908C8.97447 12.4726 8.54901 12.2072 8.0872 12.1562C7.67265 12.109 7.28356 12.2435 6.98538 12.5344C6.77447 12.7381 6.65447 13.0544 6.6472 13.4181C6.63992 13.8762 6.81083 14.3417 7.09447 14.6326C7.37447 14.9199 7.79992 15.0908 8.21083 15.0908C8.30538 15.0872 8.39629 15.0799 8.48356 15.0617ZM7.17083 13.429C7.17447 13.2072 7.23992 13.0181 7.34901 12.9126C7.50901 12.7562 7.71629 12.6762 7.93447 12.6762C7.9672 12.6762 7.99992 12.6762 8.03265 12.6799C8.3381 12.7126 8.62538 12.8981 8.81447 13.1853C8.99992 13.4617 9.06174 13.7781 8.98538 14.0326C8.90538 14.2944 8.67629 14.4908 8.38901 14.549C8.07265 14.6108 7.6981 14.4944 7.47629 14.2653C7.28356 14.0762 7.1672 13.7453 7.17083 13.429Z" fill="black"/>
<path d="M10.9381 12.5347C10.7272 12.7383 10.6072 13.0547 10.6 13.4183C10.5927 13.8765 10.7636 14.342 11.0472 14.6292C11.3272 14.9165 11.7527 15.0874 12.1636 15.0874C12.2545 15.0874 12.3454 15.0801 12.4363 15.062C12.9163 14.9674 13.2981 14.6292 13.4363 14.1856C13.56 13.782 13.4727 13.2983 13.2036 12.891C12.9272 12.4729 12.5018 12.2074 12.0436 12.1565C11.629 12.1129 11.2363 12.2474 10.9381 12.5347ZM12.7672 13.1856C12.9527 13.462 13.0145 13.7783 12.9381 14.0329C12.8581 14.2947 12.629 14.491 12.3418 14.5492C12.0254 14.611 11.6509 14.4947 11.429 14.2656C11.2436 14.0729 11.1272 13.7456 11.1309 13.4256C11.1345 13.2038 11.2 13.0147 11.309 12.9092C11.469 12.7529 11.6763 12.6729 11.8945 12.6729C11.9272 12.6729 11.96 12.6729 11.9927 12.6765C12.2909 12.7129 12.5745 12.8983 12.7672 13.1856Z" fill="black"/>
<path d="M14.8909 12.5347C14.68 12.7383 14.56 13.0547 14.5527 13.4183C14.5454 13.8765 14.7163 14.342 15 14.6292C15.28 14.9165 15.7054 15.0874 16.1163 15.0874C16.2073 15.0874 16.2982 15.0801 16.3891 15.062C16.8691 14.9674 17.2509 14.6292 17.3891 14.1856C17.5127 13.782 17.4254 13.2983 17.1563 12.891C16.88 12.4729 16.4545 12.2074 15.9927 12.1565C15.5818 12.1129 15.1891 12.2474 14.8909 12.5347ZM16.72 13.1856C16.9054 13.462 16.9673 13.7783 16.8909 14.0329C16.8109 14.2947 16.5818 14.491 16.2945 14.5492C15.9782 14.611 15.6036 14.4947 15.3818 14.2656C15.1963 14.0729 15.08 13.7456 15.0836 13.4256C15.0873 13.2038 15.1527 13.0147 15.2618 12.9092C15.4218 12.7529 15.6291 12.6729 15.8473 12.6729C15.88 12.6729 15.9127 12.6729 15.9454 12.6765C16.2436 12.7129 16.5309 12.8983 16.72 13.1856Z" fill="black"/>
<path d="M9.56728 19.0798C9.65819 19.0798 9.75273 19.0726 9.84 19.0544C10.32 18.9598 10.7018 18.6217 10.84 18.178C10.9636 17.7744 10.8764 17.2907 10.6073 16.8835C10.3309 16.4653 9.90546 16.1998 9.44364 16.1489C9.0291 16.1017 8.64 16.2362 8.34182 16.5271C8.13091 16.7307 8.01091 17.0471 8.00364 17.4107C7.99637 17.8689 8.16728 18.3344 8.45091 18.6217C8.73091 18.9126 9.15273 19.0798 9.56728 19.0798ZM8.70182 16.9017C8.86182 16.7453 9.0691 16.6653 9.28728 16.6653C9.32001 16.6653 9.35273 16.6653 9.38546 16.6689C9.69091 16.7017 9.97819 16.8871 10.1673 17.1744C10.3527 17.4507 10.4146 17.7671 10.3382 18.0217C10.2582 18.2835 10.0291 18.4798 9.74182 18.538C9.42546 18.5998 9.05091 18.4835 8.8291 18.2544C8.64364 18.0617 8.52364 17.7344 8.53091 17.4144C8.53091 17.1962 8.59273 17.0071 8.70182 16.9017Z" fill="black"/>
<path d="M13.3963 16.1493C12.9854 16.1057 12.5926 16.2366 12.2945 16.5275C12.0836 16.7311 11.9636 17.0475 11.9563 17.4111C11.949 17.8693 12.1199 18.3348 12.4036 18.6221C12.6836 18.9093 13.109 19.0802 13.5199 19.0802C13.6108 19.0802 13.7054 19.073 13.7926 19.0548C14.2726 18.9602 14.6545 18.6221 14.7926 18.1784C14.9163 17.7748 14.829 17.2911 14.5599 16.8839C14.2799 16.4693 13.8581 16.2002 13.3963 16.1493ZM14.2908 18.0257C14.2108 18.2875 13.9817 18.4839 13.6945 18.5421C13.3781 18.6039 13.0036 18.4875 12.7817 18.2584C12.5963 18.0657 12.4799 17.7384 12.4836 17.4184C12.4872 17.1966 12.5526 17.0075 12.6617 16.9021C12.8217 16.7457 13.029 16.6657 13.2472 16.6657C13.2799 16.6657 13.3126 16.6657 13.3454 16.6693C13.6508 16.7021 13.9381 16.8875 14.1272 17.1748C14.3054 17.4511 14.3672 17.7675 14.2908 18.0257Z" fill="black"/>
<path d="M16.2472 16.5275C16.0363 16.7311 15.9163 17.0475 15.909 17.4111C15.9018 17.8693 16.0727 18.3348 16.3563 18.6257C16.6363 18.913 17.0618 19.0839 17.4727 19.0839C17.5636 19.0839 17.6581 19.0766 17.7454 19.0584C18.2254 18.9639 18.6072 18.6257 18.7454 18.182C18.869 17.7784 18.7818 17.2948 18.5127 16.8875C18.2363 16.4693 17.8109 16.2039 17.349 16.153C16.9381 16.102 16.5454 16.2402 16.2472 16.5275ZM18.0763 17.1748C18.2618 17.4511 18.3236 17.7675 18.2472 18.022C18.1672 18.2839 17.9381 18.4802 17.6509 18.5384C17.3345 18.6002 16.9599 18.4839 16.7381 18.2548C16.5527 18.062 16.4327 17.7348 16.4399 17.4148C16.4436 17.193 16.509 17.0039 16.6181 16.8984C16.7781 16.742 16.9854 16.662 17.2036 16.662C17.2363 16.662 17.269 16.662 17.3018 16.6657C17.5999 16.7057 17.8836 16.8875 18.0763 17.1748Z" fill="black"/>
<path d="M4.6181 17.1127C4.50173 17.1382 4.42537 17.2546 4.45082 17.3709C4.70173 18.5491 5.21082 19.6837 5.91628 20.6582C5.95991 20.7164 6.02537 20.7491 6.09446 20.7491C6.1381 20.7491 6.18537 20.7346 6.22173 20.7091C6.31991 20.64 6.34173 20.5018 6.26901 20.4037C5.59628 19.48 5.11628 18.4 4.87628 17.28C4.85446 17.1637 4.7381 17.0909 4.6181 17.1127Z" fill="black"/>
<path d="M4.61092 16.3345V16.1054C4.61092 15.9854 4.51274 15.8872 4.39274 15.8872C4.27274 15.8872 4.17456 15.9854 4.17456 16.1054V16.3345C4.17456 16.4545 4.27274 16.5527 4.39274 16.5527C4.51274 16.5527 4.61092 16.4545 4.61092 16.3345Z" fill="black"/>
</g>
<defs>
<clipPath id="clip0_2061_7696">
<rect width="24" height="24" fill="white"/>
</clipPath>
</defs>
</svg>
