<svg width="49" height="48" viewBox="0 0 49 48" fill="none" xmlns="http://www.w3.org/2000/svg">
<path d="M13.2687 22.5001C18.2289 22.5001 22.25 18.4791 22.25 13.5188C22.25 8.55864 18.2289 4.5376 13.2687 4.5376C8.30852 4.5376 4.28748 8.55864 4.28748 13.5188C4.28748 18.4791 8.30852 22.5001 13.2687 22.5001Z" fill="#0DCB42"/>
<path d="M13.2687 23.25C11.3388 23.2537 9.45113 22.6845 7.84488 21.6146C6.23863 20.5447 4.98605 19.0222 4.24577 17.2398C3.50549 15.4575 3.31083 13.4955 3.68644 11.6025C4.06204 9.70941 4.99102 7.9704 6.35571 6.60571C7.7204 5.24102 9.45941 4.31204 11.3525 3.93644C13.2455 3.56083 15.2075 3.75549 16.9898 4.49577C18.7722 5.23605 20.2947 6.48863 21.3646 8.09488C22.4345 9.70113 23.0037 11.5888 23 13.5187C22.995 16.0981 21.9682 18.5704 20.1443 20.3943C18.3204 22.2182 15.8481 23.245 13.2687 23.25ZM13.2687 5.28749C11.6407 5.28749 10.0493 5.77024 8.6957 6.6747C7.34208 7.57916 6.28706 8.86471 5.66405 10.3688C5.04105 11.8728 4.87804 13.5279 5.19565 15.1246C5.51325 16.7213 6.2972 18.1879 7.44836 19.3391C8.59952 20.4903 10.0662 21.2742 11.6629 21.5918C13.2596 21.9094 14.9146 21.7464 16.4187 21.1234C17.9228 20.5004 19.2083 19.4454 20.1128 18.0918C21.0172 16.7382 21.5 15.1467 21.5 13.5187C21.495 11.3372 20.6262 9.24642 19.0836 7.70383C17.5411 6.16125 15.4503 5.29244 13.2687 5.28749Z" fill="#404040"/>
<path d="M35.7687 22.5001C40.7289 22.5001 44.75 18.4791 44.75 13.5188C44.75 8.55864 40.7289 4.5376 35.7687 4.5376C30.8085 4.5376 26.7875 8.55864 26.7875 13.5188C26.7875 18.4791 30.8085 22.5001 35.7687 22.5001Z" fill="#E61F19"/>
<path d="M35.7687 23.25C33.8395 23.25 31.9537 22.6777 30.3499 21.6055C28.7461 20.5333 27.4965 19.0095 26.7591 17.2268C26.0217 15.4442 25.8297 13.4828 26.2074 11.591C26.5851 9.69914 27.5156 7.96189 28.881 6.59908C30.2465 5.23627 31.9855 4.30915 33.8781 3.93507C35.7706 3.56098 37.7316 3.75674 39.5128 4.49757C41.2941 5.2384 42.8155 6.491 43.8846 8.09685C44.9537 9.70269 45.5224 11.5896 45.5187 13.5188C45.5137 16.1014 44.4843 18.5765 42.6563 20.4009C40.8284 22.2254 38.3513 23.25 35.7687 23.25ZM35.7687 5.2875C34.1415 5.29121 32.5519 5.77711 31.2007 6.68383C29.8496 7.59054 28.7975 8.87737 28.1774 10.3818C27.5572 11.8861 27.3969 13.5406 27.7166 15.1361C28.0363 16.7315 28.8218 18.1964 29.9737 19.3457C31.1256 20.495 32.5923 21.2771 34.1885 21.5932C35.7847 21.9093 37.4387 21.7452 38.9417 21.1216C40.4447 20.4981 41.7291 19.4431 42.6327 18.0898C43.5364 16.7366 44.0187 15.1459 44.0187 13.5188C44.0137 11.334 43.1423 9.24036 41.5957 7.69724C40.049 6.15412 37.9535 5.2875 35.7687 5.2875Z" fill="#404040"/>
<path d="M11.6149 16.7587L8.37494 13.5C8.23421 13.3592 8.15515 13.1684 8.15515 12.9693C8.15515 12.7703 8.23421 12.5795 8.37494 12.4387C8.51567 12.298 8.70655 12.2189 8.90557 12.2189C9.10459 12.2189 9.29546 12.298 9.43619 12.4387L12.1512 15.1537L17.1087 10.2037C17.252 10.0881 17.4329 10.0294 17.6168 10.0385C17.8007 10.0477 17.9748 10.1242 18.106 10.2535C18.2371 10.3828 18.3161 10.5558 18.3279 10.7395C18.3397 10.9233 18.2835 11.105 18.1699 11.25L12.6762 16.7587C12.6065 16.8285 12.5238 16.8838 12.4328 16.9215C12.3417 16.9593 12.2441 16.9787 12.1456 16.9787C12.047 16.9787 11.9494 16.9593 11.8584 16.9215C11.7673 16.8838 11.6846 16.8285 11.6149 16.7587Z" fill="white"/>
<path d="M36.8112 13.5L39.9912 10.3162C40.0698 10.249 40.1335 10.1663 40.1785 10.0732C40.2236 9.98017 40.2488 9.87882 40.2528 9.77553C40.2568 9.67224 40.2394 9.56924 40.2017 9.473C40.164 9.37675 40.1068 9.28934 40.0337 9.21625C39.9606 9.14316 39.8732 9.08597 39.777 9.04826C39.6807 9.01056 39.5777 8.99315 39.4745 8.99714C39.3712 9.00113 39.2698 9.02643 39.1768 9.07145C39.0837 9.11646 39.001 9.18023 38.9337 9.25874L35.75 12.4387L32.5662 9.25874C32.499 9.18023 32.4163 9.11646 32.3232 9.07145C32.2302 9.02643 32.1288 9.00113 32.0255 8.99714C31.9222 8.99315 31.8192 9.01056 31.723 9.04826C31.6268 9.08597 31.5393 9.14316 31.4663 9.21625C31.3932 9.28934 31.336 9.37675 31.2983 9.473C31.2606 9.56924 31.2432 9.67224 31.2471 9.77553C31.2511 9.87882 31.2764 9.98017 31.3214 10.0732C31.3665 10.1663 31.4302 10.249 31.5087 10.3162L34.6887 13.5L31.5087 16.6837C31.4302 16.751 31.3665 16.8337 31.3214 16.9268C31.2764 17.0198 31.2511 17.1212 31.2471 17.2244C31.2432 17.3277 31.2606 17.4307 31.2983 17.527C31.336 17.6232 31.3932 17.7106 31.4663 17.7837C31.5393 17.8568 31.6268 17.914 31.723 17.9517C31.8192 17.9894 31.9222 18.0068 32.0255 18.0028C32.1288 17.9988 32.2302 17.9736 32.3232 17.9285C32.4163 17.8835 32.499 17.8198 32.5662 17.7412L35.75 14.5612L38.9337 17.7412C39.001 17.8198 39.0837 17.8835 39.1768 17.9285C39.2698 17.9736 39.3712 17.9988 39.4745 18.0028C39.5777 18.0068 39.6807 17.9894 39.777 17.9517C39.8732 17.914 39.9606 17.8568 40.0337 17.7837C40.1068 17.7106 40.164 17.6232 40.2017 17.527C40.2394 17.4307 40.2568 17.3277 40.2528 17.2244C40.2488 17.1212 40.2236 17.0198 40.1785 16.9268C40.1335 16.8337 40.0698 16.751 39.9912 16.6837L36.8112 13.5Z" fill="white"/>
<path d="M35.1275 40.3125C35.06 39.8288 36.0538 36.8363 35.9488 33.7088C35.8438 30.5813 34.2238 27.8625 34.01 27.4013C33.7963 26.94 32.9225 26.4263 31.7938 26.3438C31.5749 26.3272 31.3548 26.3348 31.1375 26.3663C30.6688 25.6725 30.26 25.4363 27.9238 25.4775C27.1025 24.7913 25.7863 24.5025 24.2825 25.17C23.5138 22.86 22.1188 18.72 21.5863 17.5425C20.8363 15.8813 20.2363 14.0138 18.3163 14.6213C16.775 15.1088 17.0863 17.04 17.4125 18.5963C18.0613 21.6863 18.9125 26.4 19.1413 28.2375C19.3738 30.1688 19.4788 30.6188 18.7363 31.2375C18.425 31.4888 17.4238 31.1738 15.3613 30.2888C13.715 29.5875 11.6113 29.0175 10.5875 30.5738C9.66129 31.995 10.3363 33.465 12.2563 34.3238C16.25 36.0975 19.1713 40.4513 20.1725 41.8988C21.1738 43.3463 22.5238 44.2988 24.2975 44.295C24.7288 44.295 25.1713 45.4538 25.1713 45.4538C25.1713 45.4538 26.6713 43.7588 29.9225 42.78C33.6425 41.655 35.6788 42.4425 35.6788 42.4425C35.6788 42.4425 35.1988 40.7925 35.1275 40.3125Z" fill="#FCE7CC"/>
<path d="M36.7213 33.5927C36.6238 30.7127 35.4688 28.624 34.7226 27.0002C34.2088 25.8752 32.2213 25.3165 31.5726 25.5602C30.7851 24.6227 29.3901 24.4727 28.3476 24.7315C27.3426 23.9552 26.0975 23.8277 24.815 24.1315C24.0238 21.7577 22.8351 18.259 22.3401 17.164C21.3988 15.0902 20.5851 13.0915 18.1738 13.8752C15.8976 14.5915 16.4788 17.3702 16.7601 18.7052C18.1251 25.1627 18.5001 28.5265 18.5001 28.564C18.6801 30.064 18.6763 30.2402 18.4251 30.4652C18.0801 30.439 17.1725 30.1127 15.725 29.494C12.9725 28.3165 11.0601 28.5002 10.0476 30.0527C8.9938 31.6652 9.4363 33.7277 12.0276 34.8902C15.6988 36.5327 18.4738 40.5527 19.5276 42.064C19.6738 42.2065 21.0913 44.7902 24.1251 44.914C24.3262 45.271 24.4896 45.648 24.6126 46.039C24.6516 46.159 24.7204 46.2673 24.8124 46.3537C24.9045 46.4401 25.0169 46.5019 25.1391 46.5333C25.2614 46.5647 25.3897 46.5648 25.512 46.5334C25.6343 46.5021 25.7467 46.4403 25.8388 46.354C27.3091 45.091 29.0233 44.1439 30.875 43.5715C33.8413 42.679 34.8763 42.7502 35.0601 42.7765C35.1754 42.8267 35.3021 42.8451 35.427 42.8298C35.5519 42.8146 35.6704 42.7662 35.7703 42.6897C35.8701 42.6131 35.9477 42.5113 35.9949 42.3947C36.0421 42.278 36.0573 42.1509 36.0388 42.0265C36.0388 41.8877 35.9788 40.6577 35.9113 40.1515C35.9338 39.544 36.8188 36.6077 36.7213 33.5927ZM34.4038 40.3127C34.4338 40.5077 34.4601 40.8977 34.4826 41.2765C33.1033 41.4091 31.7434 41.6972 30.4288 42.1352C28.7006 42.6668 27.0759 43.4899 25.625 44.569C25.0701 43.444 24.5675 43.4215 24.35 43.4215C21.9875 43.4215 20.9001 41.359 20.7538 41.2127C19.6288 39.604 16.6926 35.3365 12.6426 33.5215C11.4051 32.9665 10.5426 32.0215 11.3001 30.874C11.5101 30.559 12.1401 29.5915 15.1401 30.874C17.6826 31.9615 18.6388 32.2352 19.2651 31.7102C20.2851 30.8815 20.1876 30.0977 19.9813 28.384C19.9813 28.3465 19.5801 24.8965 18.2113 18.379C17.7913 16.3765 17.9038 15.5065 18.6088 15.2852C19.7788 14.9102 20.1088 15.874 20.9563 17.794C21.68 19.3952 24.1101 26.839 24.1363 26.914C24.2034 27.0961 24.3384 27.2451 24.513 27.3297C24.6876 27.4143 24.8883 27.428 25.0728 27.3678C25.2572 27.3076 25.4112 27.1782 25.5023 27.0069C25.5934 26.8355 25.6146 26.6356 25.5613 26.449C25.5426 26.389 25.4375 26.074 25.2725 25.5752C26.7125 25.2302 27.8338 25.9502 28.0813 26.8765C28.1031 26.9734 28.1439 27.065 28.2014 27.1461C28.2589 27.2271 28.3319 27.2959 28.4162 27.3485C28.5005 27.4011 28.5944 27.4363 28.6925 27.4523C28.7906 27.4683 28.8908 27.4646 28.9875 27.4415C29.0841 27.4184 29.1752 27.3763 29.2554 27.3177C29.3356 27.2591 29.4034 27.1852 29.4548 27.1002C29.5063 27.0151 29.5403 26.9208 29.5549 26.8225C29.5695 26.7242 29.5645 26.624 29.5401 26.5277C29.5127 26.4191 29.4776 26.3126 29.4351 26.209C30.1251 26.209 30.4438 26.2727 30.8975 27.3715C30.9348 27.5674 31.0484 27.7405 31.2134 27.8526C31.295 27.9082 31.3868 27.9471 31.4835 27.9672C31.5802 27.9872 31.6799 27.9881 31.7769 27.9696C31.8739 27.9511 31.9664 27.9137 32.0489 27.8595C32.1315 27.8053 32.2026 27.7354 32.2581 27.6538C32.3137 27.5721 32.3526 27.4803 32.3726 27.3836C32.3927 27.2869 32.3935 27.1872 32.375 27.0902C32.758 27.1682 33.1084 27.3604 33.3801 27.6415C34.0701 29.1415 35.1501 30.9677 35.2551 33.6415C35.3263 36.8327 34.2951 39.5402 34.4038 40.3127Z" fill="#404040"/>
</svg>
