<svg width="205" height="136" viewBox="0 0 205 136" fill="none" xmlns="http://www.w3.org/2000/svg">
<g clip-path="url(#clip0_2148_37480)">
<path d="M73.6188 78.1751C80.6236 65.8529 93.9854 56.3914 108.13 57.3029C97.6965 68.6488 91.6125 83.3196 90.9545 98.7194C90.7222 104.659 91.0824 111.29 87.1384 115.738C84.6845 118.506 80.9335 119.846 77.2454 120.127C73.5572 120.408 69.8699 119.742 66.231 119.078L65.3483 119.349C65.0122 105.179 66.614 90.4974 73.6188 78.1751Z" fill="#F0F0F0"/>
<path d="M108.151 57.6003C97.6914 62.6356 88.7725 71.0452 83.2975 81.3013C82.1138 83.5186 81.106 85.871 80.6664 88.3581C80.2266 90.8464 80.5338 93.215 81.3837 95.5784C82.1607 97.7389 83.2056 99.859 83.4439 102.171C83.695 104.608 82.7984 106.886 81.1845 108.694C79.2098 110.907 76.558 112.278 73.9181 113.528C70.9869 114.917 67.9204 116.313 65.8444 118.904C65.5928 119.218 65.1203 118.81 65.3715 118.496C68.9835 113.987 75.1663 113.14 79.4537 109.508C81.4543 107.813 82.9563 105.505 82.8615 102.8C82.7786 100.436 81.7029 98.2486 80.8973 96.0677C80.0514 93.7778 79.6296 91.4754 79.9329 89.034C80.2433 86.5366 81.1612 84.1399 82.283 81.902C84.8129 76.8551 88.2753 72.2216 92.2415 68.2162C96.7999 63.6122 102.112 59.8218 107.949 57.0092C108.31 56.8352 108.51 57.4275 108.151 57.6003Z" fill="white"/>
<path d="M84.901 77.8741C83.2975 76.7016 82.1629 74.9973 81.7 73.0655C81.2371 71.1338 81.4759 69.1004 82.3738 67.3284C82.5567 66.9705 83.1215 67.238 82.9383 67.5963C82.0992 69.2448 81.8769 71.139 82.3116 72.9369C82.7464 74.7349 83.8095 76.3182 85.3092 77.4012C85.6348 77.6369 85.2247 78.1084 84.901 77.8741Z" fill="white"/>
<path d="M80.8456 94.5342C84.8636 93.947 88.5128 91.8671 91.0653 88.709C91.318 88.3959 91.7906 88.8045 91.5382 89.1172C88.8758 92.3986 85.074 94.5554 80.8914 95.1572C80.4927 95.2143 80.4491 94.5909 80.8456 94.5342Z" fill="white"/>
<path d="M97.1083 64.3819C97.6342 64.9649 98.2967 65.408 99.0362 65.6717C99.7757 65.9353 100.569 66.0112 101.345 65.8924C101.743 65.8303 101.786 66.4537 101.391 66.5154C100.533 66.6427 99.6568 66.5578 98.8391 66.2684C98.0214 65.9789 97.287 65.4936 96.7001 64.8548C96.6398 64.7992 96.6028 64.7228 96.5968 64.6409C96.5908 64.5591 96.6162 64.478 96.6678 64.4143C96.7221 64.3519 96.7989 64.3135 96.8814 64.3075C96.9639 64.3014 97.0454 64.3282 97.1083 64.3819Z" fill="white"/>
<path d="M136.273 96.1763C136.026 96.2221 135.779 96.268 135.529 96.3186C132.208 96.9522 128.944 97.8545 125.769 99.0167C125.522 99.1027 125.273 99.1935 125.029 99.2864C117.409 102.168 110.39 106.439 104.33 111.883C101.92 114.051 99.6788 116.4 97.6255 118.908C94.7899 122.373 91.9911 126.355 88.2858 128.614C87.9018 128.854 87.5034 129.07 87.0928 129.26L65.7473 120.406C65.7088 120.362 65.6682 120.322 65.6295 120.278L64.7611 119.963C64.858 119.826 64.9614 119.687 65.0582 119.55C65.1141 119.47 65.1747 119.393 65.2306 119.313C65.2693 119.261 65.3083 119.208 65.3403 119.159C65.3531 119.141 65.3662 119.124 65.377 119.111C65.409 119.062 65.4439 119.019 65.4739 118.975C66.0497 118.192 66.632 117.411 67.2209 116.634C67.2229 116.629 67.2229 116.629 67.2297 116.626C71.7315 110.714 76.7665 105.125 82.4897 100.478C82.6619 100.338 82.8359 100.194 83.0179 100.058C85.6093 97.9775 88.3664 96.1125 91.2616 94.4814C92.8498 93.5934 94.4819 92.7863 96.1517 92.0633C100.47 90.2035 105.054 89.0344 109.735 88.599C119.068 87.7324 128.573 89.8601 135.731 95.723C135.914 95.8731 136.092 96.0213 136.273 96.1763Z" fill="#F0F0F0"/>
<path d="M136.113 96.4272C124.73 94.1501 112.546 95.4949 101.999 100.387C99.7194 101.445 97.4985 102.717 95.65 104.438C93.8007 106.16 92.6199 108.236 91.8756 110.635C91.1952 112.828 90.7531 115.149 89.5515 117.139C88.2849 119.236 86.1972 120.515 83.8199 120.987C80.9112 121.565 77.9684 121.063 75.1076 120.472C71.9313 119.816 68.6424 119.084 65.4245 119.903C65.0346 120.003 64.9034 119.392 65.2927 119.293C70.8913 117.867 76.3382 120.913 81.9483 120.594C84.5661 120.446 87.1549 119.507 88.7074 117.291C90.065 115.353 90.5229 112.959 91.1927 110.733C91.896 108.395 92.9454 106.303 94.6574 104.536C96.4088 102.729 98.5847 101.368 100.828 100.256C105.886 97.7499 111.441 96.1348 117.019 95.3247C123.43 94.3931 129.954 94.5652 136.308 95.8334C136.701 95.9121 136.504 96.5053 136.113 96.4272Z" fill="white"/>
<path d="M105.344 98.6162C104.769 96.7146 104.889 94.6708 105.683 92.8497C106.476 91.0286 107.891 89.5488 109.675 88.6746C110.036 88.499 110.326 89.0525 109.964 89.2284C108.302 90.0394 106.984 91.4179 106.249 93.1152C105.513 94.8126 105.409 96.7169 105.954 98.4844C106.072 98.8687 105.461 98.9983 105.344 98.6162Z" fill="white"/>
<path d="M92.0738 109.478C95.6355 111.428 99.8014 111.964 103.741 110.98C104.131 110.882 104.262 111.492 103.873 111.59C99.7713 112.607 95.4371 112.04 91.7353 110.003C91.3826 109.808 91.7231 109.284 92.0738 109.478Z" fill="white"/>
<path d="M123.214 95.1934C123.283 95.9755 123.545 96.7282 123.976 97.3839C124.408 98.0397 124.996 98.578 125.687 98.9504C126.042 99.1403 125.701 99.664 125.349 99.4754C124.587 99.0604 123.938 98.4651 123.46 97.7417C122.981 97.0182 122.687 96.1886 122.603 95.3252C122.588 95.2445 122.605 95.1612 122.649 95.0923C122.694 95.0233 122.763 94.9739 122.842 94.954C122.923 94.937 123.008 94.9525 123.077 94.9974C123.147 95.0422 123.196 95.1126 123.214 95.1934Z" fill="white"/>
<path d="M95.6117 110.783C92.6223 96.3287 88.8856 91.5097 88.8856 91.5097L87.4581 90.4026L85.7413 89.0692L85.7496 88.8977L85.3425 88.7593L85.2468 88.685L85.0901 88.5647L85.0649 88.5918L85.0116 88.6469L77.2433 86.0063L67.3878 82.6586L62.8241 76.7267C62.0809 75.7606 61.124 74.9798 60.0284 74.4454C58.9329 73.9111 57.7285 73.6377 56.5096 73.6467L41.9346 73.7545C39.9639 73.7691 38.0699 74.5204 36.625 75.8606L27.0451 84.7467L12.1177 91.8759L12.0925 91.8507L11.9358 91.9627L9.62937 93.0655L9.72454 93.5609L8.29701 94.591C8.29701 94.591 4.56029 99.0751 1.57089 112.525C0.810421 115.947 0.436091 123.288 0.300978 132.334C0.294191 132.791 0.378445 133.246 0.548839 133.671C0.719232 134.095 0.972367 134.482 1.29352 134.808C1.61468 135.134 1.99745 135.393 2.41958 135.57C2.84172 135.747 3.29478 135.838 3.75244 135.838H83.4824L93.4337 135.838C93.8911 135.838 94.3438 135.747 94.7657 135.57C95.1875 135.393 95.5701 135.135 95.8912 134.809C96.2123 134.483 96.4655 134.097 96.6362 133.673C96.8068 133.249 96.8915 132.795 96.8852 132.337C96.7533 122.494 96.3791 114.494 95.6117 110.783Z" fill="black"/>
<path d="M105.841 12.6055C102.74 12.6055 99.7646 13.8377 97.5712 16.0311C95.3778 18.2246 94.1455 21.1995 94.1455 24.3014C94.1455 27.4034 95.3778 30.3783 97.5712 32.5717C99.7646 34.7652 102.74 35.9974 105.841 35.9974H193.004C196.106 35.9974 199.081 34.7652 201.275 32.5717C203.468 30.3783 204.7 27.4034 204.7 24.3014C204.7 21.1995 203.468 18.2246 201.275 16.0311C199.081 13.8377 196.106 12.6055 193.004 12.6055H105.841Z" fill="#E5E5E5"/>
<path d="M105.841 14.9727C103.367 14.9727 100.994 15.9555 99.2446 17.705C97.4951 19.4545 96.5122 21.8274 96.5122 24.3016C96.5122 26.7758 97.4951 29.1486 99.2446 30.8981C100.994 32.6476 103.367 33.6305 105.841 33.6305H193.004C195.478 33.6305 197.851 32.6476 199.6 30.8981C201.35 29.1486 202.333 26.7758 202.333 24.3016C202.333 21.8274 201.35 19.4545 199.6 17.705C197.851 15.9555 195.478 14.9727 193.004 14.9727H105.841Z" fill="white"/>
<path d="M51.5112 68.1718C62.0569 68.1718 70.6059 59.6228 70.6059 49.0771C70.6059 38.5314 62.0569 29.9824 51.5112 29.9824C40.9655 29.9824 32.4166 38.5314 32.4166 49.0771C32.4166 59.6228 40.9655 68.1718 51.5112 68.1718Z" fill="#FFD2D2"/>
<path d="M46.6264 67.236C46.5448 67.0564 46.4634 66.8762 46.3823 66.6953C46.4136 66.6963 46.4445 66.7008 46.4758 66.7016L46.6264 67.236Z" fill="black"/>
<path d="M31.8851 30.8501C32.8508 30.0797 33.9796 29.3709 35.2143 29.4107C36.449 29.4505 37.7012 30.5657 37.4454 31.7743C39.7133 27.7587 43.3233 24.6702 47.6415 23.051C51.9597 21.4317 56.7103 21.3852 61.0594 22.9197C64.1283 24.0024 67.1378 26.1684 67.8427 29.3454C68.0237 30.1609 68.0625 31.0552 68.5717 31.7174C69.2138 32.5524 70.4422 32.7413 71.4536 32.4475C71.4638 32.4446 71.4739 32.4416 71.4839 32.4386C71.6548 32.3803 71.8393 32.3745 72.0134 32.4221C72.1876 32.4698 72.3435 32.5685 72.4609 32.7057C72.5783 32.8429 72.6519 33.0121 72.672 33.1916C72.6922 33.371 72.6581 33.5524 72.5741 33.7122L71.7057 35.3316C72.8003 35.5756 73.9377 35.5514 75.0209 35.2611C75.2008 35.2139 75.391 35.2235 75.5652 35.2887C75.7395 35.3538 75.8893 35.4713 75.9941 35.6249C76.099 35.7786 76.1537 35.9609 76.1509 36.1469C76.148 36.333 76.0877 36.5135 75.9781 36.6639C73.1149 40.5949 68.3314 43.1333 63.45 43.1035C59.9806 43.0823 56.4755 41.8866 53.099 42.6845C51.7927 42.9931 50.5721 43.5903 49.5268 44.4322C48.4814 45.2741 47.6378 46.3393 47.0579 47.5498C46.4779 48.7602 46.1763 50.0852 46.1752 51.4274C46.1741 52.7696 46.4735 54.095 47.0515 55.3064C46.0142 54.1719 44.009 54.4405 42.9479 55.5529C41.8869 56.6653 41.6122 58.3256 41.7192 59.8592C41.8826 62.2048 42.8016 64.415 43.7704 66.5661C35.6478 66.3103 27.9651 60.6124 25.3791 52.9058C22.7822 45.167 25.5038 35.9407 31.8851 30.8501Z" fill="black"/>
<path opacity="0.2" d="M19.0945 106.419L24.4501 135.558L27.6636 135.838L19.0945 106.419Z" fill="black"/>
<path opacity="0.2" d="M78.0877 104.222L72.7321 135.537L69.5186 135.838L78.0877 104.222Z" fill="black"/>
<path d="M36.4535 21.0435C35.4266 21.4722 34.3551 21.0023 33.9058 19.9262C33.4495 18.8336 33.8757 17.7244 34.919 17.2888C35.9624 16.8531 37.0148 17.3241 37.4784 18.4344C37.935 19.5279 37.5136 20.6008 36.4535 21.0435ZM34.4865 15.1382L33.67 15.4791C33.466 15.5633 33.2379 15.5678 33.0307 15.4918C32.8236 15.4159 32.6525 15.2649 32.5513 15.0688L32.5109 14.9898C31.6324 13.4054 31.5318 11.4799 32.2135 9.26956C32.8451 7.28682 33.1074 5.89236 32.5799 4.62906C31.97 3.16844 30.6676 2.7109 29.0068 3.3737C28.3626 3.64267 28.1577 3.63838 27.6508 4.14124C27.5405 4.25196 27.4091 4.33933 27.2643 4.39816C27.1195 4.45698 26.9644 4.48606 26.8082 4.48364C26.6571 4.48186 26.508 4.44969 26.3697 4.38903C26.2313 4.32838 26.1066 4.24048 26.003 4.13059C25.8033 3.91882 25.6915 3.63918 25.69 3.34814C25.6885 3.05709 25.7976 2.77633 25.9951 2.56256C26.8471 1.67065 27.8748 0.965039 29.0132 0.490248C32.5816 -0.999778 34.3779 1.20003 35.1999 3.16866C36.004 5.0942 35.5517 6.88077 34.825 9.19457C34.216 11.1172 34.2515 12.5418 34.9432 13.9584C34.9932 14.0655 35.021 14.1815 35.0249 14.2996C35.0289 14.4177 35.0089 14.5354 34.9663 14.6456C34.9236 14.7558 34.8591 14.8562 34.7767 14.9409C34.6942 15.0255 34.5955 15.0926 34.4865 15.1382Z" fill="#744DE6"/>
<path d="M125.095 29.8794H107.753C107.698 29.8798 107.643 29.8692 107.592 29.8484C107.541 29.8276 107.495 29.7969 107.455 29.758C107.416 29.7192 107.385 29.673 107.364 29.6222C107.343 29.5713 107.332 29.5168 107.332 29.4617C107.332 29.4066 107.343 29.352 107.364 29.3012C107.385 29.2503 107.416 29.2041 107.455 29.1653C107.495 29.1265 107.541 29.0958 107.592 29.0749C107.643 29.0541 107.698 29.0436 107.753 29.044H125.095C125.205 29.0447 125.311 29.089 125.388 29.1673C125.466 29.2456 125.51 29.3514 125.51 29.4617C125.51 29.572 125.466 29.6778 125.388 29.756C125.311 29.8343 125.205 29.8786 125.095 29.8794Z" fill="#744DE6"/>
<path d="M147.094 30.0181H129.752C129.697 30.0184 129.642 30.0079 129.591 29.9871C129.54 29.9663 129.494 29.9355 129.455 29.8967C129.416 29.8579 129.385 29.8117 129.364 29.7609C129.342 29.71 129.332 29.6554 129.332 29.6003C129.332 29.5452 129.342 29.4907 129.364 29.4398C129.385 29.389 129.416 29.3428 129.455 29.304C129.494 29.2651 129.54 29.2344 129.591 29.2136C129.642 29.1928 129.697 29.1823 129.752 29.1826H147.094C147.149 29.1823 147.204 29.1928 147.255 29.2136C147.306 29.2344 147.352 29.2651 147.392 29.304C147.431 29.3428 147.462 29.389 147.483 29.4398C147.504 29.4907 147.515 29.5452 147.515 29.6003C147.515 29.6554 147.504 29.71 147.483 29.7609C147.462 29.8117 147.431 29.8579 147.392 29.8967C147.352 29.9355 147.306 29.9663 147.255 29.9871C147.204 30.0079 147.149 30.0184 147.094 30.0181Z" fill="#744DE6"/>
<path d="M169.093 30.1577H151.751C151.641 30.157 151.535 30.1126 151.458 30.0344C151.38 29.9561 151.336 29.8503 151.336 29.74C151.336 29.6297 151.38 29.5239 151.458 29.4456C151.535 29.3674 151.641 29.323 151.751 29.3223H169.093C169.148 29.3219 169.203 29.3324 169.254 29.3533C169.305 29.3741 169.351 29.4048 169.39 29.4436C169.43 29.4824 169.461 29.5286 169.482 29.5795C169.503 29.6303 169.514 29.6849 169.514 29.74C169.514 29.7951 169.503 29.8496 169.482 29.9005C169.461 29.9514 169.43 29.9975 169.39 30.0364C169.351 30.0752 169.305 30.1059 169.254 30.1267C169.203 30.1475 169.148 30.1581 169.093 30.1577Z" fill="#744DE6"/>
<path d="M191.093 30.2983H173.751C173.641 30.2976 173.536 30.2532 173.458 30.175C173.38 30.0967 173.336 29.9909 173.336 29.8806C173.336 29.7703 173.38 29.6645 173.458 29.5862C173.536 29.508 173.641 29.4636 173.751 29.4629H191.093C191.204 29.4636 191.309 29.508 191.387 29.5862C191.465 29.6645 191.508 29.7703 191.508 29.8806C191.508 29.9909 191.465 30.0967 191.387 30.175C191.309 30.2532 191.204 30.2976 191.093 30.2983Z" fill="#744DE6"/>
<path d="M116.385 26.0352C118.166 26.0352 119.609 24.5921 119.609 22.812C119.609 21.0319 118.166 19.5889 116.385 19.5889C114.605 19.5889 113.162 21.0319 113.162 22.812C113.162 24.5921 114.605 26.0352 116.385 26.0352Z" fill="#744DE6"/>
<path d="M138.517 26.0352C140.298 26.0352 141.741 24.5921 141.741 22.812C141.741 21.0319 140.298 19.5889 138.517 19.5889C136.737 19.5889 135.294 21.0319 135.294 22.812C135.294 24.5921 136.737 26.0352 138.517 26.0352Z" fill="#744DE6"/>
<path d="M160.65 26.0352C162.43 26.0352 163.873 24.5921 163.873 22.812C163.873 21.0319 162.43 19.5889 160.65 19.5889C158.87 19.5889 157.427 21.0319 157.427 22.812C157.427 24.5921 158.87 26.0352 160.65 26.0352Z" fill="#744DE6"/>
<path d="M182.783 26.0352C184.563 26.0352 186.006 24.5921 186.006 22.812C186.006 21.0319 184.563 19.5889 182.783 19.5889C181.003 19.5889 179.56 21.0319 179.56 22.812C179.56 24.5921 181.003 26.0352 182.783 26.0352Z" fill="#744DE6"/>
</g>
<defs>
<clipPath id="clip0_2148_37480">
<rect width="204.4" height="135.838" fill="white" transform="translate(0.300171)"/>
</clipPath>
</defs>
</svg>
