<svg width="127" height="59" viewBox="0 0 127 59" fill="none" xmlns="http://www.w3.org/2000/svg">
<g clip-path="url(#clip0_4044_2460)">
<path fill-rule="evenodd" clip-rule="evenodd" d="M36.181 27.7656C36.1615 27.7786 36.1436 27.7933 36.1224 27.8063C35.9401 27.9217 35.7594 28.0387 35.5837 28.1638C35.5544 28.185 35.3623 28.3312 35.2826 28.3914C35.1947 28.4645 35.0759 28.5653 35.0563 28.5832C34.9196 28.7002 34.7862 28.8221 34.6527 28.944C34.1172 29.4381 33.6159 29.968 33.1358 30.5157C32.6736 31.0423 32.2325 31.5868 31.7979 32.1378C31.6612 32.3117 31.5245 32.4873 31.3878 32.6628C31.3552 32.7034 31.3276 32.7392 31.3064 32.7668C31.0167 33.1406 30.7286 33.5145 30.4389 33.8867C30.1541 34.2524 29.8628 34.6116 29.5698 34.9675C30.1557 36.3296 30.4763 37.8249 30.4763 39.3885C30.2827 45.6005 25.6164 50.0686 19.7816 50.0686L19.5879 59.0015C30.6717 59.0015 39.6168 50.4571 39.6168 39.3885C39.6168 35.0764 38.3603 31.0765 36.181 27.7672V27.7656Z" fill="#8362DD"/>
<path d="M53.9916 2.59912C48.619 2.59912 44.262 6.95017 44.262 12.3154C44.262 17.6807 48.619 22.0317 53.9916 22.0317C55.7982 22.0317 57.4925 21.5376 58.9427 20.6778V20.7997C58.9427 24.842 55.6501 28.13 51.6023 28.13H47.9891V32.9004H51.6023C58.2868 32.9004 63.7196 27.475 63.7196 20.7997V12.3154C63.7196 6.95017 59.3626 2.59912 53.99 2.59912H53.9916ZM53.9916 17.2597C51.2589 17.2597 49.0405 15.0428 49.0405 12.3154C49.0405 9.5881 51.2605 7.37113 53.9916 7.37113C56.7227 7.37113 58.9427 9.5881 58.9427 12.3154C58.9427 15.0428 56.7227 17.2597 53.9916 17.2597Z" fill="#1D164C"/>
<path d="M101.269 22.0312C102.895 22.0312 104.386 21.451 105.543 20.4888C106.7 21.451 108.188 22.0312 109.812 22.0312C111.658 22.0312 113.331 21.2852 114.537 20.0792C115.745 18.8732 116.492 17.204 116.492 15.3641V2.59863H111.722V15.3641H111.713C111.713 16.4092 110.862 17.2592 109.811 17.2592C108.846 17.2592 108.056 16.5343 107.937 15.6014C107.941 15.5217 107.949 15.4437 107.949 15.3625V2.59863H103.178V15.3641H103.134C103.134 15.4454 103.144 15.5234 103.146 15.603C103.027 16.5343 102.236 17.2609 101.268 17.2609C100.221 17.2609 99.3699 16.4108 99.3699 15.3657H99.3617V2.59863H94.5913V15.3641C94.5913 19.0471 97.5795 22.0312 101.268 22.0312H101.269Z" fill="#1D164C"/>
<path d="M74.3607 2.59879V7.36918C71.628 7.36918 69.4097 9.58615 69.4097 12.3135H69.4178V22.0298H64.6311V12.3135C64.6311 6.94822 68.9881 2.59717 74.3607 2.59717V2.59879Z" fill="#1D164C"/>
<path d="M83.8593 7.36902C86.5903 7.36902 88.8103 9.58761 88.8103 12.3133C88.8103 15.039 86.5887 17.2576 83.8593 17.2576C81.1298 17.2576 78.9082 15.039 78.9082 12.3133C78.9082 9.58761 81.1298 7.36902 83.8593 7.36902ZM83.8593 2.59863C78.485 2.59863 74.1296 6.94805 74.1296 12.3149C74.1296 17.6818 78.485 22.0312 83.8593 22.0312C89.2335 22.0312 93.5889 17.6818 93.5889 12.3149C93.5889 6.94805 89.2335 2.59863 83.8593 2.59863Z" fill="#1D164C"/>
<path d="M110.696 22.8145C105.319 22.8145 100.963 27.1655 100.963 32.5308C100.963 37.896 105.32 42.2471 110.696 42.2471H120.426V32.5308C120.426 27.1655 116.069 22.8145 110.696 22.8145ZM115.647 37.4751H110.696C107.964 37.4751 105.74 35.2548 105.74 32.5308C105.74 29.8067 107.964 27.5865 110.696 27.5865C113.429 27.5865 115.647 29.8034 115.647 32.5308V37.4751Z" fill="#1D164C"/>
<path d="M70.3829 22.6328C65.0103 22.6328 60.6533 26.9839 60.6533 32.3491C60.6533 37.7144 65.0103 42.0654 70.3829 42.0654C72.1896 42.0654 73.8839 41.5713 75.334 40.7115V40.8334C75.334 44.8757 72.0414 48.1637 67.9937 48.1637H64.3805V52.9341H67.9937C74.6781 52.9341 80.1109 47.5087 80.1109 40.8334V32.3491C80.1109 26.9839 75.7539 22.6328 70.3813 22.6328H70.3829ZM70.3829 37.2934C67.6503 37.2934 65.4319 35.0764 65.4319 32.3491C65.4319 29.6218 67.6519 27.4048 70.3829 27.4048C73.114 27.4048 75.334 29.6218 75.334 32.3491C75.334 35.0764 73.114 37.2934 70.3829 37.2934Z" fill="#1D164C"/>
<path d="M126.524 16.2759H121.313V42.2424H126.524V16.2759Z" fill="#1D164C"/>
<path d="M90.5372 27.5848C93.2683 27.5848 95.4883 29.8034 95.4883 32.5291C95.4883 35.2548 93.2667 37.4734 90.5372 37.4734C87.8078 37.4734 85.5862 35.2548 85.5862 32.5291C85.5862 29.8034 87.8078 27.5848 90.5372 27.5848ZM90.5372 22.8145C85.163 22.8145 80.8076 27.1639 80.8076 32.5308C80.8076 37.8976 85.163 42.2471 90.5372 42.2471C95.9115 42.2471 100.267 37.8976 100.267 32.5308C100.267 27.1639 95.9115 22.8145 90.5372 22.8145Z" fill="#1D164C"/>
<path d="M29.8027 21.662C30.0021 16.7037 26.1388 12.5228 21.1738 12.3237C16.2088 12.1246 12.0222 15.9826 11.8227 20.9408C11.6233 25.899 15.4866 30.0799 20.4516 30.279C25.4167 30.4782 29.6033 26.6202 29.8027 21.662Z" fill="#F87D7F"/>
<path d="M20.8136 21.3004L19.1828 12.4634C18.1184 12.6584 17.0718 13.0485 16.0953 13.6483C12.4251 15.9059 10.9489 20.3691 12.3226 24.2715L20.8136 21.2987V21.3004Z" fill="#59DED5"/>
<path fill-rule="evenodd" clip-rule="evenodd" d="M27.4705 4.55096C28.3005 4.86303 29.1127 5.22873 29.8711 5.6692C31.9935 6.90121 33.5218 8.73298 34.9833 10.6346C36.5214 9.79595 38.302 9.32135 40.2225 9.32135V0C35.2486 0 30.8428 1.70174 27.4705 4.55096Z" fill="#8362DD"/>
<path fill-rule="evenodd" clip-rule="evenodd" d="M20.8136 1.49365C9.86001 1.49365 0.97998 10.3615 0.97998 21.3001C0.97998 32.2387 9.86001 41.1065 20.8136 41.1065C31.7671 41.1065 40.6472 32.2387 40.6472 21.3001C40.6472 10.3615 31.7671 1.49365 20.8136 1.49365ZM20.8136 31.9672C14.9153 31.9672 10.1334 27.192 10.1334 21.3017C10.1334 15.4115 14.9153 10.6362 20.8136 10.6362C26.7119 10.6362 31.4937 15.4115 31.4937 21.3017C31.4937 27.192 26.7119 31.9672 20.8136 31.9672Z" fill="#986CF3"/>
<path d="M20.8137 21.2999L24.3227 13.0286C22.7147 12.3492 20.926 12.1427 19.1829 12.4646L20.8137 21.3016V21.2999Z" fill="#FCBD2C"/>
<path d="M83.7729 43.5981C83.9829 43.5981 83.9829 43.894 83.7729 43.894H82.8159C82.8159 44.666 82.8208 45.4494 82.8208 46.2215C82.8208 46.3287 82.7313 46.3807 82.658 46.3807C82.5848 46.3807 82.5034 46.3287 82.5034 46.2215V43.894H81.5513C81.3494 43.894 81.3494 43.5981 81.5513 43.5981H83.7745H83.7729Z" fill="#1D164C"/>
<path d="M83.9877 45.981C83.7941 45.7534 83.7127 45.4804 83.7257 45.1585C83.768 44.6823 84.048 44.2841 84.52 44.1508C84.6225 44.1216 84.7381 44.1118 84.8455 44.1118C84.9529 44.1118 85.0522 44.1199 85.1629 44.1508C85.63 44.2841 85.9229 44.6774 85.9604 45.1585C85.9783 45.4804 85.892 45.755 85.7032 45.981C85.4932 46.2345 85.184 46.3662 84.8455 46.3662C84.5069 46.3662 84.1977 46.2329 83.9877 45.981ZM84.8422 44.4044C84.7608 44.4044 84.6795 44.4174 84.6144 44.4336C84.2547 44.5279 84.0431 44.8627 84.0431 45.2479C84.0431 45.4414 84.1033 45.6429 84.2319 45.7924C84.3816 45.9728 84.6095 46.0752 84.8455 46.0752C85.0815 46.0752 85.3126 45.9631 85.464 45.7924C85.5844 45.6461 85.6528 45.4413 85.6528 45.2561C85.6528 44.866 85.4428 44.5279 85.0782 44.4336C85.0099 44.4158 84.9236 44.4044 84.8422 44.4044Z" fill="#1D164C"/>
<path d="M88.0632 44.4597V46.2085C88.0632 46.3971 87.7507 46.3971 87.7507 46.2085V44.4597H87.5196C87.3519 44.4597 87.3568 44.198 87.5244 44.198H87.7523V44.1037C87.7523 43.5544 88.4049 43.3154 88.8037 43.6242C88.9534 43.7526 88.7565 43.9542 88.6279 43.842C88.4522 43.6795 88.0664 43.777 88.0664 44.107V44.1964H88.4782C88.6328 44.1964 88.6328 44.458 88.4782 44.458H88.0664L88.0632 44.4597Z" fill="#1D164C"/>
<path d="M89.4277 43.8258C89.4277 44.0192 89.1047 44.0224 89.1047 43.8258V43.6324C89.1047 43.4357 89.4277 43.4357 89.4277 43.6324V43.8258ZM89.1096 44.289C89.1096 44.1053 89.4228 44.1005 89.4228 44.2841V46.2167C89.4228 46.4052 89.1096 46.4003 89.1096 46.2167V44.2874V44.289Z" fill="#1D164C"/>
<path d="M91.8001 45.0674C91.8001 44.6724 91.4827 44.3993 91.1344 44.3993C90.7178 44.3993 90.3271 44.7423 90.3271 45.2088V46.2035C90.3271 46.2977 90.2718 46.353 90.1725 46.353C90.0732 46.353 90.0098 46.2977 90.0098 46.2035V44.2839C90.0098 44.0873 90.319 44.0824 90.319 44.2888V44.5537C90.4736 44.2417 90.804 44.1084 91.1393 44.1084C91.6373 44.1084 92.1142 44.4513 92.1142 45.069V46.2051C92.1142 46.2994 92.0589 46.3546 91.9596 46.3546C91.8603 46.3546 91.8001 46.2994 91.8001 46.2051V45.069V45.0674Z" fill="#1D164C"/>
<path d="M93.3024 44.203C93.444 44.138 93.5986 44.1169 93.7613 44.1218C94.0055 44.1266 94.2854 44.203 94.44 44.4566V44.2941C94.44 44.2047 94.4954 44.1396 94.5947 44.1396C94.6939 44.1396 94.7542 44.2047 94.7542 44.2941V46.1973C94.7542 46.2916 94.6891 46.3517 94.5947 46.3517C94.5003 46.3517 94.44 46.2916 94.44 46.1973V45.9909C94.3163 46.2396 93.9973 46.381 93.7451 46.381C93.5384 46.381 93.3072 46.3257 93.1266 46.1973C92.8011 45.9747 92.6334 45.6106 92.6465 45.1896C92.6546 44.7573 92.8955 44.3574 93.3073 44.1998L93.3024 44.2047V44.203ZM94.4384 45.4155V45.0775C94.4384 44.6533 94.1422 44.4338 93.7565 44.4176C93.4521 44.4127 93.1429 44.5769 93.0224 44.8759C92.9834 44.9653 92.9622 45.0823 92.9573 45.1929C92.9492 45.4708 93.0387 45.7292 93.2698 45.921C93.3984 46.0202 93.553 46.0706 93.7125 46.0836C94.108 46.0836 94.4156 45.843 94.4384 45.4155Z" fill="#1D164C"/>
<path d="M97.2103 45.0674C97.2103 44.6724 96.8929 44.3993 96.5446 44.3993C96.1279 44.3993 95.7373 44.7423 95.7373 45.2088V46.2035C95.7373 46.2977 95.682 46.353 95.5827 46.353C95.4834 46.353 95.4199 46.2977 95.4199 46.2035V44.2839C95.4199 44.0873 95.7292 44.0824 95.7292 44.2888V44.5537C95.8838 44.2417 96.2142 44.1084 96.5495 44.1084C97.0475 44.1084 97.5244 44.4513 97.5244 45.069V46.2051C97.5244 46.2994 97.469 46.3546 97.3698 46.3546C97.2705 46.3546 97.2103 46.2994 97.2103 46.2051V45.069V45.0674Z" fill="#1D164C"/>
<path d="M99.1534 44.3733C98.6863 44.3733 98.3673 44.7553 98.3673 45.2429C98.3673 45.4363 98.4226 45.6541 98.5512 45.8085C98.7009 45.9921 98.9369 46.0913 99.1697 46.0913C99.4024 46.0913 99.6465 46.0149 99.7963 45.8085C99.9037 45.6622 100.161 45.8296 100.014 45.997C99.8044 46.2538 99.4822 46.379 99.1648 46.379C98.8474 46.379 98.517 46.2457 98.3022 45.997C98.1215 45.7743 98.032 45.4704 98.0483 45.1567C98.0825 44.5228 98.5333 44.0889 99.1859 44.0889C99.4952 44.0889 99.7442 44.1913 99.9753 44.4529C100.099 44.5943 99.8679 44.7748 99.7475 44.6334C99.5847 44.4448 99.365 44.3717 99.1501 44.3717L99.1534 44.3733Z" fill="#1D164C"/>
<path d="M101.81 44.1558C102.295 44.289 102.596 44.6824 102.604 45.2317V45.2269C102.612 45.3211 102.57 45.4235 102.394 45.4235H100.698C100.753 45.7746 101.054 46.0672 101.484 46.0672C101.681 46.0672 101.888 46.0152 102.055 45.8868C102.205 45.7502 102.428 45.9258 102.262 46.0964C102.065 46.2801 101.777 46.3581 101.499 46.3532C101.163 46.3532 100.83 46.2248 100.628 45.9713C100.164 45.3634 100.366 44.3768 101.165 44.1541C101.367 44.094 101.598 44.0989 101.81 44.1541H101.814L101.81 44.1558ZM100.685 45.1618H102.303C102.273 44.7978 102.049 44.5182 101.715 44.4337H101.72C101.578 44.3947 101.403 44.3947 101.256 44.4386C100.913 44.528 100.711 44.8156 100.685 45.1635V45.1618Z" fill="#1D164C"/>
<path d="M104.074 44.3311C103.997 44.1605 104.28 44.0142 104.365 44.2076L105.193 45.8622L106.014 44.2043C106.09 44.0369 106.373 44.1393 106.305 44.3197L104.928 47.0536C104.825 47.2551 104.555 47.1478 104.637 46.9463L105.014 46.1791L104.075 44.3328L104.074 44.3311Z" fill="#1D164C"/>
<path d="M106.85 45.981C106.657 45.7534 106.575 45.4804 106.588 45.1585C106.631 44.6823 106.911 44.2841 107.383 44.1508C107.485 44.1216 107.601 44.1118 107.708 44.1118C107.815 44.1118 107.915 44.1199 108.025 44.1508C108.493 44.2841 108.785 44.6774 108.823 45.1585C108.841 45.4804 108.755 45.755 108.566 45.981C108.356 46.2345 108.047 46.3662 107.708 46.3662C107.369 46.3662 107.06 46.2329 106.85 45.981ZM107.705 44.4044C107.623 44.4044 107.542 44.4174 107.477 44.4336C107.117 44.5279 106.906 44.8627 106.906 45.2479C106.906 45.4414 106.966 45.6429 107.094 45.7924C107.244 45.9728 107.472 46.0752 107.708 46.0752C107.944 46.0752 108.175 45.9631 108.327 45.7924C108.447 45.6461 108.515 45.4413 108.515 45.2561C108.515 44.866 108.305 44.5279 107.941 44.4336C107.872 44.4158 107.786 44.4044 107.705 44.4044Z" fill="#1D164C"/>
<path d="M109.638 45.4103C109.638 45.8053 109.956 46.0783 110.304 46.0783C110.721 46.0783 111.111 45.7354 111.111 45.2689V44.2742C111.111 44.1799 111.167 44.1247 111.266 44.1247C111.365 44.1247 111.429 44.1799 111.429 44.2742V46.1937C111.429 46.3904 111.119 46.3953 111.119 46.1889V45.9191C110.965 46.2311 110.634 46.3693 110.299 46.3693C109.801 46.3693 109.324 46.0263 109.324 45.4087V44.2726C109.324 44.1783 109.38 44.123 109.479 44.123C109.578 44.123 109.638 44.1783 109.638 44.2726V45.4087V45.4103Z" fill="#1D164C"/>
<path d="M112.381 44.5018C112.518 44.2141 112.777 44.1377 113.021 44.1377C113.12 44.1377 113.184 44.1897 113.184 44.2872C113.184 44.3847 113.119 44.4335 113.021 44.4335C112.578 44.4335 112.389 44.7846 112.389 45.2185V46.1873C112.389 46.2767 112.316 46.3368 112.234 46.3368C112.14 46.3368 112.075 46.2767 112.075 46.1873V44.2889C112.075 44.1003 112.379 44.0824 112.379 44.2889V44.5034L112.381 44.5018Z" fill="#1D164C"/>
<path d="M115.126 44.4597V46.2085C115.126 46.3971 114.814 46.3971 114.814 46.2085V44.4597H114.583C114.415 44.4597 114.42 44.198 114.588 44.198H114.816V44.1037C114.816 43.5544 115.468 43.3154 115.867 43.6242C116.017 43.7526 115.82 43.9542 115.691 43.842C115.515 43.6795 115.13 43.777 115.13 44.107V44.1964H115.541C115.696 44.1964 115.696 44.458 115.541 44.458H115.13L115.126 44.4597Z" fill="#1D164C"/>
<path d="M116.422 45.4103C116.422 45.8053 116.739 46.0783 117.088 46.0783C117.504 46.0783 117.895 45.7354 117.895 45.2689V44.2742C117.895 44.1799 117.95 44.1247 118.05 44.1247C118.149 44.1247 118.212 44.1799 118.212 44.2742V46.1937C118.212 46.3904 117.903 46.3953 117.903 46.1889V45.9191C117.749 46.2311 117.418 46.3693 117.083 46.3693C116.585 46.3693 116.108 46.0263 116.108 45.4087V44.2726C116.108 44.1783 116.163 44.123 116.263 44.123C116.362 44.123 116.422 44.1783 116.422 44.2726V45.4087V45.4103Z" fill="#1D164C"/>
<path d="M119.815 44.1461C120.009 44.1461 120.009 44.4159 119.815 44.4159H119.348V45.5732C119.348 45.817 119.387 46.0738 119.679 46.0738C119.744 46.0738 119.838 46.0526 119.881 46.0266C120.061 45.9242 120.203 46.1762 120.009 46.2834C119.902 46.3436 119.794 46.3566 119.679 46.3566C119.164 46.3566 119.039 45.9795 119.039 45.5715V44.4143H118.756C118.554 44.4143 118.567 44.1445 118.756 44.1445H119.039V43.6471C119.039 43.4407 119.348 43.4456 119.348 43.6471V44.1445H119.815V44.1461Z" fill="#1D164C"/>
<path d="M120.738 45.4103C120.738 45.8053 121.056 46.0783 121.404 46.0783C121.821 46.0783 122.211 45.7354 122.211 45.2689V44.2742C122.211 44.1799 122.267 44.1247 122.366 44.1247C122.465 44.1247 122.529 44.1799 122.529 44.2742V46.1937C122.529 46.3904 122.22 46.3953 122.22 46.1889V45.9191C122.065 46.2311 121.735 46.3693 121.399 46.3693C120.901 46.3693 120.424 46.0263 120.424 45.4087V44.2726C120.424 44.1783 120.48 44.123 120.579 44.123C120.678 44.123 120.738 44.1783 120.738 44.2726V45.4087V45.4103Z" fill="#1D164C"/>
<path d="M123.479 44.5018C123.616 44.2141 123.875 44.1377 124.119 44.1377C124.219 44.1377 124.282 44.1897 124.282 44.2872C124.282 44.3847 124.217 44.4335 124.119 44.4335C123.676 44.4335 123.487 44.7846 123.487 45.2185V46.1873C123.487 46.2767 123.414 46.3368 123.333 46.3368C123.238 46.3368 123.173 46.2767 123.173 46.1873V44.2889C123.173 44.1003 123.478 44.0824 123.478 44.2889V44.5034L123.479 44.5018Z" fill="#1D164C"/>
<path d="M125.903 44.1558C126.388 44.289 126.689 44.6824 126.697 45.2317V45.2269C126.705 45.3211 126.663 45.4235 126.487 45.4235H124.791C124.846 45.7746 125.147 46.0672 125.577 46.0672C125.774 46.0672 125.981 46.0152 126.148 45.8868C126.298 45.7502 126.521 45.9258 126.355 46.0964C126.158 46.2801 125.87 46.3581 125.592 46.3532C125.256 46.3532 124.923 46.2248 124.721 45.9713C124.257 45.3634 124.459 44.3768 125.258 44.1541C125.46 44.094 125.691 44.0989 125.903 44.1541H125.907L125.903 44.1558ZM124.78 45.1618H126.397C126.368 44.7978 126.143 44.5182 125.81 44.4337H125.815C125.673 44.3947 125.497 44.3947 125.351 44.4386C125.007 44.528 124.806 44.8156 124.78 45.1635V45.1618Z" fill="#1D164C"/>
</g>
<defs>
<clipPath id="clip0_4044_2460">
<rect width="125.719" height="59" fill="white" transform="translate(0.97998)"/>
</clipPath>
</defs>
</svg>
