<svg width="86" height="86" viewBox="0 0 86 86" fill="none" xmlns="http://www.w3.org/2000/svg">
<path d="M27.0852 14.2363L14.2927 1.44385L1.50023 14.2363L14.2927 27.0288L27.0852 14.2363Z" fill="#7048E3"/>
<path d="M0.0581055 28.4702C7.60848 28.4702 14.8496 31.4696 20.1885 36.8085C25.5275 42.1474 28.5268 49.3886 28.5268 56.9389H0.0581055V28.4702Z" fill="#7B54EF"/>
<path d="M0.0581055 56.9395C7.60848 56.9395 14.8496 59.9388 20.1885 65.2778C25.5275 70.6167 28.5268 77.8578 28.5268 85.4082H0.0581055V56.9395Z" fill="#7B54EF"/>
<path d="M28.5271 0.00195312H56.9958V28.4707C49.4454 28.4707 42.2043 25.4713 36.8654 20.1324C31.5265 14.7935 28.5271 7.55233 28.5271 0.00195312Z" fill="#7B54EF"/>
<path d="M28.5271 28.4702C36.0775 28.4702 43.3186 31.4696 48.6575 36.8085C53.9965 42.1474 56.9958 49.3886 56.9958 56.9389H28.5271V28.4702Z" fill="#7B54EF"/>
<path d="M28.5271 56.9395C36.0775 56.9395 43.3186 59.9388 48.6575 65.2778C53.9965 70.6167 56.9958 77.8578 56.9958 85.4082H28.5271V56.9395Z" fill="#7B54EF"/>
<path d="M56.8645 0.00195312H85.3332V28.4707C77.7829 28.4707 70.5417 25.4713 65.2028 20.1324C59.8639 14.7935 56.8645 7.55233 56.8645 0.00195312Z" fill="#7B54EF"/>
<path d="M56.8645 28.4702C64.4149 28.4702 71.656 31.4696 76.9949 36.8085C82.3339 42.1474 85.3332 49.3886 85.3332 56.9389H56.8645V28.4702Z" fill="#7B54EF"/>
<path d="M71.0981 82.7953C77.0179 82.7953 81.8168 77.9964 81.8168 72.0766C81.8168 66.1568 77.0179 61.3579 71.0981 61.3579C65.1783 61.3579 60.3794 66.1568 60.3794 72.0766C60.3794 77.9964 65.1783 82.7953 71.0981 82.7953Z" fill="#7048E3"/>
</svg>
