<svg width="68" height="13" viewBox="0 0 68 13" fill="none" xmlns="http://www.w3.org/2000/svg">
<path d="M6.865 2.25482L7.745 4.01482C7.865 4.25982 8.185 4.49482 8.455 4.53982L10.05 4.80482C11.07 4.97482 11.31 5.71482 10.575 6.44482L9.335 7.68482C9.125 7.89482 9.01 8.29982 9.075 8.58982L9.43 10.1248C9.71 11.3398 9.065 11.8098 7.99 11.1748L6.495 10.2898C6.225 10.1298 5.78 10.1298 5.505 10.2898L4.01 11.1748C2.94 11.8098 2.29 11.3348 2.57 10.1248L2.925 8.58982C2.99 8.29982 2.875 7.89482 2.665 7.68482L1.425 6.44482C0.695 5.71482 0.93 4.97482 1.95 4.80482L3.545 4.53982C3.81 4.49482 4.13 4.25982 4.25 4.01482L5.13 2.25482C5.61 1.29982 6.39 1.29982 6.865 2.25482Z" fill="#FADB5C" stroke="#FADB5C" stroke-width="1.5" stroke-linecap="round" stroke-linejoin="round"/>
<path d="M20.865 2.25482L21.745 4.01482C21.865 4.25982 22.185 4.49482 22.455 4.53982L24.05 4.80482C25.07 4.97482 25.31 5.71482 24.575 6.44482L23.335 7.68482C23.125 7.89482 23.01 8.29982 23.075 8.58982L23.43 10.1248C23.71 11.3398 23.065 11.8098 21.99 11.1748L20.495 10.2898C20.225 10.1298 19.78 10.1298 19.505 10.2898L18.01 11.1748C16.94 11.8098 16.29 11.3348 16.57 10.1248L16.925 8.58982C16.99 8.29982 16.875 7.89482 16.665 7.68482L15.425 6.44482C14.695 5.71482 14.93 4.97482 15.95 4.80482L17.545 4.53982C17.81 4.49482 18.13 4.25982 18.25 4.01482L19.13 2.25482C19.61 1.29982 20.39 1.29982 20.865 2.25482Z" fill="#FADB5C" stroke="#FADB5C" stroke-width="1.5" stroke-linecap="round" stroke-linejoin="round"/>
<path d="M34.865 2.25482L35.745 4.01482C35.865 4.25982 36.185 4.49482 36.455 4.53982L38.05 4.80482C39.07 4.97482 39.31 5.71482 38.575 6.44482L37.335 7.68482C37.125 7.89482 37.01 8.29982 37.075 8.58982L37.43 10.1248C37.71 11.3398 37.065 11.8098 35.99 11.1748L34.495 10.2898C34.225 10.1298 33.78 10.1298 33.505 10.2898L32.01 11.1748C30.94 11.8098 30.29 11.3348 30.57 10.1248L30.925 8.58982C30.99 8.29982 30.875 7.89482 30.665 7.68482L29.425 6.44482C28.695 5.71482 28.93 4.97482 29.95 4.80482L31.545 4.53982C31.81 4.49482 32.13 4.25982 32.25 4.01482L33.13 2.25482C33.61 1.29982 34.39 1.29982 34.865 2.25482Z" fill="#FADB5C" stroke="#FADB5C" stroke-width="1.5" stroke-linecap="round" stroke-linejoin="round"/>
<path d="M48.865 2.25482L49.745 4.01482C49.865 4.25982 50.185 4.49482 50.455 4.53982L52.05 4.80482C53.07 4.97482 53.31 5.71482 52.575 6.44482L51.335 7.68482C51.125 7.89482 51.01 8.29982 51.075 8.58982L51.43 10.1248C51.71 11.3398 51.065 11.8098 49.99 11.1748L48.495 10.2898C48.225 10.1298 47.78 10.1298 47.505 10.2898L46.01 11.1748C44.94 11.8098 44.29 11.3348 44.57 10.1248L44.925 8.58982C44.99 8.29982 44.875 7.89482 44.665 7.68482L43.425 6.44482C42.695 5.71482 42.93 4.97482 43.95 4.80482L45.545 4.53982C45.81 4.49482 46.13 4.25982 46.25 4.01482L47.13 2.25482C47.61 1.29982 48.39 1.29982 48.865 2.25482Z" fill="#FADB5C" stroke="#FADB5C" stroke-width="1.5" stroke-linecap="round" stroke-linejoin="round"/>
<path d="M62.865 2.25482L63.745 4.01482C63.865 4.25982 64.185 4.49482 64.455 4.53982L66.05 4.80482C67.07 4.97482 67.31 5.71482 66.575 6.44482L65.335 7.68482C65.125 7.89482 65.01 8.29982 65.075 8.58982L65.43 10.1248C65.71 11.3398 65.065 11.8098 63.99 11.1748L62.495 10.2898C62.225 10.1298 61.78 10.1298 61.505 10.2898L60.01 11.1748C58.94 11.8098 58.29 11.3348 58.57 10.1248L58.925 8.58982C58.99 8.29982 58.875 7.89482 58.665 7.68482L57.425 6.44482C56.695 5.71482 56.93 4.97482 57.95 4.80482L59.545 4.53982C59.81 4.49482 60.13 4.25982 60.25 4.01482L61.13 2.25482C61.61 1.29982 62.39 1.29982 62.865 2.25482Z" fill="#EFEFEF" stroke="#EFEFEF" stroke-width="1.5" stroke-linecap="round" stroke-linejoin="round"/>
</svg>
