<svg width="69" height="57" viewBox="0 0 69 57" fill="none" xmlns="http://www.w3.org/2000/svg">
<path d="M35.779 23.2043C35.2277 24.4217 37.2031 25.3865 38.9258 24.7203C39.9365 24.3299 42.8536 21.941 42.7847 21.5735C42.3483 19.3225 36.9963 20.5628 35.779 23.2043Z" fill="#4DF1D5"/>
<path d="M21.1477 28.166C24.6161 26.719 44.6915 12.1333 46.0008 10.1349C46.7128 9.05533 44.4618 8.02169 42.9917 8.73375C41.269 9.53769 26.5225 20.8617 20.0911 26.4433C19.1952 27.2013 20.0681 28.6025 21.1477 28.166Z" fill="#4DF1D5"/>
<path d="M65.456 29.3831C68.6947 27.2239 69.292 26.397 68.0975 25.7998C65.7546 24.6054 64.2386 26.397 61.3674 28.2576C59.415 29.5439 62.8605 31.1288 65.456 29.3831Z" fill="#4DF1D5"/>
<path d="M55.3719 24.9038C52.9142 26.0982 49.3998 28.533 45.2423 31.9784C43.4737 33.4485 39.8445 36.1132 37.18 37.9048C32.4253 41.0976 31.897 41.557 32.655 41.8326C33.2982 42.0853 33.436 42.0161 41.2456 37.3074C49.0783 32.5756 54.8207 28.8546 57.4851 26.7414C60.8387 24.0998 58.6107 23.3189 55.3719 24.9038Z" fill="#4DF1D5"/>
<path d="M56.7041 32.1396C55.0043 33.0813 51.7426 35.3783 44.7828 40.2478C35.1586 46.9779 29.1635 50.8598 28.2447 51.8475L27.5556 52.5826C28.5433 53.3865 29.1405 54.1215 32.3103 52.4677C36.5827 50.2626 51.467 39.6738 57.0486 35.034C60.1954 32.4614 59.2766 30.7154 56.7041 32.1396Z" fill="#4DF1D5"/>
<path d="M59.5985 17.4618C61.9873 15.5553 62.0563 15.4634 61.1604 14.7973C59.4148 13.511 52.9833 16.6349 54.0169 18.2887C55.0046 19.8736 56.957 19.598 59.5985 17.4618Z" fill="#4DF1D5"/>
<path d="M3.55238 56.3497C5.20619 55.5228 39.2931 32.4843 49.7902 24.4679C54.2693 21.0455 51.421 20.5172 48.3201 22.0102C44.3464 23.9167 42.394 26.5582 14.5778 45.0487C3.43753 52.4678 0.336635 54.8797 0.336636 56.166C0.336636 56.947 2.1742 57.0388 3.55238 56.3497Z" fill="#4DF1D5"/>
<path d="M19.4018 35.5163C17.3575 37.3768 12.3271 41.1438 10.903 42.1545C10.3058 42.6368 11.8677 42.9355 12.6717 42.499C26.3386 35.0109 38.8111 24.973 34.6765 24.973C32.9538 24.973 24.7766 30.5778 19.4018 35.5163Z" fill="#4DF1D5"/>
<path d="M12.281 35.4699C18.0693 32.2312 19.1719 31.0829 17.2424 30.1642C15.7264 29.4521 15.2671 29.6588 11.1096 32.8057C5.66575 36.9402 7.73302 38.0195 12.281 35.4699Z" fill="#4DF1D5"/>
<path d="M39.5006 4.34657C42.0961 2.66979 42.5096 1.65912 40.9017 0.878153C39.179 0.0282767 36.6064 1.17676 35.389 3.31294C34.7688 4.43845 38.0765 5.26535 39.5006 4.34657Z" fill="#4DF1D5"/>
<path d="M12.6253 24.927C15.1519 23.0894 21.0551 18.5414 27.211 14.4299C35.7327 8.73341 37.4095 6.87287 34.8139 6.11487C33.229 5.65548 29.7147 8.09026 23.421 14.1542C21.147 16.3593 15.2438 21.2978 12.1199 23.7096C10.4202 25.0189 10.9255 26.1673 12.6253 24.927Z" fill="#4DF1D5"/>
</svg>
