<svg width="166" height="30" viewBox="0 0 166 30" fill="none" xmlns="http://www.w3.org/2000/svg">
<path d="M17.1621 4.3873L19.3621 8.7873C19.6621 9.3998 20.4621 9.9873 21.1371 10.0998L25.1246 10.7623C27.6746 11.1873 28.2746 13.0373 26.4371 14.8623L23.3371 17.9623C22.8121 18.4873 22.5246 19.4998 22.6871 20.2248L23.5746 24.0623C24.2746 27.0998 22.6621 28.2748 19.9746 26.6873L16.2371 24.4748C15.5621 24.0748 14.4496 24.0748 13.7621 24.4748L10.0246 26.6873C7.34964 28.2748 5.72464 27.0873 6.42464 24.0623L7.31214 20.2248C7.47464 19.4998 7.18714 18.4873 6.66214 17.9623L3.56214 14.8623C1.73714 13.0373 2.32464 11.1873 4.87464 10.7623L8.86214 10.0998C9.52464 9.9873 10.3246 9.3998 10.6246 8.7873L12.8246 4.3873C14.0246 1.9998 15.9746 1.9998 17.1621 4.3873Z" fill="#EFEFEF" stroke="#EFEFEF" stroke-width="1.5" stroke-linecap="round" stroke-linejoin="round"/>
<path d="M51.1621 4.3873L53.3621 8.7873C53.6621 9.3998 54.4621 9.9873 55.1371 10.0998L59.1246 10.7623C61.6746 11.1873 62.2746 13.0373 60.4371 14.8623L57.3371 17.9623C56.8121 18.4873 56.5246 19.4998 56.6871 20.2248L57.5746 24.0623C58.2746 27.0998 56.6621 28.2748 53.9746 26.6873L50.2371 24.4748C49.5621 24.0748 48.4496 24.0748 47.7621 24.4748L44.0246 26.6873C41.3496 28.2748 39.7246 27.0873 40.4246 24.0623L41.3121 20.2248C41.4746 19.4998 41.1871 18.4873 40.6621 17.9623L37.5621 14.8623C35.7371 13.0373 36.3246 11.1873 38.8746 10.7623L42.8621 10.0998C43.5246 9.9873 44.3246 9.3998 44.6246 8.7873L46.8246 4.3873C48.0246 1.9998 49.9746 1.9998 51.1621 4.3873Z" fill="#EFEFEF" stroke="#EFEFEF" stroke-width="1.5" stroke-linecap="round" stroke-linejoin="round"/>
<path d="M85.1621 4.3873L87.3621 8.7873C87.6621 9.3998 88.4621 9.9873 89.1371 10.0998L93.1246 10.7623C95.6746 11.1873 96.2746 13.0373 94.4371 14.8623L91.3371 17.9623C90.8121 18.4873 90.5246 19.4998 90.6871 20.2248L91.5746 24.0623C92.2746 27.0998 90.6621 28.2748 87.9746 26.6873L84.2371 24.4748C83.5621 24.0748 82.4496 24.0748 81.7621 24.4748L78.0246 26.6873C75.3496 28.2748 73.7246 27.0873 74.4246 24.0623L75.3121 20.2248C75.4746 19.4998 75.1871 18.4873 74.6621 17.9623L71.5621 14.8623C69.7371 13.0373 70.3246 11.1873 72.8746 10.7623L76.8621 10.0998C77.5246 9.9873 78.3246 9.3998 78.6246 8.7873L80.8246 4.3873C82.0246 1.9998 83.9746 1.9998 85.1621 4.3873Z" fill="#EFEFEF" stroke="#EFEFEF" stroke-width="1.5" stroke-linecap="round" stroke-linejoin="round"/>
<path d="M119.162 4.3873L121.362 8.7873C121.662 9.3998 122.462 9.9873 123.137 10.0998L127.125 10.7623C129.675 11.1873 130.275 13.0373 128.437 14.8623L125.337 17.9623C124.812 18.4873 124.525 19.4998 124.687 20.2248L125.575 24.0623C126.275 27.0998 124.662 28.2748 121.975 26.6873L118.237 24.4748C117.562 24.0748 116.45 24.0748 115.762 24.4748L112.025 26.6873C109.35 28.2748 107.725 27.0873 108.425 24.0623L109.312 20.2248C109.475 19.4998 109.187 18.4873 108.662 17.9623L105.562 14.8623C103.737 13.0373 104.325 11.1873 106.875 10.7623L110.862 10.0998C111.525 9.9873 112.325 9.3998 112.625 8.7873L114.825 4.3873C116.025 1.9998 117.975 1.9998 119.162 4.3873Z" fill="#EFEFEF" stroke="#EFEFEF" stroke-width="1.5" stroke-linecap="round" stroke-linejoin="round"/>
<path d="M153.162 4.3873L155.362 8.7873C155.662 9.3998 156.462 9.9873 157.137 10.0998L161.125 10.7623C163.675 11.1873 164.275 13.0373 162.437 14.8623L159.337 17.9623C158.812 18.4873 158.525 19.4998 158.687 20.2248L159.575 24.0623C160.275 27.0998 158.662 28.2748 155.975 26.6873L152.237 24.4748C151.562 24.0748 150.45 24.0748 149.762 24.4748L146.025 26.6873C143.35 28.2748 141.725 27.0873 142.425 24.0623L143.312 20.2248C143.475 19.4998 143.187 18.4873 142.662 17.9623L139.562 14.8623C137.737 13.0373 138.325 11.1873 140.875 10.7623L144.862 10.0998C145.525 9.9873 146.325 9.3998 146.625 8.7873L148.825 4.3873C150.025 1.9998 151.975 1.9998 153.162 4.3873Z" fill="#EFEFEF" stroke="#EFEFEF" stroke-width="1.5" stroke-linecap="round" stroke-linejoin="round"/>
</svg>
