<svg width="48" height="44" viewBox="0 0 48 44" fill="none" xmlns="http://www.w3.org/2000/svg">
<path d="M47.2727 35.5053C47.2581 35.498 47.2 35.6217 47.0909 35.8471C46.9745 36.0726 46.8 36.4071 46.5527 36.8217C46.3054 37.2362 45.9709 37.7308 45.549 38.2835C45.12 38.8289 44.589 39.4253 43.9418 40.0144C43.6145 40.3053 43.2581 40.6035 42.8654 40.8871C42.4727 41.1708 42.0581 41.4544 41.6 41.7017C41.5418 41.7308 41.4836 41.7671 41.4254 41.7962C41.3672 41.8253 41.309 41.8544 41.2509 41.8908C41.1345 41.9489 41.0109 42.0144 40.8945 42.0726C40.6472 42.1817 40.4 42.3053 40.1381 42.4071C39.8836 42.5162 39.6072 42.6108 39.3381 42.7053C39.2072 42.7489 39.0763 42.7853 38.9454 42.8289C39.0472 42.698 39.1563 42.5671 39.2581 42.4435C40.5818 40.8217 41.869 39.2144 42.9963 37.7962C43.069 37.7089 43.1345 37.6217 43.2072 37.5344C43.2436 37.4908 43.2872 37.4326 43.3236 37.3744C43.36 37.3162 43.3963 37.2653 43.4181 37.1998C43.4763 37.0835 43.5127 36.9598 43.5418 36.8362C43.5636 36.7126 43.5781 36.5817 43.5709 36.458C43.5636 36.2108 43.4981 35.9708 43.3818 35.7598C43.3309 35.658 43.2581 35.5635 43.1854 35.4762C43.149 35.4326 43.1054 35.3962 43.069 35.3526C43.0327 35.3162 42.9963 35.2871 42.96 35.2508C42.3781 34.7198 41.869 34.2617 41.44 33.8908C41.4109 33.8617 41.3818 33.8399 41.3527 33.8108C40.5527 32.9962 39.7454 32.1889 38.9381 31.3744C38.3563 30.7853 37.76 30.1817 37.4181 29.4253C37.1563 28.8435 37.0545 28.2108 37.0618 27.5708C37.4836 27.7308 37.9054 27.8544 38.3272 27.9562C38.9454 28.1017 39.5563 28.1962 40.1454 28.2835C40.2109 28.2908 40.2763 28.2544 40.2981 28.1889C40.3054 28.1744 40.3054 28.1599 40.3127 28.1453C40.3709 28.1308 40.4436 28.0944 40.5163 28.0435C40.6181 27.9708 40.7272 27.8689 40.8436 27.7235C41.069 27.4399 41.3236 27.018 41.5927 26.4071C41.7309 26.1017 41.869 25.7526 42.0145 25.3526C42.16 24.9526 42.3054 24.4871 42.4145 23.9562C42.4654 23.6871 42.509 23.418 42.5381 23.1344C42.56 22.8508 42.5672 22.5599 42.5236 22.2544C42.5018 22.1017 42.4654 21.9489 42.3927 21.7962C42.3563 21.7162 42.3054 21.6362 42.24 21.5708C42.1745 21.498 42.0727 21.4399 41.9709 21.4108C41.9636 21.4108 41.9563 21.4108 41.949 21.4035C41.8981 21.3526 41.8472 21.3017 41.7818 21.2508C41.5563 21.0689 41.2218 20.8435 40.7127 20.6762C40.2327 20.5162 39.6218 20.4071 38.8654 20.3271C38.8072 20.1744 38.7054 20.0435 38.5963 19.9417C38.4509 19.8035 38.2836 19.7017 38.109 19.6144C37.9272 19.5199 37.7309 19.4471 37.52 19.3817C37.68 19.3453 37.8545 19.2871 38.0509 19.2217C38.16 19.1853 38.2254 19.0689 38.1963 18.9526L38.1818 18.9089C37.9854 18.0726 37.5854 16.9962 37.1563 16.1235C36.7709 15.3308 36.48 14.909 36.2763 14.698C36.2327 14.6544 36.1963 14.618 36.16 14.589C36.1163 13.8399 35.9927 13.1126 35.8327 12.4144C35.789 12.2253 35.7454 12.0435 35.7018 11.8617C35.68 11.7744 35.6509 11.6799 35.629 11.5926C35.6 11.498 35.5709 11.4035 35.5418 11.309C35.4109 10.9453 35.2509 10.6035 35.0836 10.2835C34.7418 9.6435 34.349 9.06168 33.92 8.53805C33.709 8.27623 33.4836 8.03623 33.2509 7.81077C33.0181 7.58532 32.7709 7.38168 32.509 7.20714C32.4436 7.1635 32.3709 7.12714 32.3054 7.0835C32.2327 7.04714 32.1672 7.01077 32.0945 6.98168C32.0218 6.94532 31.949 6.9235 31.8763 6.89441C31.8036 6.87259 31.7309 6.85077 31.6581 6.83623C31.3745 6.7635 31.0909 6.72714 30.8218 6.71986C30.2763 6.70532 29.7818 6.78532 29.3527 6.90168C28.9236 7.01805 28.5527 7.17805 28.24 7.33077C27.9272 7.4835 27.6727 7.63623 27.4691 7.76714C27.2363 7.91986 27.069 8.0435 26.9745 8.1235C26.8727 8.03623 26.7854 7.92714 26.7127 7.81077C26.6327 7.67259 26.5672 7.53441 26.5163 7.39623C26.4072 7.12714 26.3418 6.87259 26.2836 6.67623C26.2545 6.55986 26.2254 6.45805 26.1963 6.37805C26.3127 6.37805 26.4145 6.34896 26.4872 6.26896C26.6254 6.10896 26.6909 5.83987 26.7636 5.65077C26.8509 5.43259 26.9309 5.20714 27.0036 4.98168C27.1418 4.53078 27.2581 4.06532 27.3309 3.59987C27.4472 2.87987 27.4618 2.07259 27.0181 1.49078C26.6472 1.0035 26 0.77805 25.3891 0.821686C24.7781 0.85805 24.2036 1.13441 23.7163 1.50532C23.5054 1.21441 23.2945 0.923504 23.0181 0.705322C22.7418 0.487141 22.3854 0.334413 22.0291 0.385322C21.5127 0.45805 21.1491 0.908958 20.8363 1.33078C20.6691 1.14896 20.5018 0.96714 20.2836 0.843504C20.0727 0.719868 19.8036 0.661686 19.5781 0.756231C19.3527 0.843504 19.2 1.05441 19.0836 1.27259C18.8436 1.70896 18.6691 2.00714 18.1672 2.15987C17.8327 2.25441 17.5054 2.47987 17.4545 2.86532C17.4109 3.17078 17.6145 3.51259 17.92 3.57805C17.7672 3.67987 17.6072 3.77441 17.4763 3.90532C17.3454 4.03623 17.2436 4.2035 17.2291 4.38532C17.2072 4.56714 17.2872 4.7635 17.44 4.85805C17.6072 4.95987 17.8254 4.93077 18 4.83623C17.92 4.93805 17.84 5.04714 17.7963 5.17077C17.76 5.29441 17.7672 5.43986 17.8545 5.53441C17.9272 5.60714 18.0363 5.63623 18.1454 5.63623C18.2545 5.62896 18.3491 5.59259 18.4509 5.5635C18.4072 5.78168 18.56 6.01441 18.7636 6.10168C18.8436 6.13077 18.9309 6.14532 19.0109 6.14532V6.15259C19.0254 6.18168 19.0327 6.21077 19.0472 6.23259C19.0981 6.33441 19.1418 6.39987 19.1636 6.45805C19.2727 6.71986 19.28 7.03259 19.2363 7.36714C19.1927 7.70168 19.0909 8.05805 19.0472 8.45077C19.04 8.50896 19.04 8.56714 19.04 8.63259C19.0472 8.69805 19.0545 8.77804 19.0909 8.86532C19.1272 8.95259 19.2 9.03986 19.2945 9.09805C19.3891 9.14895 19.4836 9.1635 19.5636 9.1635C19.6072 9.1635 19.6436 9.15623 19.68 9.14895C19.7163 9.14168 19.7527 9.13441 19.7818 9.11986C19.84 9.09805 19.8909 9.07623 19.9345 9.05441L19.9781 9.03259L20 9.10532L20.0436 9.2435C20.1018 9.42532 20.1818 9.60713 20.2763 9.78895C20.3781 9.9635 20.4872 10.1308 20.6254 10.2835C20.7636 10.4362 20.9309 10.5671 21.12 10.669C21.3018 10.7708 21.5054 10.8362 21.7091 10.8653C21.9127 10.8944 22.1091 10.9017 22.3054 10.8799C22.5018 10.858 22.6836 10.8217 22.8654 10.7708C22.9527 10.749 23.04 10.7199 23.1272 10.6908L23.2509 10.6471L23.3018 10.6253L23.3672 10.6399C23.3963 10.6471 23.4109 10.6544 23.4181 10.6544L23.4691 10.7635C23.4981 10.829 23.5345 10.8871 23.5636 10.9526C23.5272 10.9599 23.4909 10.9671 23.4545 10.989C23.2363 11.069 22.9018 11.2653 22.3345 11.6508C21.7672 12.0362 21.1054 12.509 20.5963 12.9017C20.2981 13.1271 20.0581 13.3308 19.9127 13.4762C19.04 13.2071 18.1381 12.9308 17.2218 12.6617C16.1381 12.3417 15.0327 12.0144 13.9345 11.7162C13.7963 11.6799 13.6581 11.6435 13.52 11.6071L13.3091 11.5562C13.2363 11.5417 13.1563 11.5271 13.0836 11.5126H13.0763C13.0763 11.5126 13.0763 11.5126 13.0618 11.5126C13.04 11.5126 13.0181 11.5126 13.0036 11.5126L12.96 11.5199C12.9381 11.5271 12.9163 11.5344 12.9018 11.5417C12.8654 11.5562 12.8291 11.5708 12.7927 11.578C12.7272 11.6071 12.6618 11.629 12.5891 11.658C12.4581 11.7162 12.3272 11.7671 12.1963 11.8253C11.8109 11.9926 11.4327 12.1671 11.0545 12.3417C10.7709 12.4653 10.4509 12.6035 10.0872 12.7635C9.89088 12.8508 9.67997 12.9453 9.45451 13.0471C9.43997 13.0471 9.41815 13.0544 9.4036 13.0617C9.22906 13.1417 9.05451 13.229 8.87997 13.309C8.82179 13.338 8.7636 13.3599 8.70542 13.389C8.4436 13.5126 8.17451 13.6362 7.8836 13.7744C7.73815 13.8399 7.5927 13.9126 7.43997 13.9853C7.28724 14.058 7.13451 14.1162 6.9527 14.2471C6.89451 14.2908 6.83633 14.3417 6.78542 14.4144C6.73451 14.4799 6.69815 14.5671 6.6836 14.6471C6.64724 14.8144 6.67633 14.9671 6.73451 15.1126C6.77088 15.2071 6.82179 15.2871 6.87997 15.3599C6.56724 15.4617 6.18906 15.5999 5.74542 15.8035C5.13451 16.0871 4.37815 16.4871 3.56361 17.1562C3.17815 17.469 2.75633 17.8689 2.35633 18.3635C1.95633 18.858 1.57088 19.4471 1.27997 20.1453C1.19997 20.3199 1.14179 20.5017 1.07633 20.6908C1.03997 20.7853 1.01815 20.8799 0.989062 20.9744C0.959971 21.0689 0.93088 21.1708 0.909062 21.2653C0.887243 21.3671 0.865425 21.4689 0.843607 21.5708C0.836334 21.6217 0.821789 21.6726 0.814516 21.7235C0.807243 21.7744 0.799971 21.8253 0.792698 21.8835C0.778153 21.9926 0.763607 22.0944 0.749062 22.2035C0.741789 22.3126 0.734516 22.4217 0.727243 22.5308C0.727243 22.5889 0.719971 22.6399 0.719971 22.698V22.8653C0.719971 22.9817 0.719971 23.0908 0.727243 23.2071C0.749062 23.4399 0.756334 23.6726 0.807243 23.9053C0.814516 23.9635 0.829062 24.0217 0.836334 24.0799L0.85088 24.1817L0.872698 24.2689C0.901789 24.3853 0.93088 24.5089 0.959971 24.6253C1.03997 24.8653 1.1127 25.1053 1.22179 25.338C1.4327 25.8108 1.70906 26.2762 2.08724 26.698C2.41452 27.0689 2.81452 27.3817 3.26542 27.6435C3.09088 28.3708 3.02542 29.1489 3.1127 29.9126C3.21452 30.7853 3.51997 31.6289 3.94906 32.3853C4.38542 33.1417 4.93815 33.818 5.55633 34.4217C6.17451 35.0253 6.84361 35.5562 7.54906 36.0435C8.95997 37.0108 10.4727 37.7962 12.0218 38.4726C13.5709 39.1489 15.1491 39.7235 16.7272 40.2253C18.3054 40.7271 19.8909 41.1562 21.4545 41.5344C24.5818 42.2835 27.6436 42.8217 30.5236 43.1926C31.9636 43.3744 33.3672 43.5126 34.7127 43.5926C35.389 43.6289 36.0436 43.6508 36.6909 43.6435C37.0181 43.6362 37.3381 43.6289 37.6581 43.5926C37.8181 43.578 37.9854 43.5489 38.1454 43.5126C38.2981 43.4689 38.4436 43.4326 38.5963 43.3889C38.749 43.3526 38.8872 43.3017 39.0327 43.258C39.1781 43.2071 39.3236 43.1708 39.4618 43.1198C39.7381 43.018 40.0218 42.9162 40.2836 42.7998C40.5527 42.6908 40.8072 42.5598 41.0545 42.4362C41.1781 42.3708 41.3018 42.3053 41.4181 42.2398C41.4763 42.2035 41.5418 42.1744 41.6 42.1453C41.6581 42.1089 41.7163 42.0726 41.7745 42.0435C42.24 41.7744 42.6618 41.4689 43.0618 41.178C43.4545 40.8798 43.8109 40.5598 44.1381 40.2544C44.7854 39.6289 45.309 39.0108 45.7236 38.4362C46.1381 37.8689 46.4509 37.3453 46.6836 36.9162C46.9163 36.4871 47.069 36.138 47.1563 35.898C47.2509 35.6362 47.28 35.5053 47.2727 35.5053ZM42.749 35.6726C42.7781 35.7017 42.8072 35.7308 42.829 35.7671C42.88 35.8326 42.9236 35.898 42.9527 35.978C43.0254 36.1235 43.0618 36.298 43.0618 36.4653C43.0618 36.5526 43.0472 36.6398 43.0327 36.7198C43.0109 36.7998 42.9818 36.8871 42.9381 36.9598C42.9236 37.0035 42.8945 37.0326 42.8727 37.0762C42.8436 37.1126 42.8218 37.1417 42.7854 37.1853C42.7127 37.2726 42.64 37.3526 42.5672 37.4398C41.3818 38.8144 40.0436 40.378 38.6981 41.978C38.5309 42.1817 38.3636 42.378 38.189 42.5817L38.1745 42.6035L38.1672 42.6108L38.16 42.618C38.1527 42.6253 38.1527 42.6253 38.1454 42.6326C38.1309 42.6398 38.1236 42.6544 38.109 42.6617C38.0872 42.6762 38.0581 42.6908 38.029 42.698C37.9709 42.7198 37.9127 42.7198 37.8618 42.7053C37.8327 42.698 37.8109 42.6835 37.789 42.6689C37.7818 42.6617 37.7745 42.6617 37.7745 42.6544L37.7381 42.6253L37.6727 42.5744C37.5854 42.5017 37.5127 42.4289 37.4545 42.3562C37.3309 42.1962 37.2654 42.0289 37.2654 41.8762C37.2654 41.7162 37.3381 41.5198 37.44 41.3017C37.549 41.0762 37.6581 40.8508 37.7745 40.618C38 40.1598 38.2254 39.6871 38.3709 39.178C38.4436 38.9162 38.4945 38.6544 38.5163 38.3853C38.5381 38.1235 38.5236 37.8544 38.48 37.6071C38.4727 37.578 38.4654 37.5489 38.4654 37.5126C39.5781 36.5671 40.6836 35.6289 41.7963 34.6835C42.0581 34.9598 42.3418 35.258 42.6545 35.5708C42.6836 35.6071 42.7127 35.6362 42.749 35.6726ZM28.5891 27.1708C28.5963 27.1199 28.5963 27.0689 28.5818 27.0253C28.5963 26.9962 28.6036 26.9599 28.6181 26.9235C28.829 26.3199 28.9963 25.4617 28.8436 25.4035C28.6909 25.3453 28.2763 26.1235 28.0654 26.7199C28.0436 26.778 28.0291 26.8289 28.0145 26.8726C27.9781 26.9089 27.9563 26.9526 27.9345 27.0035V27.0108C27.8909 27.1562 27.8545 27.2653 27.8109 27.3308C27.7891 27.3599 27.7672 27.3817 27.7454 27.3962C27.7236 27.4108 27.7091 27.4108 27.7163 27.4035C27.7236 27.4035 27.7236 27.4035 27.7163 27.3962C27.7091 27.3889 27.6945 27.3671 27.68 27.3453C27.6654 27.3162 27.6581 27.2871 27.6581 27.258C27.6581 27.2435 27.6654 27.1853 27.6727 27.1489C27.6945 27.0835 27.6945 27.0035 27.6727 26.9308C27.6945 26.8799 27.7163 26.8217 27.7381 26.7562C27.9418 26.1817 28.0872 25.3671 27.9345 25.3089C27.7818 25.2508 27.3818 25.9853 27.1781 26.5526C27.149 26.6326 27.1272 26.698 27.1127 26.7562L27.0545 26.7926C27.04 26.7999 27.0327 26.8144 27.0181 26.8217C27.0109 26.8217 27.0036 26.8289 26.9963 26.8362C26.9745 26.8435 26.9527 26.8508 26.9309 26.8508C26.9236 26.8508 26.9236 26.8508 26.9163 26.8508C26.9163 26.8362 26.909 26.8217 26.909 26.7999C26.9163 26.7635 26.909 26.7053 26.909 26.6253L26.9018 26.5599C26.9018 26.5526 26.9018 26.538 26.9018 26.5308C26.9018 26.5089 26.9018 26.4871 26.9018 26.4653C26.9091 26.4217 26.9163 26.3635 26.9309 26.3053L26.9745 26.1017L27.0109 25.898C27.0327 25.7599 27.0618 25.6289 27.0836 25.4908C27.1272 25.2217 27.1781 24.9526 27.2218 24.6835C27.229 24.6471 27.229 24.6108 27.229 24.5744C27.2072 24.3635 27.0181 24.2035 26.8 24.2253C26.6836 24.2399 26.5818 24.2689 26.5018 24.298C26.4218 24.3271 26.3563 24.3562 26.3054 24.378C26.2545 24.3999 26.2181 24.4071 26.1963 24.4144C26.1672 24.4217 26.1381 24.4217 26.1091 24.4144C26.0509 24.4071 25.9854 24.378 25.9491 24.3417C25.9127 24.3053 25.8836 24.2617 25.8691 24.2108C25.8545 24.1526 25.8618 24.0944 25.8763 24.058C25.8909 24.0144 25.9345 23.9562 26.0145 23.8908C26.0872 23.8253 26.1891 23.7526 26.2763 23.6871C26.3709 23.6217 26.4654 23.5562 26.56 23.498C26.7563 23.3744 26.9454 23.258 27.1345 23.1344C27.2509 23.0617 27.3672 22.9817 27.4763 22.8944C27.5127 22.9089 27.549 22.9235 27.5927 22.9453C28.32 23.2435 29.0763 23.4835 29.8472 23.7017C30.2327 23.8108 30.6327 23.9053 31.04 23.9926C31.1418 24.0144 31.2436 24.0289 31.3454 24.0508C31.3381 24.0653 31.3381 24.0799 31.3309 24.0944C31.2509 24.3635 31.1563 24.7708 31.0254 25.258C30.8945 25.7453 30.7272 26.3271 30.4509 26.938C30.3854 27.0908 30.3054 27.2508 30.2254 27.3817C30.1454 27.5199 30.0436 27.6289 29.9345 27.6944C29.8181 27.7671 29.6872 27.7889 29.6 27.7599C29.5709 27.7526 29.5636 27.7453 29.549 27.738C29.5345 27.7308 29.52 27.7162 29.5054 27.6944C29.4763 27.658 29.4618 27.6144 29.4618 27.5853C29.4618 27.5562 29.4545 27.5344 29.4472 27.5053C29.4763 27.4399 29.5054 27.3599 29.5418 27.2726C29.7527 26.6689 29.92 25.8108 29.7672 25.7526C29.6145 25.6944 29.2 26.4726 28.989 27.0689C28.909 27.2944 28.8727 27.4471 28.8654 27.5635C28.8509 27.5999 28.8363 27.6362 28.8145 27.6653C28.7927 27.7017 28.7636 27.7308 28.7345 27.7526C28.7054 27.7744 28.6763 27.7817 28.669 27.7744C28.6618 27.7744 28.6545 27.7744 28.6327 27.7599C28.6181 27.7453 28.5891 27.7162 28.5745 27.6871C28.56 27.6508 28.5454 27.6217 28.5454 27.5635C28.5309 27.4689 28.5527 27.3308 28.5891 27.1708ZM11.8181 17.6944C11.8181 17.6871 11.8181 17.6799 11.8181 17.6799V17.6944ZM12.3491 12.1235C12.48 12.0726 12.6036 12.0144 12.7345 11.9635L12.8145 11.9344C12.7927 11.9635 12.7709 11.9926 12.7418 12.0217C12.6472 12.138 12.5236 12.2835 12.4 12.4726C12.2836 12.6544 12.1527 12.8726 12.0145 13.1199C11.7527 13.6071 11.4763 14.218 11.28 14.938C11.1054 15.5708 10.9891 16.2835 10.9672 17.0326L10.96 17.0399C10.9527 17.0471 10.9381 17.0617 10.9309 17.0689C10.9163 17.0835 10.9091 17.098 10.8945 17.1126C10.8509 17.1635 10.8291 17.2071 10.8072 17.2508C10.7854 17.2944 10.7636 17.3308 10.7491 17.3744C10.7127 17.4544 10.6763 17.5344 10.6472 17.6144C10.5672 17.818 10.5018 18.0289 10.4436 18.2399C9.8836 17.7526 9.31633 17.2435 8.77088 16.7271C8.77088 16.698 8.77088 16.6689 8.77088 16.6399C8.77088 16.5671 8.7636 16.4726 8.75633 16.3635C8.74906 16.138 8.74179 15.8253 8.7927 15.4108C8.85088 14.9962 8.97451 14.4653 9.30179 13.8762C9.39633 13.709 9.50542 13.5417 9.62906 13.3817C9.84724 13.2799 10.0581 13.178 10.2472 13.0908C10.5891 12.9308 10.8945 12.7853 11.1636 12.6544C11.5636 12.4726 11.9563 12.298 12.3491 12.1235ZM32.1963 24.1162C32.269 24.1089 32.3418 24.1017 32.4654 24.058C32.5236 24.0362 32.6109 23.9853 32.6836 23.8908L32.7418 23.8035C32.7854 23.738 32.8 23.7017 32.829 23.6508C32.88 23.5562 32.9309 23.4689 32.9745 23.3744C33.069 23.1926 33.1636 23.0108 33.2581 22.8289C33.4472 22.4653 33.629 22.0944 33.8109 21.7235C34.1745 20.9889 34.5309 20.2399 34.8727 19.498C34.9381 19.3599 35.0036 19.2144 35.0618 19.0762C35.1781 19.1489 35.4109 19.2653 35.8109 19.4326C35.8036 19.4399 35.7963 19.4471 35.789 19.4544C35.7454 19.498 35.6945 19.5344 35.6509 19.5853C35.6072 19.6289 35.5636 19.6799 35.52 19.7235C35.3236 19.9417 35.1345 20.1889 34.9672 20.4508C34.9672 20.4508 34.9672 20.458 34.96 20.458C34.9163 20.5235 34.8727 20.5889 34.8363 20.6617C34.8218 20.6908 34.8072 20.7126 34.7927 20.7417C34.7854 20.7489 34.7854 20.7562 34.7781 20.7635C34.749 20.8144 34.7127 20.8726 34.6836 20.9235C34.6618 20.9671 34.64 21.0108 34.6181 21.0617V21.0689C34.6109 21.0762 34.6109 21.0908 34.6036 21.098C34.5963 21.1126 34.5963 21.1199 34.5891 21.1344C34.509 21.2871 34.4363 21.4471 34.3709 21.6071C34.3563 21.6435 34.3418 21.6799 34.3272 21.7162C34.2763 21.8544 34.2181 21.9853 34.1745 22.1235C34.1163 22.3126 34.0509 22.4944 34 22.6835C33.9709 22.778 33.949 22.8726 33.92 22.9671C33.8981 23.0617 33.8763 23.1562 33.8545 23.258C33.6727 24.0217 33.5781 24.8071 33.5418 25.6071C32.9163 25.4835 32.3709 25.3817 31.9636 25.3017C31.709 25.2508 31.5054 25.2144 31.3818 25.1999C31.4472 24.7562 31.4836 24.3926 31.5127 24.138C31.5127 24.1162 31.5127 24.1017 31.52 24.0871C31.5709 24.0944 31.6218 24.1017 31.68 24.1089C31.789 24.1235 31.8981 24.1308 32.0218 24.138C32.0654 24.1235 32.1236 24.1235 32.1963 24.1162ZM26.56 21.7235C26.4291 21.6653 26.2181 21.5853 25.9127 21.4835C25.1854 21.2362 23.8981 20.8362 21.6654 20.1453C19.4327 19.4617 16.7927 18.6544 14.6981 18.0726C14.5963 18.0435 14.5018 18.0217 14.4072 17.9926C14.3854 17.978 14.3636 17.9635 14.3491 17.9562C14.3127 17.9417 14.2836 17.9271 14.2472 17.9053C14.1818 17.8762 14.1163 17.8471 14.0509 17.818C13.9854 17.7962 13.92 17.7671 13.8545 17.7526C13.7891 17.7308 13.7236 17.709 13.6363 17.7017C13.6 17.6944 13.5636 17.6944 13.52 17.6944C13.5054 17.6508 13.4763 17.5999 13.4472 17.5635C13.3891 17.4908 13.3163 17.4399 13.2509 17.4108C13.1927 17.3817 13.1345 17.3671 13.0836 17.3526C13.0327 17.338 12.9963 17.338 12.96 17.3235C12.9236 17.3162 12.88 17.309 12.8436 17.3017C12.7636 17.2871 12.6909 17.2726 12.6109 17.258C12.5309 17.2435 12.4291 17.2217 12.2981 17.2508C12.2691 17.258 12.24 17.2653 12.2109 17.2799C12.1818 17.258 12.16 17.2362 12.1381 17.2144C11.9781 17.098 11.8254 17.0326 11.6509 16.9817C11.5636 16.9599 11.4691 16.938 11.3672 16.9308C11.3381 16.9308 11.3091 16.9308 11.28 16.9308C11.2945 16.2399 11.3891 15.5853 11.5272 14.9962C11.6145 14.618 11.7309 14.2762 11.8472 13.9562C12.0145 14.029 12.3345 14.1453 12.7563 14.2908C13.4254 14.5235 14.3709 14.8508 15.4618 15.2144C17.6436 15.949 20.4291 16.8653 22.8 17.6144C25.1709 18.3635 26.5454 18.7635 27.3381 18.9671C27.7018 19.0617 27.9345 19.1126 28.0872 19.1344C27.629 19.9271 27.12 20.7853 26.56 21.7235ZM13.0109 17.8908C13.0181 17.898 13.0254 17.898 13.0109 17.8908V17.8908ZM14.08 18.4144C14.0945 18.4217 14.0945 18.4289 14.0872 18.4217C14.08 18.4217 14.08 18.4144 14.08 18.4144ZM15.3672 19.2799C15.3672 19.1562 15.36 19.0326 15.3527 18.9089C15.3527 18.8799 15.3454 18.8508 15.3454 18.8144V18.7708L15.3381 18.7199V18.7053V18.6908C15.3381 18.6762 15.3309 18.6617 15.3309 18.6399C15.3236 18.618 15.3236 18.6108 15.3163 18.6035L15.3018 18.5744C15.2945 18.5671 15.2945 18.5526 15.2872 18.5453C17.2363 19.1635 19.5491 19.9053 21.5491 20.5162C23.7891 21.2071 25.0909 21.5635 25.8327 21.7453C26.1163 21.8108 26.3127 21.8544 26.4581 21.8762C26.4509 21.8835 26.4509 21.8908 26.4436 21.9053C26.3345 22.0871 26.3927 22.3199 26.5672 22.4362C26.6036 22.458 26.64 22.4799 26.6763 22.5089C26.5018 22.6108 26.3272 22.7199 26.1381 22.8362C26.0363 22.9017 25.9272 22.9671 25.8181 23.0471C25.7091 23.1271 25.6072 23.1999 25.4836 23.3017C25.4327 23.3526 25.3745 23.4035 25.3163 23.4689C25.1927 23.418 25.0327 23.3599 24.8145 23.2871C24.5745 23.2071 24.2691 23.1053 23.9127 22.9962L23.8981 22.9889C23.4545 22.8508 22.8945 22.6835 22.2036 22.4871C20.6909 22.0362 18.9091 21.5199 17.4981 21.1344C16.5163 20.8653 15.7091 20.6544 15.3091 20.5744C15.3163 20.538 15.3309 20.5089 15.3309 20.4726C15.3381 20.4289 15.3454 20.3853 15.3454 20.3417C15.3454 20.298 15.3527 20.2689 15.3527 20.2326L15.36 20.0362C15.3745 19.7817 15.3672 19.5271 15.3672 19.2799ZM41.6436 21.4253C41.5563 21.4471 41.4836 21.4908 41.4109 21.5344C41.2654 21.6217 41.1563 21.7308 41.0545 21.8399C40.8509 22.0653 40.6836 22.3053 40.5381 22.5526C40.3927 22.7999 40.269 23.0544 40.1527 23.3089C40.0436 23.5635 39.9418 23.818 39.8618 24.0653C39.7745 24.3126 39.7018 24.5671 39.6509 24.8071C39.4327 25.7817 39.4254 26.6617 39.5418 27.2726C39.6 27.5708 39.6945 27.8108 39.8109 27.9489C39.3454 27.8689 38.8654 27.7817 38.3854 27.658C37.7963 27.5053 37.1927 27.3162 36.64 27.0253C36.6327 26.9744 36.6181 26.9017 36.6109 26.8144C36.5963 26.6471 36.589 26.4144 36.6109 26.0799C36.6181 25.9126 36.6327 25.7235 36.6545 25.5053C36.6763 25.2799 36.6909 25.0471 36.7272 24.778C36.7927 24.2471 36.909 23.6653 37.069 23.1126C37.149 22.8362 37.2363 22.5599 37.3381 22.3053C37.4327 22.0435 37.5345 21.7962 37.6436 21.578C37.7018 21.4689 37.76 21.3671 37.8181 21.2726C37.8763 21.178 37.9418 21.0835 38.0072 21.018C38.1381 20.8799 38.2981 20.7853 38.429 20.7126C38.4872 20.6835 38.5454 20.6544 38.5963 20.6326C38.6254 20.6617 38.6618 20.6762 38.7054 20.6835C39.5054 20.7489 40.1381 20.8362 40.6181 20.9744C41.0909 21.098 41.4181 21.2726 41.6436 21.4253ZM38.3418 20.2035C38.4436 20.298 38.5163 20.3999 38.5454 20.5017C38.4945 20.5162 38.4363 20.5308 38.3709 20.5526C38.2181 20.6035 38.029 20.6835 37.8545 20.8362C37.7672 20.9162 37.6872 21.0035 37.6145 21.1053C37.5418 21.2071 37.469 21.3089 37.4036 21.4253C37.2654 21.6508 37.149 21.9053 37.04 22.1671C36.9236 22.4289 36.8218 22.7053 36.7272 22.9962C36.5454 23.5635 36.4145 24.1671 36.3418 24.7199C36.3054 24.9962 36.2909 25.2508 36.2763 25.4689C36.2618 25.6871 36.2545 25.8835 36.2545 26.058C36.2545 26.4071 36.2909 26.6689 36.3418 26.858C36.3563 26.9162 36.3781 26.9671 36.3927 27.0035C36.3709 27.0035 36.349 27.0035 36.3272 27.0035C36.2618 27.0035 36.1963 26.9962 36.1309 26.9889C36 26.9744 35.869 26.9526 35.7381 26.9162C35.4763 26.8508 35.2145 26.7635 34.9672 26.6544C34.72 26.538 34.4945 26.3926 34.3054 26.218C34.1236 26.0508 33.9854 25.8399 33.9127 25.6144C33.949 24.8435 34.0509 24.0726 34.2254 23.338C34.2472 23.2435 34.2691 23.1489 34.2909 23.0617C34.32 22.9671 34.3418 22.8799 34.3709 22.7853C34.4218 22.6035 34.4872 22.4217 34.5454 22.2471C34.64 21.9926 34.7345 21.7453 34.8436 21.5053C34.8727 21.4326 34.909 21.3671 34.9454 21.3017C34.96 21.2799 34.9672 21.258 34.9818 21.2289C35.229 20.7489 35.5054 20.3271 35.8254 19.978C35.8618 19.9344 35.9054 19.8908 35.9418 19.8471C35.9854 19.8035 36.029 19.7671 36.0654 19.7308C36.109 19.6944 36.1454 19.6508 36.189 19.6144L36.2109 19.5999C36.2181 19.5999 36.2327 19.5926 36.2472 19.5926C36.3345 19.578 36.4363 19.578 36.5381 19.5853C36.64 19.5926 36.7418 19.6071 36.8436 19.6217C37.2509 19.6871 37.6218 19.7962 37.9345 19.9489C38.0872 20.0217 38.2327 20.1089 38.3418 20.2035ZM35.8327 17.2217C35.8981 17.018 35.9709 16.829 36.029 16.6108C36.0581 16.5017 36.0727 16.3999 36.0945 16.2908C36.1163 16.189 36.1236 16.0799 36.1381 15.978C36.1454 15.9344 36.1454 15.8908 36.1527 15.8471C36.24 16.029 36.3345 16.2326 36.4509 16.4653C36.829 17.2362 37.2727 18.1671 37.6145 18.8871C37.36 19.0399 37.149 19.1635 37.0181 19.258C36.9818 19.2508 36.9454 19.2435 36.9163 19.2362C36.8072 19.2217 36.6909 19.2071 36.5745 19.1926C36.4581 19.1853 36.3345 19.178 36.189 19.1999C36.1818 19.1999 36.1745 19.1999 36.1745 19.1999C35.6218 19.018 35.3163 18.9308 35.149 18.9089C35.3745 18.3562 35.6145 17.7962 35.8327 17.2217ZM23.3091 10.4217C23.3091 10.4144 23.3163 10.4071 23.3163 10.3999C23.3163 10.3999 23.3163 10.4071 23.3091 10.4217ZM23.4254 10.1599L23.3963 10.1526H23.3818H23.3745C23.3672 10.1526 23.36 10.1526 23.3454 10.1453C23.3309 10.1453 23.3091 10.138 23.2945 10.1453C23.2872 10.1453 23.28 10.1453 23.2654 10.1453C23.2581 10.1453 23.2509 10.1453 23.2509 10.1453H23.2363L23.2072 10.1526C23.1854 10.1599 23.1781 10.1599 23.1636 10.1671L23.0981 10.189L22.9745 10.2326C22.8945 10.2544 22.8145 10.2835 22.7345 10.3053C22.5745 10.349 22.4145 10.378 22.2618 10.3926C21.9491 10.4217 21.6363 10.3708 21.3745 10.2253C21.2436 10.1526 21.1272 10.058 21.0254 9.94168C20.9745 9.8835 20.9236 9.81077 20.8727 9.74532C20.9818 9.7235 21.1127 9.67986 21.2436 9.59259C21.3236 9.54168 21.3963 9.47623 21.4691 9.4035C21.5345 9.33077 21.5927 9.2435 21.6363 9.15623C21.7309 8.98895 21.7745 8.80714 21.7963 8.65441C21.8327 8.34895 21.7672 8.13077 21.6945 8.1235C21.6145 8.11623 21.52 8.30532 21.3963 8.53077C21.3381 8.63986 21.2654 8.75623 21.1781 8.85805C21.1345 8.90895 21.0981 8.95259 21.0545 8.98895C21.0109 9.02532 20.9672 9.06168 20.9163 9.09077C20.7854 9.17077 20.6909 9.21441 20.6254 9.2435C20.6036 9.18532 20.5818 9.13441 20.5672 9.07623L20.5309 8.95259L20.5018 8.82895L20.4727 8.70532C20.4654 8.6835 20.4581 8.65441 20.4436 8.63259C20.4291 8.6035 20.4072 8.57441 20.3927 8.55259C20.3709 8.53077 20.3418 8.50896 20.32 8.49441C20.2981 8.47986 20.2691 8.46532 20.2472 8.45805C20.16 8.42896 20.1018 8.43623 20.0654 8.4435C19.9781 8.45077 19.92 8.47259 19.8691 8.49441C19.8181 8.51623 19.76 8.53805 19.7236 8.55259C19.68 8.57441 19.6509 8.58895 19.6218 8.59623C19.6145 8.59623 19.6145 8.59623 19.6145 8.59623C19.6145 8.57441 19.6145 8.54532 19.6218 8.51623C19.6581 8.18168 19.76 7.83259 19.8181 7.45441C19.8763 7.07623 19.8836 6.64714 19.7163 6.23986C19.6727 6.13077 19.6218 6.05077 19.5927 5.98532C19.5854 5.97077 19.5781 5.95623 19.5709 5.94168L19.5563 5.89805C19.7018 5.75259 19.8254 5.55623 19.8981 5.38168C20 5.13441 20.1018 4.87259 20.3636 4.7635C20.7054 4.61805 21.0836 4.82896 21.4254 4.95259C22.0654 5.18532 22.8 5.14896 23.4109 4.8435C23.6072 4.74896 23.8109 4.62532 24.0145 4.62532C24 4.71987 23.9927 4.80714 23.9927 4.87987C23.9927 4.99623 24 5.09077 24.0145 5.17077C24.0436 5.33077 24.0872 5.41805 24.1309 5.46896C24.1745 5.51987 24.2109 5.53441 24.2545 5.52714C24.3418 5.51259 24.3927 5.43259 24.4363 5.1635C24.4654 5.03259 24.4872 4.8435 24.5745 4.63987C24.6618 4.43623 24.8145 4.21077 25.1345 4.13805C25.2945 4.10168 25.4545 4.11623 25.6145 4.18896C25.7745 4.26168 25.9127 4.39259 25.9854 4.54532C26.0654 4.70532 26.0945 4.90168 26.08 5.09077C26.0654 5.28714 26.0072 5.47623 25.9345 5.6435C25.7745 5.98532 25.5418 6.25441 25.3891 6.45077C25.2291 6.64714 25.1418 6.77805 25.1709 6.80714C25.2 6.83623 25.3381 6.77077 25.5491 6.61805C25.6581 6.53805 25.7818 6.4435 25.9127 6.31986C25.9127 6.31986 25.9127 6.31987 25.92 6.31259C25.9781 6.33441 26.0363 6.34896 26.0945 6.35623C26.1091 6.45077 26.1236 6.56714 26.1454 6.69805C26.1818 6.90896 26.2327 7.1635 26.32 7.45441C26.3636 7.59986 26.4218 7.75986 26.5018 7.91986C26.5672 8.05077 26.6545 8.18168 26.7781 8.29805C26.5672 8.66168 26.3491 9.06168 26.1091 9.49804C25.9781 9.73077 25.8472 9.97804 25.7018 10.2253C25.5563 10.4726 25.4036 10.7199 25.229 10.9526C25.1418 11.069 25.0472 11.178 24.9454 11.2726C24.8436 11.3671 24.7345 11.4326 24.6545 11.4399C24.6109 11.4399 24.5745 11.4399 24.5309 11.418C24.4872 11.3962 24.4363 11.3671 24.3927 11.3162C24.2981 11.229 24.2109 11.1053 24.1309 10.9744C24.0509 10.8435 23.9781 10.698 23.9127 10.5526L23.8545 10.4362C23.8254 10.3635 23.76 10.2908 23.68 10.2399C23.6072 10.1962 23.5418 10.1817 23.4909 10.1671L23.4254 10.1599ZM20.8945 13.3671C21.4909 13.0908 22.2109 12.6908 22.7927 12.298C23.3745 11.9053 23.68 11.6217 23.8181 11.418C23.8254 11.4035 23.84 11.389 23.8472 11.3744C23.92 11.4762 24 11.5708 24.1018 11.658C24.1745 11.7235 24.2691 11.7817 24.3709 11.8253C24.48 11.869 24.6036 11.8835 24.72 11.869C24.8363 11.8544 24.9381 11.8035 25.0254 11.7526C25.0691 11.7235 25.1054 11.7017 25.1418 11.6653C25.1781 11.6362 25.2145 11.6071 25.2436 11.578C25.3745 11.4544 25.4691 11.3235 25.5636 11.1926C25.7454 10.9308 25.8909 10.669 26.0363 10.4071C26.1745 10.1526 26.2981 9.89805 26.4218 9.65805C26.6618 9.17805 26.88 8.73441 27.0836 8.33441V8.32714C27.1127 8.26895 27.0981 8.19623 27.04 8.15986C27.149 8.10895 27.3236 8.01441 27.5563 7.89805C27.7672 7.78895 28.0291 7.66532 28.3418 7.53441C28.6545 7.4035 29.0181 7.27986 29.4327 7.19259C29.8472 7.10532 30.3127 7.04714 30.8072 7.0835C31.0545 7.10532 31.309 7.14168 31.5636 7.21441C31.629 7.23623 31.6872 7.25077 31.7527 7.27259C31.8109 7.29441 31.869 7.31623 31.9272 7.34532C31.9854 7.37441 32.0436 7.41077 32.1018 7.43986C32.16 7.47623 32.2181 7.51259 32.2763 7.55623C32.5018 7.71623 32.72 7.91259 32.9309 8.1235C33.1418 8.34168 33.3454 8.57441 33.5418 8.82895C33.9272 9.33805 34.2909 9.90532 34.6036 10.5162C34.7563 10.8217 34.9018 11.1417 35.0036 11.469C35.0327 11.549 35.0545 11.629 35.0763 11.7162C35.0981 11.8035 35.12 11.8908 35.1418 11.978C35.1854 12.1526 35.2218 12.3344 35.2581 12.5162C35.4036 13.2362 35.5127 13.9853 35.5345 14.749C35.5418 15.1271 35.5345 15.5053 35.4836 15.8835C35.469 15.978 35.4618 16.0726 35.44 16.1599C35.4254 16.2544 35.4109 16.349 35.3818 16.429C35.3381 16.5962 35.2654 16.7853 35.2 16.9599C34.9163 17.6944 34.5745 18.4289 34.2254 19.1635C33.8763 19.898 33.5127 20.6326 33.149 21.3599C32.9672 21.7235 32.7781 22.0871 32.589 22.4508C32.4945 22.6326 32.4 22.8071 32.3054 22.9889C32.2545 23.0762 32.2109 23.1635 32.16 23.2508C32.1454 23.2726 32.1309 23.3017 32.1163 23.3235C32.0872 23.3235 32.0581 23.3235 32.029 23.3235C31.949 23.3235 31.8545 23.3162 31.7672 23.3017C31.5854 23.2799 31.389 23.2435 31.2 23.2071C30.8218 23.1271 30.4436 23.0326 30.0654 22.9235C30.0436 22.9162 30.0145 22.9089 29.9927 22.9017C29.9127 22.8726 29.8254 22.8362 29.7381 22.8071C29.2218 22.618 28.5672 22.3926 27.7454 22.1235C27.6363 22.0799 27.5272 22.0289 27.4254 21.978C27.3963 21.9635 27.3672 21.9489 27.3381 21.9344C28.6836 19.6726 29.7236 17.8617 30.5236 16.3926C30.7345 16.0071 30.9236 15.6435 31.0981 15.3017C31.1854 15.1271 31.2654 14.9599 31.3454 14.7853C31.3672 14.7417 31.3818 14.698 31.4036 14.6471C31.4109 14.618 31.4254 14.5962 31.4327 14.5599L31.44 14.5308C31.44 14.5162 31.4472 14.5017 31.4472 14.4871V14.4653V14.4508C31.4472 14.4362 31.4472 14.429 31.4472 14.4144C31.4472 14.3926 31.4472 14.3708 31.44 14.349C31.44 14.3344 31.4327 14.3271 31.4327 14.3126C31.4327 14.298 31.4254 14.2908 31.4254 14.2908L31.389 14.2108C31.3745 14.1817 31.3672 14.1671 31.36 14.1453C31.3381 14.1017 31.3236 14.0653 31.3018 14.029C30.9963 13.4399 30.72 12.9671 30.48 12.5599C30.3636 12.3562 30.2545 12.1817 30.1454 12.0144C30.0945 11.9344 30.0436 11.8544 29.9927 11.7817C29.9781 11.7599 29.9636 11.7453 29.9563 11.7235C29.9418 11.7017 29.9272 11.6799 29.9054 11.658C29.8763 11.6217 29.8545 11.5999 29.8254 11.5708C29.6218 11.3453 29.4618 11.178 29.3381 11.0617C29.0909 10.8217 28.9818 10.7635 28.9381 10.7999C28.8945 10.829 28.9236 10.9526 29.0981 11.2508C29.1854 11.3962 29.309 11.5926 29.4836 11.8399C29.5054 11.869 29.5272 11.9053 29.549 11.9344C29.5563 11.949 29.5636 11.9562 29.5709 11.9708C29.5781 11.9853 29.5854 12.0071 29.6 12.0217C29.6363 12.0944 29.68 12.1744 29.7163 12.2544C29.8036 12.4217 29.8909 12.6108 29.9927 12.8144C30.1963 13.229 30.4436 13.7235 30.72 14.3053C30.7345 14.3417 30.7563 14.378 30.7709 14.4144V14.4217C30.7563 14.4508 30.749 14.4799 30.7345 14.509C30.6618 14.6544 30.5818 14.8144 30.4945 14.9817C30.3127 15.309 30.1163 15.6653 29.8981 16.0435C29.7527 16.298 29.6 16.5599 29.4327 16.8435C29.2218 16.7344 28.8072 16.5599 28.0436 16.269C27.3963 16.0144 26.4945 15.6799 25.2509 15.2362C24.6327 15.0108 23.9272 14.7635 23.12 14.4799C22.72 14.3417 22.2909 14.1962 21.84 14.0435C21.3818 13.8908 20.9018 13.7453 20.3927 13.5853C20.3781 13.578 20.3636 13.578 20.3491 13.5708C20.5091 13.5344 20.6981 13.4617 20.8945 13.3671ZM31.0836 14.4435C31.1636 14.4217 31.2 14.4071 31.0836 14.4435V14.4435ZM13.2363 11.8835L13.44 11.9344C13.5781 11.9708 13.7091 12.0071 13.8472 12.0435C14.9381 12.3562 16.0363 12.6835 17.12 13.0108C18.2036 13.338 19.2654 13.6653 20.2763 13.978C20.7854 14.138 21.2654 14.2835 21.7163 14.4362C22.1672 14.5817 22.5963 14.7271 22.9963 14.8653C23.8036 15.1417 24.5091 15.3817 25.1345 15.5999C26.3854 16.029 27.2945 16.3417 27.9563 16.5526C28.7054 16.7999 29.1345 16.9235 29.3672 16.9817C29.0109 17.5926 28.6181 18.2617 28.1818 18.9962C28.0436 18.9308 27.8109 18.8362 27.4254 18.7053C26.6618 18.4362 25.2945 17.9926 22.9236 17.2435C20.5527 16.4944 17.76 15.6217 15.5563 14.9526C14.4509 14.618 13.4981 14.3344 12.8145 14.1453C12.3781 14.0217 12.0581 13.9417 11.8763 13.898C11.9709 13.6435 12.08 13.4108 12.1818 13.1926C12.2981 12.9453 12.4145 12.7271 12.5236 12.538C12.6254 12.349 12.7345 12.1962 12.8218 12.0653C12.8727 11.9926 12.9163 11.9271 12.9527 11.869C12.9818 11.8617 13.0036 11.8471 13.0327 11.8399C13.0472 11.8326 13.0545 11.8326 13.0691 11.8326C13.12 11.8544 13.1709 11.869 13.2363 11.8835ZM3.89088 29.8253C3.81815 29.2144 3.86179 28.5962 3.9927 27.9999C4.37088 28.1453 4.77815 28.2544 5.20724 28.3126C5.8327 28.3999 6.50179 28.378 7.16361 28.2035C7.81815 28.0289 8.47269 27.6799 8.98906 27.1489C9.25088 26.8799 9.46906 26.5599 9.62906 26.2108C9.78906 25.8617 9.89815 25.4762 9.91997 25.0689C9.94179 24.6617 9.86906 24.2253 9.65088 23.8326C9.53451 23.6435 9.39633 23.4617 9.22906 23.3089C9.06179 23.1562 8.86542 23.0399 8.65451 22.9526C8.23997 22.778 7.78906 22.7271 7.3527 22.778C7.13451 22.7999 6.90906 22.858 6.70542 22.9308C6.50179 23.0035 6.30542 23.098 6.11633 23.2071C5.73815 23.4253 5.40361 23.7089 5.11997 24.0289C5.04724 24.1089 4.98179 24.1962 4.91633 24.2762C4.85088 24.3635 4.78542 24.4508 4.73452 24.538L4.55997 24.7926L4.38542 25.0544C4.16724 25.4035 3.97088 25.7671 3.78906 26.1526C3.6727 26.3999 3.57088 26.6471 3.48361 26.9089C3.16361 26.7053 2.8727 26.4726 2.6327 26.2108C2.58906 26.1671 2.5527 26.1235 2.51633 26.0799C2.47997 26.0362 2.44361 25.9926 2.40724 25.9417C2.34179 25.8471 2.27633 25.7526 2.20361 25.658C2.13815 25.5635 2.08724 25.4617 2.02906 25.3599C1.97088 25.2653 1.92724 25.1562 1.87633 25.0544C1.77452 24.8508 1.70906 24.6399 1.63633 24.4362C1.60724 24.3271 1.57815 24.2253 1.55633 24.1235L1.53452 24.0435L1.51997 23.9635C1.5127 23.9126 1.49815 23.8617 1.49088 23.8035C1.46906 23.5853 1.45452 23.3744 1.4327 23.1708C1.4327 23.0689 1.42542 22.9671 1.42542 22.8653C1.42542 22.8144 1.42542 22.7635 1.42542 22.7126C1.42542 22.6617 1.4327 22.6108 1.4327 22.5599C1.43997 22.458 1.43997 22.3635 1.44724 22.2617C1.46179 22.1671 1.46906 22.0653 1.48361 21.9708C1.49088 21.9199 1.49815 21.8762 1.49815 21.8253C1.50542 21.7817 1.5127 21.7308 1.52724 21.6871C1.54179 21.5926 1.56361 21.5053 1.57815 21.4108C1.59997 21.3235 1.62179 21.2289 1.64361 21.1417C1.66542 21.0544 1.68724 20.9671 1.71633 20.8799C1.77452 20.7126 1.81815 20.538 1.89088 20.3853C2.14542 19.7453 2.47997 19.1999 2.83633 18.7344C3.1927 18.2689 3.57815 17.8835 3.94906 17.5562C4.69088 16.9089 5.38906 16.4871 5.9636 16.1817C6.42906 15.9344 6.81451 15.7599 7.11997 15.6217C7.14906 15.658 7.18542 15.6944 7.21451 15.7308C7.54906 16.1017 7.9127 16.4435 8.27633 16.7853C8.95269 17.418 9.65815 18.0289 10.3563 18.618C10.2909 18.9453 10.2472 19.2726 10.2545 19.6071C10.2618 19.7744 10.2836 19.9562 10.3491 20.1308C10.4072 20.2835 10.48 20.4289 10.56 20.5599C10.7272 20.8217 10.9163 21.0326 11.12 21.1853C11.3163 21.3453 11.5127 21.4544 11.68 21.5199C12.0218 21.658 12.24 21.658 12.2472 21.6217C12.2618 21.578 12.0654 21.5053 11.7891 21.3162C11.6509 21.2217 11.4981 21.098 11.3454 20.938C11.1927 20.778 11.0472 20.5817 10.9309 20.3489C10.8727 20.2326 10.8218 20.1089 10.7854 19.978C10.7491 19.8617 10.7418 19.738 10.7491 19.5926C10.7563 19.3089 10.8145 19.0108 10.8945 18.7053C10.9745 18.4071 11.0763 18.1017 11.1927 17.818C11.2218 17.7453 11.2509 17.6799 11.28 17.6144C11.2945 17.5853 11.3091 17.549 11.3236 17.5199V17.5126C11.3745 17.5199 11.4327 17.5271 11.4909 17.5417C11.6072 17.5708 11.7236 17.6217 11.7818 17.6726C11.7963 17.6799 11.8036 17.6871 11.8109 17.6944V17.7162C11.8036 17.7744 11.76 17.8617 11.7163 17.9562C11.6727 18.0435 11.6072 18.1817 11.5781 18.2835C11.52 18.5089 11.52 18.6908 11.5272 18.8435C11.5345 18.9962 11.5563 19.1199 11.5781 19.2289C11.6218 19.4326 11.68 19.5562 11.7309 19.6217C11.7818 19.6871 11.8254 19.7017 11.8618 19.6944C11.9054 19.6871 11.9345 19.658 11.9563 19.578C11.9781 19.498 11.9854 19.3817 11.9927 19.1853C12 19.0908 12 18.9817 12.0145 18.8508C12.0291 18.7271 12.0509 18.5817 12.1018 18.4362C12.1309 18.3635 12.1527 18.3199 12.2109 18.218C12.2618 18.1235 12.3345 18.0071 12.3781 17.8253C12.3854 17.7817 12.3927 17.7308 12.3927 17.6799C12.3927 17.6726 12.3927 17.6653 12.3927 17.658C12.4145 17.6653 12.4509 17.6726 12.4945 17.6871C12.5672 17.709 12.64 17.738 12.7127 17.7599C12.7854 17.7817 12.8581 17.8108 12.9381 17.8326C12.9527 17.8399 12.9672 17.8471 12.9818 17.8544C12.9818 17.8617 12.9818 17.8689 12.9745 17.8762C12.9672 17.898 12.9527 17.9344 12.9454 17.9708L12.9018 18.0799C12.8436 18.2253 12.7781 18.3708 12.72 18.5235C12.6036 18.8217 12.5381 19.1053 12.5454 19.3308C12.5454 19.5562 12.5963 19.7235 12.6545 19.8326C12.7127 19.9417 12.7781 19.9926 12.8291 20.0144C12.88 20.0362 12.9163 20.0217 12.9527 20.0071C12.9891 19.9853 13.0181 19.9562 13.0327 19.9126C13.0472 19.8689 13.0545 19.8108 13.0545 19.7235C13.0618 19.6362 13.0618 19.5271 13.0836 19.3671C13.1054 19.2071 13.1636 19.0108 13.2654 18.7344C13.3163 18.5962 13.3818 18.4435 13.4327 18.2835C13.4472 18.2399 13.4618 18.2035 13.4763 18.1599C13.4836 18.138 13.4909 18.1089 13.4981 18.0799C13.5054 18.0799 13.5127 18.0871 13.5272 18.0871C13.5636 18.1017 13.6072 18.1235 13.6581 18.1526C13.7091 18.1817 13.7672 18.2108 13.8181 18.2399C13.8618 18.2689 13.9054 18.2908 13.9563 18.3199C13.9272 18.378 13.8981 18.4289 13.8691 18.4871C13.8036 18.618 13.7527 18.7489 13.7091 18.8799C13.6218 19.1417 13.5781 19.3526 13.5563 19.5199C13.5345 19.6944 13.5491 19.8544 13.6 19.9708C13.6509 20.0799 13.7163 20.138 13.7672 20.1526C13.8181 20.1671 13.8545 20.1526 13.8909 20.1235C13.92 20.0944 13.9491 20.0653 13.9636 20.0289C13.9781 19.9926 14 19.9562 14.0145 19.898C14.0291 19.8399 14.0509 19.7671 14.0945 19.6289C14.1381 19.4835 14.1891 19.3017 14.2691 19.0689C14.3054 18.9526 14.3491 18.8362 14.4 18.7199C14.4218 18.6617 14.4509 18.6035 14.4727 18.538L14.4945 18.4944C14.5018 18.4799 14.5163 18.4508 14.5236 18.4217C14.5236 18.4144 14.5309 18.3999 14.5309 18.3926C14.5527 18.3999 14.5745 18.4144 14.6036 18.4289C14.64 18.4508 14.6763 18.4726 14.7127 18.5017C14.7854 18.5526 14.8436 18.6108 14.8654 18.6689C14.88 18.698 14.8872 18.7344 14.88 18.7344V18.7708V18.8144C14.88 18.8435 14.88 18.8726 14.8727 18.9017C14.8654 19.018 14.8581 19.1344 14.8509 19.258C14.8363 19.5053 14.8145 19.7526 14.8 20.0071L14.7854 20.1962C14.7854 20.2253 14.7781 20.2617 14.7781 20.2835C14.7781 20.3053 14.7709 20.3271 14.7636 20.3489C14.7418 20.4289 14.7054 20.5162 14.6472 20.5962C14.5309 20.7562 14.3636 20.9017 14.1891 21.018C13.8327 21.2508 13.4981 21.3453 13.2436 21.4035C12.9818 21.4544 12.7854 21.4689 12.64 21.4835C12.4945 21.498 12.4 21.5053 12.3345 21.5271C12.2763 21.5489 12.2472 21.5853 12.2327 21.6217C12.2254 21.658 12.2327 21.7017 12.2836 21.7526C12.3345 21.8035 12.4291 21.8544 12.5963 21.898C12.7636 21.9417 13.0036 21.978 13.3309 21.9417C13.6509 21.9053 14.0727 21.8035 14.5236 21.5126C14.7418 21.3671 14.9672 21.1853 15.1418 20.9235C15.1927 20.8435 15.2363 20.7562 15.2727 20.6617C15.6509 20.8144 16.4363 21.0835 17.4109 21.4035C18.5963 21.7889 20.0581 22.2544 21.4036 22.6617C19.8181 23.0835 18.4581 23.4762 18.0872 23.6871C17.44 24.058 16.88 24.5671 16.3272 25.0689C14.0363 27.1562 13.1127 28.4217 10.8218 30.5089C11.12 30.9889 11.4545 31.4471 11.8254 31.898C11.8036 31.9126 11.7818 31.9271 11.76 31.9417C11.5927 32.0362 11.4181 32.1162 11.2291 32.1744C10.8581 32.2908 10.4363 32.3198 9.97088 32.2544C9.61451 32.2035 9.25088 32.1162 8.87269 32.0071C8.6836 31.9489 8.48724 31.8908 8.29088 31.8398C8.18906 31.8108 8.09451 31.7817 7.9927 31.7526C7.89088 31.7235 7.78906 31.6944 7.6727 31.6726C7.44724 31.6217 7.17815 31.5926 6.88724 31.6653C6.60361 31.738 6.36361 31.8908 6.18179 32.0726C5.9927 32.2544 5.85451 32.4726 5.7527 32.6835C5.65088 32.8871 5.57815 33.0835 5.5127 33.2726C5.17088 32.8726 4.86542 32.458 4.61088 32.0071C4.23997 31.3235 3.97088 30.5817 3.89088 29.8253ZM4.19633 27.2653C4.28361 27.0035 4.3927 26.7417 4.50906 26.4871C4.66906 26.138 4.85815 25.8035 5.06179 25.4762L5.21451 25.2289L5.37451 24.9889C5.42542 24.9089 5.47633 24.8362 5.53451 24.7635C5.58542 24.6908 5.64361 24.6253 5.70179 24.5599C5.94179 24.2908 6.21088 24.0653 6.50906 23.8908C6.65451 23.8035 6.81451 23.7308 6.96724 23.6726C7.11997 23.6144 7.2727 23.578 7.4327 23.5562C7.74542 23.5199 8.06542 23.5562 8.33451 23.6726C8.46542 23.7308 8.58906 23.8035 8.69088 23.898C8.7927 23.9853 8.87269 24.1017 8.94542 24.218C9.07633 24.458 9.12724 24.7417 9.11269 25.0326C9.07633 25.6217 8.79997 26.2035 8.40724 26.6035C7.99997 27.0253 7.47633 27.3089 6.93088 27.4544C6.38542 27.6071 5.81815 27.6289 5.27997 27.5562C4.91633 27.5053 4.54542 27.4035 4.19633 27.2653ZM9.28724 35.5489C8.23997 34.9453 7.22179 34.1962 6.3127 33.338C6.35633 33.2289 6.39997 33.1271 6.45088 33.0326C6.53088 32.8726 6.62542 32.7344 6.74179 32.6253C6.85088 32.5162 6.97451 32.4435 7.09815 32.4144C7.21451 32.3853 7.35997 32.3926 7.53451 32.4362C7.62179 32.458 7.70906 32.4799 7.81088 32.5089C7.90542 32.538 7.99997 32.5671 8.10179 32.5962C8.29815 32.6544 8.48724 32.7126 8.6836 32.7708C9.07633 32.8871 9.47633 32.9889 9.89815 33.0471C10.1672 33.0835 10.4436 33.098 10.7127 33.0835C10.9818 33.0689 11.2509 33.0108 11.4981 32.938C11.7454 32.858 11.9709 32.7489 12.1745 32.6326C12.24 32.5889 12.3054 32.5526 12.3709 32.5089C13.2436 33.4471 14.2836 34.3053 15.4691 35.0617C15.1563 35.4762 14.7854 35.9635 14.3781 36.5162C14.2763 36.6544 14.1672 36.8144 14.0654 36.9162C13.9563 37.0253 13.8181 37.1198 13.6654 37.178C13.5127 37.2362 13.3454 37.258 13.1781 37.2508C13.0109 37.2362 12.8436 37.1853 12.6981 37.0908C12.6836 37.0835 12.6691 37.0762 12.6545 37.0689H12.6472C11.5491 36.6908 10.4 36.1962 9.28724 35.5489ZM36.6909 43.1635C36.0581 43.1635 35.4109 43.1271 34.7418 43.0835C33.4109 42.9889 32.029 42.8362 30.5963 42.6326C27.7381 42.2326 24.7054 41.6653 21.6072 40.8944C20.0581 40.5089 18.4945 40.0726 16.9381 39.5635C15.3818 39.0544 13.8254 38.4798 12.32 37.8108C11.4472 37.418 10.5818 36.9962 9.75269 36.5235C10.6691 36.9598 11.5854 37.3017 12.4509 37.5635C12.6691 37.6726 12.9091 37.738 13.1418 37.7453C13.3891 37.7526 13.6291 37.7017 13.8472 37.6144C14.0654 37.5198 14.2472 37.3817 14.3927 37.2144C14.4291 37.1708 14.4654 37.1271 14.4945 37.0835C14.5309 37.0398 14.5527 36.9962 14.5818 36.9598C14.6327 36.8798 14.6836 36.7998 14.7345 36.7198C15.1054 36.138 15.4327 35.6289 15.6945 35.1926C15.7236 35.2071 15.7454 35.2217 15.7745 35.2435C16.0218 35.3889 18.6691 32.1744 19.0618 31.7889C19.8109 31.0471 22.1745 28.8362 22.6181 28.5671C22.8218 28.4435 24.5163 27.9489 26.48 27.4471C26.5236 27.4762 26.5672 27.5053 26.6109 27.5199C26.7418 27.578 26.8654 27.5926 26.9818 27.5853H27.0109C27.0254 27.6144 27.0327 27.6362 27.0472 27.6653C27.1054 27.7744 27.1854 27.8835 27.3018 27.9635C27.4181 28.0508 27.5709 28.1089 27.7309 28.1017C27.8472 28.1017 27.949 28.0653 28.0363 28.0217C28.1018 28.1235 28.1818 28.2108 28.2909 28.2835C28.4072 28.3635 28.5745 28.4071 28.7272 28.3926C28.88 28.378 29.0109 28.3126 29.1054 28.2399C29.1345 28.218 29.1636 28.1889 29.1927 28.1671C29.2145 28.1817 29.229 28.1962 29.2509 28.2108C29.3163 28.2544 29.389 28.2762 29.4545 28.298C29.4618 28.3489 29.4618 28.3926 29.469 28.4435C29.7381 30.8071 31.389 32.7417 32.9745 34.5089C34.0072 35.6653 35.04 36.8217 36.0727 37.9853C36.2545 38.1889 36.4581 38.4071 36.7272 38.4798C37.0909 38.5671 37.4472 38.3562 37.7527 38.1162C37.7527 38.378 37.709 38.6617 37.629 38.9526C37.5054 39.3817 37.3018 39.818 37.0836 40.2689C36.9745 40.4944 36.8581 40.7271 36.749 40.9671C36.6909 41.0908 36.6327 41.2217 36.589 41.3744C36.5454 41.5198 36.509 41.6944 36.509 41.8762C36.509 42.058 36.5527 42.2398 36.6109 42.3998C36.6763 42.5598 36.7636 42.7053 36.8654 42.8289C36.9672 42.9526 37.0763 43.0617 37.1927 43.1562C37.0181 43.1635 36.8509 43.1635 36.6909 43.1635Z" fill="#744DE6"/>
<path d="M21.12 5.89803C20.9091 5.79621 20.6037 5.78894 20.3637 5.88349C20.1309 5.97076 20.0291 6.10167 20.0073 6.18894C19.9782 6.28349 20.0219 6.34167 20.08 6.40712C20.1382 6.4653 20.1964 6.50894 20.2764 6.51621C20.3491 6.52349 20.4364 6.49439 20.5746 6.44349C20.7128 6.3853 20.8873 6.34167 21.04 6.31258C21.1128 6.29803 21.1782 6.29076 21.2364 6.28349C21.2946 6.27621 21.3382 6.26894 21.3673 6.23985C21.3964 6.21076 21.3964 6.15258 21.3528 6.08712C21.3164 6.01439 21.2291 5.94894 21.12 5.89803Z" fill="#744DE6"/>
<path d="M20.7708 6.6109C20.6472 6.55999 20.5308 6.68362 20.509 6.79999C20.5017 6.86544 20.509 6.9309 20.5381 6.99635C20.5672 7.06181 20.6108 7.12726 20.669 7.16362C20.7344 7.19999 20.8144 7.20726 20.8799 7.1709C20.9526 7.12726 20.9817 7.02544 20.9744 6.93817C20.9672 6.82908 20.8872 6.65453 20.7708 6.6109Z" fill="#744DE6"/>
<path d="M31.1273 2.46511H31.3164C31.3891 2.46511 31.4764 2.45784 31.5709 2.46511C31.9564 2.45784 32.5091 2.46511 33.2 2.53056C33.3746 2.54511 33.5564 2.5742 33.7455 2.59602C33.84 2.61056 33.9346 2.62511 34.0364 2.64693C34.1309 2.66147 34.2327 2.67602 34.3346 2.70511C34.4364 2.72693 34.5382 2.74875 34.64 2.77056C34.7418 2.79965 34.8509 2.82147 34.96 2.85056C35.0691 2.87238 35.1782 2.90875 35.2873 2.93784C35.3964 2.9742 35.5055 2.99602 35.6218 3.03965C36.5164 3.32329 37.4764 3.75238 38.4073 4.36329C39.3382 4.98147 40.2327 5.78147 40.9964 6.74148C41.76 7.70148 42.4 8.82875 42.8073 10.0287C42.9164 10.356 42.9964 10.6906 43.04 11.0178C42.9237 10.9887 42.8 10.9597 42.6764 10.9306C42.6109 10.916 42.5455 10.9087 42.4727 10.9015C42.4073 10.8942 42.3346 10.8797 42.2691 10.8724C42.1309 10.8651 41.9855 10.8506 41.8473 10.8578C41.7746 10.8578 41.7018 10.8578 41.6291 10.8651C41.5564 10.8724 41.4837 10.8797 41.4109 10.8869C41.2655 10.9015 41.1127 10.9306 40.96 10.9669C40.6546 11.0469 40.3346 11.1778 40.0437 11.4106C39.8982 11.5269 39.7673 11.6724 39.6655 11.8469C39.5564 12.0215 39.4982 12.2251 39.4764 12.4287C39.4255 12.836 39.5273 13.236 39.7309 13.5706C39.8327 13.7378 39.9564 13.8978 40.1164 14.0288C40.2691 14.1597 40.4582 14.2687 40.6473 14.3342C41.0255 14.4724 41.44 14.4869 41.8182 14.3997C42.1964 14.3124 42.5527 14.1378 42.8509 13.8833C43.1418 13.6287 43.3746 13.3087 43.5273 12.9669C43.6509 12.6978 43.7309 12.4215 43.7746 12.1378C44.1018 12.3269 44.3782 12.5451 44.6037 12.7851C44.8437 13.0324 45.0327 13.3015 45.1709 13.5633C45.3091 13.8324 45.4037 14.0942 45.4691 14.3487C45.5927 14.8578 45.6146 15.3088 45.5782 15.6869C45.5491 16.0651 45.4764 16.3633 45.4037 16.6033C45.3382 16.8433 45.2655 17.0178 45.2146 17.156C45.2 17.1924 45.1927 17.2215 45.1782 17.2506C45.1637 17.2797 45.1564 17.3015 45.1491 17.3306C45.1346 17.3815 45.12 17.4178 45.1127 17.4469C45.0982 17.5124 45.1055 17.5488 45.1273 17.5633C45.1491 17.5778 45.1855 17.5778 45.2364 17.5415C45.2655 17.5197 45.2946 17.4978 45.3382 17.4615C45.36 17.4397 45.3818 17.4251 45.4037 17.396C45.4255 17.3742 45.4473 17.3451 45.4691 17.316C45.5637 17.1924 45.6873 17.0178 45.8037 16.7706C45.9273 16.5233 46.0437 16.1888 46.1164 15.7669C46.1891 15.3451 46.2037 14.8215 46.0873 14.2178C46.0218 13.9197 45.9273 13.5924 45.7673 13.2651C45.6073 12.9378 45.3891 12.6106 45.1127 12.2978C44.8291 11.9924 44.4873 11.7015 44.0727 11.4615C43.9855 11.4106 43.8909 11.3597 43.7964 11.316C43.7673 10.7851 43.6364 10.276 43.4764 9.80329C43.0182 8.50875 42.32 7.33784 41.4909 6.34148C40.6618 5.33784 39.6873 4.52329 38.6909 3.90511C37.6946 3.28693 36.6691 2.87966 35.7309 2.62511C35.6146 2.58875 35.4982 2.56693 35.3818 2.53784C35.2655 2.50875 35.1564 2.47965 35.04 2.46511C34.9309 2.44329 34.8146 2.42147 34.7055 2.39965C34.5964 2.38511 34.4873 2.36329 34.3855 2.34875C34.2836 2.3342 34.1746 2.31965 34.0727 2.31238C33.9709 2.29784 33.8691 2.29056 33.7746 2.28329C33.5782 2.26875 33.3891 2.2542 33.2146 2.24693C32.5018 2.22511 31.9346 2.26875 31.5491 2.32693C31.4546 2.34147 31.3673 2.35602 31.2946 2.37056C31.2218 2.38511 31.1636 2.39965 31.1127 2.4142C31.0109 2.43602 30.9673 2.45784 30.9673 2.47238C30.9673 2.45056 31.0255 2.45784 31.1273 2.46511ZM42.8146 12.6324C42.6982 12.8869 42.5309 13.1124 42.3273 13.2869C41.9346 13.6287 41.3382 13.7597 40.9018 13.5851C40.7855 13.5415 40.6982 13.4906 40.6109 13.4178C40.5237 13.3451 40.4509 13.2506 40.3927 13.156C40.3346 13.0542 40.2909 12.9451 40.2618 12.836C40.24 12.7269 40.2327 12.6178 40.2473 12.5087C40.2618 12.4069 40.2909 12.3124 40.3418 12.2324C40.3927 12.1451 40.4582 12.0651 40.5382 11.9997C40.6982 11.8615 40.9164 11.7669 41.1491 11.7087C41.2655 11.6797 41.3818 11.6578 41.4982 11.6433L41.6727 11.6215C41.7309 11.6142 41.7891 11.6215 41.8473 11.6142C41.9637 11.6069 42.08 11.6215 42.1964 11.6215C42.2546 11.6287 42.3127 11.636 42.3637 11.6433C42.4218 11.6506 42.4727 11.6578 42.5309 11.6651C42.7127 11.7015 42.88 11.7451 43.0473 11.796C43.0109 12.0942 42.9309 12.3778 42.8146 12.6324Z" fill="#744DE6"/>
</svg>
